<svg width="260" height="144" viewBox="0 0 260 144" fill="none" xmlns="http://www.w3.org/2000/svg">
<rect x="0.5" y="0.431854" width="258.75" height="143.068" rx="11" fill="white"/>
<path d="M31.404 30.4319V20.7359H27.692V19.0399H37.212V20.7359H33.484V30.4319H31.404ZM40.8926 30.5599C40.0713 30.5599 39.346 30.3892 38.7166 30.0479C38.098 29.7065 37.618 29.2212 37.2766 28.5919C36.946 27.9519 36.7806 27.2052 36.7806 26.3519C36.7806 25.4985 36.946 24.7572 37.2766 24.1279C37.618 23.4879 38.098 22.9972 38.7166 22.6559C39.346 22.3145 40.0713 22.1439 40.8926 22.1439C41.7033 22.1439 42.418 22.3145 43.0366 22.6559C43.6553 22.9972 44.13 23.4879 44.4606 24.1279C44.802 24.7572 44.9726 25.4985 44.9726 26.3519C44.9726 27.2052 44.802 27.9519 44.4606 28.5919C44.13 29.2212 43.6553 29.7065 43.0366 30.0479C42.418 30.3892 41.7033 30.5599 40.8926 30.5599ZM40.8766 28.9919C41.5593 28.9919 42.0766 28.7732 42.4286 28.3359C42.7913 27.8879 42.9726 27.2265 42.9726 26.3519C42.9726 25.4879 42.7913 24.8319 42.4286 24.3839C42.066 23.9252 41.554 23.6959 40.8926 23.6959C40.2206 23.6959 39.7033 23.9252 39.3406 24.3839C38.978 24.8319 38.7966 25.4879 38.7966 26.3519C38.7966 27.2265 38.9726 27.8879 39.3246 28.3359C39.6873 28.7732 40.2046 28.9919 40.8766 28.9919ZM49.1945 23.8559V27.4719C49.1945 28.4212 49.6372 28.8959 50.5225 28.8959C50.7678 28.8959 51.0345 28.8532 51.3225 28.7679V30.3519C50.9705 30.4799 50.5438 30.5439 50.0425 30.5439C49.1252 30.5439 48.4212 30.2879 47.9305 29.7759C47.4398 29.2639 47.1945 28.5279 47.1945 27.5679V23.8559H45.6425V22.3519H47.1945V20.3839L49.1945 19.7119V22.3519H51.3385V23.8559H49.1945ZM60.441 22.3519V30.4319H58.473V29.1359C58.2277 29.5839 57.8757 29.9359 57.417 30.1919C56.9583 30.4372 56.4357 30.5599 55.849 30.5599C55.145 30.5599 54.521 30.3892 53.977 30.0479C53.433 29.7065 53.0117 29.2212 52.713 28.5919C52.4143 27.9625 52.265 27.2319 52.265 26.3999C52.265 25.5679 52.4143 24.8319 52.713 24.1919C53.0223 23.5412 53.449 23.0399 53.993 22.6879C54.537 22.3252 55.1557 22.1439 55.849 22.1439C56.4357 22.1439 56.9583 22.2719 57.417 22.5279C57.8757 22.7732 58.2277 23.1199 58.473 23.5679V22.3519H60.441ZM56.393 28.9919C57.0543 28.9919 57.5663 28.7625 57.929 28.3039C58.2917 27.8452 58.473 27.1999 58.473 26.3679C58.473 25.5145 58.2917 24.8585 57.929 24.3999C57.5663 23.9412 57.049 23.7119 56.377 23.7119C55.7157 23.7119 55.1983 23.9519 54.825 24.4319C54.4623 24.9012 54.281 25.5572 54.281 26.3999C54.281 27.2319 54.4623 27.8719 54.825 28.3199C55.1983 28.7679 55.721 28.9919 56.393 28.9919ZM62.6193 30.4319V18.6559H64.6033V30.4319H62.6193ZM71.3258 30.4319V19.0399H78.9418V20.6719H73.3418V23.8239H78.6058V25.4559H73.3418V28.7999H78.9418V30.4319H71.3258ZM85.1614 26.2719L88.5534 30.4319H86.1694L83.9934 27.6959L81.8174 30.4319H79.4494L82.8414 26.2719L79.6574 22.3519H82.0254L83.9934 24.8639L85.9614 22.3519H88.3454L85.1614 26.2719ZM94.0866 22.1439C94.78 22.1439 95.3933 22.3252 95.9266 22.6879C96.4706 23.0399 96.892 23.5412 97.1906 24.1919C97.5 24.8319 97.6546 25.5679 97.6546 26.3999C97.6546 27.2319 97.5053 27.9625 97.2066 28.5919C96.908 29.2212 96.4866 29.7065 95.9426 30.0479C95.4093 30.3892 94.7906 30.5599 94.0866 30.5599C93.5 30.5599 92.9773 30.4372 92.5186 30.1919C92.06 29.9359 91.708 29.5839 91.4626 29.1359V33.8879H89.4786V24.6399C89.4786 23.7865 89.436 23.0239 89.3506 22.3519H91.2226L91.3826 23.7439C91.596 23.2425 91.9426 22.8532 92.4226 22.5759C92.9026 22.2879 93.4573 22.1439 94.0866 22.1439ZM93.5426 28.9919C94.2146 28.9919 94.732 28.7679 95.0946 28.3199C95.4573 27.8719 95.6386 27.2319 95.6386 26.3999C95.6386 25.5572 95.4573 24.9012 95.0946 24.4319C94.732 23.9519 94.22 23.7119 93.5586 23.7119C92.876 23.7119 92.3533 23.9412 91.9906 24.3999C91.628 24.8585 91.4466 25.5145 91.4466 26.3679C91.4466 27.2105 91.628 27.8612 91.9906 28.3199C92.3533 28.7679 92.8706 28.9919 93.5426 28.9919ZM106.473 26.4959H100.905C100.947 27.3599 101.161 27.9999 101.545 28.4159C101.939 28.8212 102.521 29.0239 103.289 29.0239C104.174 29.0239 104.995 28.7359 105.753 28.1599L106.329 29.5359C105.945 29.8452 105.47 30.0959 104.905 30.2879C104.35 30.4692 103.785 30.5599 103.209 30.5599C101.886 30.5599 100.846 30.1865 100.089 29.4399C99.3312 28.6932 98.9525 27.6692 98.9525 26.3679C98.9525 25.5465 99.1178 24.8159 99.4485 24.1759C99.7792 23.5359 100.243 23.0399 100.841 22.6879C101.438 22.3252 102.115 22.1439 102.873 22.1439C103.982 22.1439 104.857 22.5065 105.497 23.2319C106.147 23.9465 106.473 24.9332 106.473 26.1919V26.4959ZM102.921 23.5839C102.387 23.5839 101.95 23.7439 101.609 24.0639C101.278 24.3732 101.065 24.8265 100.969 25.4239H104.729C104.665 24.8159 104.478 24.3572 104.169 24.0479C103.87 23.7385 103.454 23.5839 102.921 23.5839ZM112.79 22.1439C114.721 22.1439 115.686 23.2532 115.686 25.4719V30.4319H113.686V25.5679C113.686 24.9279 113.563 24.4639 113.318 24.1759C113.073 23.8772 112.694 23.7279 112.182 23.7279C111.574 23.7279 111.083 23.9252 110.71 24.3199C110.337 24.7039 110.15 25.2159 110.15 25.8559V30.4319H108.166V24.6399C108.166 23.7865 108.123 23.0239 108.038 22.3519H109.91L110.054 23.6799C110.331 23.1892 110.705 22.8105 111.174 22.5439C111.654 22.2772 112.193 22.1439 112.79 22.1439ZM120.767 30.5599C119.305 30.5599 118.143 30.2185 117.279 29.5359L117.839 28.1279C118.703 28.7679 119.689 29.0879 120.799 29.0879C121.279 29.0879 121.647 29.0079 121.903 28.8479C122.169 28.6879 122.303 28.4639 122.303 28.1759C122.303 27.9305 122.212 27.7385 122.031 27.5999C121.849 27.4505 121.54 27.3225 121.103 27.2159L119.759 26.9119C118.287 26.5919 117.551 25.8399 117.551 24.6559C117.551 24.1652 117.689 23.7332 117.967 23.3599C118.244 22.9759 118.633 22.6772 119.135 22.4639C119.636 22.2505 120.217 22.1439 120.879 22.1439C121.455 22.1439 122.009 22.2345 122.543 22.4159C123.076 22.5865 123.545 22.8372 123.951 23.1679L123.359 24.5279C122.548 23.9305 121.716 23.6319 120.863 23.6319C120.404 23.6319 120.047 23.7172 119.791 23.8879C119.535 24.0585 119.407 24.2932 119.407 24.5919C119.407 24.8265 119.481 25.0132 119.631 25.1519C119.791 25.2905 120.057 25.4079 120.431 25.5039L121.807 25.8079C122.607 25.9892 123.188 26.2719 123.551 26.6559C123.924 27.0292 124.111 27.5199 124.111 28.1279C124.111 28.8745 123.812 29.4665 123.215 29.9039C122.617 30.3412 121.801 30.5599 120.767 30.5599ZM132.894 26.4959H127.326C127.369 27.3599 127.582 27.9999 127.966 28.4159C128.361 28.8212 128.942 29.0239 129.71 29.0239C130.596 29.0239 131.417 28.7359 132.174 28.1599L132.75 29.5359C132.366 29.8452 131.892 30.0959 131.326 30.2879C130.772 30.4692 130.206 30.5599 129.63 30.5599C128.308 30.5599 127.268 30.1865 126.51 29.4399C125.753 28.6932 125.374 27.6692 125.374 26.3679C125.374 25.5465 125.54 24.8159 125.87 24.1759C126.201 23.5359 126.665 23.0399 127.262 22.6879C127.86 22.3252 128.537 22.1439 129.294 22.1439C130.404 22.1439 131.278 22.5065 131.918 23.2319C132.569 23.9465 132.894 24.9332 132.894 26.1919V26.4959ZM129.342 23.5839C128.809 23.5839 128.372 23.7439 128.03 24.0639C127.7 24.3732 127.486 24.8265 127.39 25.4239H131.15C131.086 24.8159 130.9 24.3572 130.59 24.0479C130.292 23.7385 129.876 23.5839 129.342 23.5839Z" fill="#A1A0BD"/>
<path d="M36.4286 79.6023V53.2387H38.1175V79.6023H36.4286ZM40.4964 62.1982C40.4278 61.443 40.1223 60.856 39.5799 60.4372C39.0444 60.0115 38.2789 59.7987 37.2834 59.7987C36.6243 59.7987 36.075 59.8845 35.6357 60.0561C35.1963 60.2278 34.8667 60.4646 34.647 60.7667C34.4273 61.0619 34.314 61.4018 34.3072 61.7863C34.2934 62.1021 34.3552 62.3801 34.4925 62.6204C34.6367 62.8607 34.8427 63.0735 35.1104 63.2589C35.3851 63.4374 35.7146 63.5953 36.0991 63.7326C36.4835 63.8699 36.9161 63.9901 37.3967 64.0931L39.2092 64.505C40.2527 64.7316 41.1727 65.0337 41.9691 65.4113C42.7724 65.7889 43.4452 66.2386 43.9876 66.7603C44.5368 67.2821 44.9522 67.8828 45.2337 68.5625C45.5152 69.2422 45.6593 70.0043 45.6662 70.8488C45.6593 72.1807 45.3229 73.3238 44.657 74.2781C43.991 75.2324 43.0333 75.9636 41.7837 76.4716C40.5411 76.9797 39.041 77.2337 37.2834 77.2337C35.5189 77.2337 33.9811 76.9694 32.6697 76.4407C31.3584 75.9121 30.3389 75.1088 29.6112 74.0309C28.8834 72.953 28.5092 71.5902 28.4886 69.9425H33.37C33.4112 70.6222 33.5932 71.1886 33.9158 71.6417C34.2385 72.0948 34.6813 72.4381 35.2443 72.6716C35.8142 72.905 36.4732 73.0217 37.2216 73.0217C37.9081 73.0217 38.4917 72.929 38.9723 72.7436C39.4598 72.5583 39.8339 72.3008 40.0948 71.9713C40.3557 71.6417 40.4896 71.2641 40.4964 70.8385C40.4896 70.4403 40.366 70.1004 40.1257 69.8189C39.8854 69.5306 39.5147 69.2834 39.0135 69.0774C38.5192 68.8646 37.8875 68.6689 37.1186 68.4904L34.9148 67.9755C33.0885 67.5567 31.6502 66.8805 30.5998 65.9468C29.5494 65.0062 29.0276 63.7361 29.0344 62.1364C29.0276 60.8319 29.3777 59.6888 30.0849 58.7071C30.792 57.7253 31.7704 56.9598 33.0199 56.4105C34.2694 55.8613 35.694 55.5867 37.2937 55.5867C38.9277 55.5867 40.3454 55.8647 41.5469 56.4208C42.7552 56.9701 43.6924 57.7425 44.3583 58.738C45.0243 59.7335 45.3641 60.8869 45.3778 62.1982H40.4964ZM62.5039 77.2543C60.966 77.2543 59.5998 76.9762 58.4052 76.4201C57.2106 75.864 56.2666 75.0985 55.5732 74.1236C54.8866 73.1487 54.5296 72.0296 54.5021 70.7664H59.4453C59.4865 71.5422 59.8023 72.1669 60.3928 72.6407C60.9832 73.1075 61.6869 73.3409 62.5039 73.3409C63.1424 73.3409 63.7088 73.2002 64.2031 72.9187C64.6974 72.6372 65.0853 72.2425 65.3668 71.7344C65.6483 71.2195 65.7856 70.6291 65.7788 69.9631C65.7856 69.2834 65.6449 68.6895 65.3565 68.1815C65.075 67.6734 64.6837 67.2787 64.1825 66.9972C63.6882 66.7088 63.1184 66.5647 62.473 66.5647C61.862 66.5578 61.2818 66.6917 60.7326 66.9663C60.1902 67.2409 59.7783 67.6151 59.4968 68.0888L54.9964 67.2444L55.913 55.875H69.445V59.9841H60.1044L59.6204 64.9581H59.744C60.0941 64.3746 60.6571 63.894 61.4329 63.5164C62.2156 63.1319 63.1046 62.9397 64.1001 62.9397C65.3634 62.9397 66.4893 63.2349 67.478 63.8253C68.4735 64.4089 69.2562 65.219 69.826 66.2557C70.4027 67.2924 70.6911 68.4801 70.6911 69.8189C70.6911 71.2676 70.3478 72.5514 69.6612 73.6705C68.9815 74.7896 68.0272 75.6684 66.7983 76.3069C65.5762 76.9385 64.1448 77.2543 62.5039 77.2543ZM82.2123 77.4809C80.3723 77.4809 78.7864 77.0449 77.4545 76.173C76.1225 75.2942 75.0961 74.0344 74.3753 72.3935C73.6544 70.7458 73.2974 68.7651 73.3042 66.4514C73.3111 64.1377 73.6715 62.1742 74.3856 60.5608C75.1064 58.9405 76.1294 57.7081 77.4545 56.8637C78.7864 56.0123 80.3723 55.5867 82.2123 55.5867C84.0522 55.5867 85.6382 56.0123 86.9701 56.8637C88.3089 57.7081 89.3387 58.9405 90.0596 60.5608C90.7805 62.181 91.1375 64.1446 91.1306 66.4514C91.1306 68.7719 90.7702 70.7561 90.0493 72.4038C89.3284 74.0515 88.302 75.3113 86.9701 76.1833C85.645 77.0483 84.0591 77.4809 82.2123 77.4809ZM82.2123 73.31C83.3108 73.31 84.1998 72.7505 84.8795 71.6314C85.5592 70.5055 85.8956 68.7788 85.8888 66.4514C85.8888 64.9272 85.7343 63.6708 85.4253 62.6822C85.1164 61.6867 84.6873 60.9452 84.1381 60.4578C83.5888 59.9703 82.9469 59.7266 82.2123 59.7266C81.1206 59.7266 80.2384 60.2793 79.5656 61.3846C78.8928 62.4831 78.5529 64.172 78.5461 66.4514C78.5392 67.9961 78.6868 69.2765 78.9889 70.2926C79.2979 71.3087 79.7304 72.0674 80.2865 72.5686C80.8426 73.0629 81.4845 73.31 82.2123 73.31ZM102.773 77.4809C100.933 77.4809 99.3469 77.0449 98.015 76.173C96.6831 75.2942 95.6567 74.0344 94.9358 72.3935C94.2149 70.7458 93.8579 68.7651 93.8648 66.4514C93.8717 64.1377 94.2321 62.1742 94.9461 60.5608C95.667 58.9405 96.69 57.7081 98.015 56.8637C99.3469 56.0123 100.933 55.5867 102.773 55.5867C104.613 55.5867 106.199 56.0123 107.531 56.8637C108.869 57.7081 109.899 58.9405 110.62 60.5608C111.341 62.181 111.698 64.1446 111.691 66.4514C111.691 68.7719 111.331 70.7561 110.61 72.4038C109.889 74.0515 108.863 75.3113 107.531 76.1833C106.206 77.0483 104.62 77.4809 102.773 77.4809ZM102.773 73.31C103.871 73.31 104.76 72.7505 105.44 71.6314C106.12 70.5055 106.456 68.7788 106.449 66.4514C106.449 64.9272 106.295 63.6708 105.986 62.6822C105.677 61.6867 105.248 60.9452 104.699 60.4578C104.149 59.9703 103.507 59.7266 102.773 59.7266C101.681 59.7266 100.799 60.2793 100.126 61.3846C99.4533 62.4831 99.1135 64.172 99.1066 66.4514C99.0998 67.9961 99.2474 69.2765 99.5494 70.2926C99.8584 71.3087 100.291 72.0674 100.847 72.5686C101.403 73.0629 102.045 73.31 102.773 73.31ZM123.333 77.4809C121.493 77.4809 119.907 77.0449 118.576 76.173C117.244 75.2942 116.217 74.0344 115.496 72.3935C114.775 70.7458 114.418 68.7651 114.425 66.4514C114.432 64.1377 114.793 62.1742 115.507 60.5608C116.228 58.9405 117.251 57.7081 118.576 56.8637C119.907 56.0123 121.493 55.5867 123.333 55.5867C125.173 55.5867 126.759 56.0123 128.091 56.8637C129.43 57.7081 130.46 58.9405 131.181 60.5608C131.902 62.181 132.259 64.1446 132.252 66.4514C132.252 68.7719 131.891 70.7561 131.17 72.4038C130.449 74.0515 129.423 75.3113 128.091 76.1833C126.766 77.0483 125.18 77.4809 123.333 77.4809ZM123.333 73.31C124.432 73.31 125.321 72.7505 126.001 71.6314C126.68 70.5055 127.017 68.7788 127.01 66.4514C127.01 64.9272 126.855 63.6708 126.546 62.6822C126.237 61.6867 125.808 60.9452 125.259 60.4578C124.71 59.9703 124.068 59.7266 123.333 59.7266C122.242 59.7266 121.36 60.2793 120.687 61.3846C120.014 62.4831 119.674 64.172 119.667 66.4514C119.66 67.9961 119.808 69.2765 120.11 70.2926C120.419 71.3087 120.851 72.0674 121.408 72.5686C121.964 73.0629 122.606 73.31 123.333 73.31Z" fill="black"/>
<path d="M136.517 77.1616C136.032 77.1616 135.616 76.9907 135.269 76.6488C134.927 76.307 134.759 75.8931 134.763 75.4073C134.759 74.9305 134.927 74.5235 135.269 74.1861C135.616 73.8443 136.032 73.6733 136.517 73.6733C136.976 73.6733 137.381 73.8443 137.732 74.1861C138.087 74.5235 138.267 74.9305 138.272 75.4073C138.267 75.7312 138.182 76.0258 138.015 76.2912C137.853 76.5566 137.64 76.768 137.374 76.9255C137.113 77.0829 136.828 77.1616 136.517 77.1616ZM145.545 77.3033C144.34 77.3033 143.301 77.0177 142.428 76.4464C141.555 75.8707 140.883 75.0453 140.411 73.9702C139.938 72.8907 139.704 71.593 139.709 70.0771C139.713 68.5612 139.95 67.2748 140.417 66.2177C140.89 65.1562 141.56 64.3488 142.428 63.7955C143.301 63.2377 144.34 62.9588 145.545 62.9588C146.751 62.9588 147.79 63.2377 148.662 63.7955C149.54 64.3488 150.214 65.1562 150.687 66.2177C151.159 67.2793 151.393 68.5657 151.388 70.0771C151.388 71.5975 151.152 72.8974 150.68 73.977C150.207 75.0565 149.535 75.8819 148.662 76.4532C147.794 77.0199 146.755 77.3033 145.545 77.3033ZM145.545 74.5707C146.265 74.5707 146.847 74.2041 147.293 73.4709C147.738 72.7332 147.958 71.602 147.954 70.0771C147.954 69.0785 147.853 68.2554 147.65 67.6076C147.448 66.9554 147.167 66.4696 146.807 66.1502C146.447 65.8309 146.026 65.6712 145.545 65.6712C144.83 65.6712 144.252 66.0333 143.811 66.7575C143.37 67.4772 143.148 68.5837 143.143 70.0771C143.139 71.0892 143.235 71.9281 143.433 72.5938C143.636 73.2595 143.919 73.7565 144.283 74.0849C144.648 74.4088 145.068 74.5707 145.545 74.5707ZM159.016 77.3033C157.81 77.3033 156.771 77.0177 155.899 76.4464C155.026 75.8707 154.354 75.0453 153.881 73.9702C153.409 72.8907 153.175 71.593 153.18 70.0771C153.184 68.5612 153.42 67.2748 153.888 66.2177C154.36 65.1562 155.031 64.3488 155.899 63.7955C156.771 63.2377 157.81 62.9588 159.016 62.9588C160.221 62.9588 161.26 63.2377 162.133 63.7955C163.01 64.3488 163.685 65.1562 164.157 66.2177C164.63 67.2793 164.863 68.5657 164.859 70.0771C164.859 71.5975 164.623 72.8974 164.15 73.977C163.678 75.0565 163.006 75.8819 162.133 76.4532C161.265 77.0199 160.226 77.3033 159.016 77.3033ZM159.016 74.5707C159.736 74.5707 160.318 74.2041 160.763 73.4709C161.209 72.7332 161.429 71.602 161.425 70.0771C161.425 69.0785 161.323 68.2554 161.121 67.6076C160.919 66.9554 160.637 66.4696 160.278 66.1502C159.918 65.8309 159.497 65.6712 159.016 65.6712C158.301 65.6712 157.723 66.0333 157.282 66.7575C156.841 67.4772 156.618 68.5837 156.614 70.0771C156.609 71.0892 156.706 71.9281 156.904 72.5938C157.106 73.2595 157.39 73.7565 157.754 74.0849C158.119 74.4088 158.539 74.5707 159.016 74.5707Z" fill="#AFADFE"/>
<rect x="27.5" y="98.5" width="87" height="32" rx="16" fill="#DCF5E8"/>
<path fill-rule="evenodd" clip-rule="evenodd" d="M49.9947 109.126C49.9947 108.96 50.058 108.801 50.1706 108.683C50.2832 108.566 50.436 108.5 50.5953 108.5H55.3995C55.5587 108.5 55.7115 108.566 55.8241 108.683C55.9367 108.801 56 108.96 56 109.126V114.134C56 114.301 55.9367 114.46 55.8241 114.577C55.7115 114.695 55.5587 114.761 55.3995 114.761C55.2402 114.761 55.0875 114.695 54.9748 114.577C54.8622 114.46 54.7989 114.301 54.7989 114.134V110.879L50.4595 116.41C50.4064 116.477 50.3403 116.532 50.2655 116.572C50.1906 116.611 50.1087 116.634 50.025 116.638C49.9413 116.642 49.8576 116.628 49.7794 116.597C49.7011 116.566 49.6301 116.518 49.5708 116.456L46.4636 113.217L42.0726 119.511C41.9765 119.638 41.8369 119.722 41.6829 119.744C41.529 119.766 41.3728 119.725 41.2472 119.63C41.1215 119.535 41.0362 119.392 41.0092 119.233C40.9821 119.073 41.0154 118.909 41.1021 118.775L45.9063 111.888C45.9573 111.815 46.0229 111.754 46.0987 111.71C46.1744 111.666 46.2584 111.639 46.3449 111.632C46.4315 111.625 46.5184 111.637 46.5999 111.669C46.6813 111.7 46.7553 111.749 46.8167 111.813L49.9503 115.081L54.1324 109.752H50.5953C50.436 109.752 50.2832 109.686 50.1706 109.569C50.058 109.451 49.9947 109.292 49.9947 109.126Z" fill="#4FD18B"/>
<path d="M65.7081 118.855V111.483H67.3807V118.855H65.7081ZM62.8583 116.006V114.333H70.2305V116.006H62.8583ZM80.1608 119.649C79.3689 119.649 78.6657 119.516 78.0514 119.25C77.4406 118.983 76.9612 118.619 76.6132 118.158C76.2687 117.693 76.0983 117.165 76.1018 116.576C76.0983 116.118 76.1977 115.697 76.4001 115.313C76.6025 114.93 76.876 114.61 77.2204 114.354C77.5684 114.095 77.9555 113.93 78.3817 113.859V113.784C77.8206 113.66 77.366 113.374 77.018 112.927C76.6736 112.476 76.5031 111.956 76.5067 111.366C76.5031 110.805 76.6594 110.304 76.9754 109.864C77.2915 109.424 77.7247 109.077 78.2751 108.825C78.8256 108.57 79.4541 108.442 80.1608 108.442C80.8604 108.442 81.4836 108.57 82.0305 108.825C82.5809 109.077 83.0141 109.424 83.3302 109.864C83.6498 110.304 83.8096 110.805 83.8096 111.366C83.8096 111.956 83.6338 112.476 83.2822 112.927C82.9342 113.374 82.485 113.66 81.9346 113.784V113.859C82.3607 113.93 82.7442 114.095 83.0851 114.354C83.4296 114.61 83.703 114.93 83.9055 115.313C84.1114 115.697 84.2144 116.118 84.2144 116.576C84.2144 117.165 84.0404 117.693 83.6924 118.158C83.3444 118.619 82.865 118.983 82.2542 119.25C81.6469 119.516 80.9491 119.649 80.1608 119.649ZM80.1608 118.126C80.5692 118.126 80.9243 118.056 81.2261 117.918C81.528 117.776 81.7623 117.577 81.9292 117.321C82.0961 117.066 82.1814 116.771 82.1849 116.437C82.1814 116.089 82.0908 115.782 81.9133 115.516C81.7393 115.246 81.4996 115.034 81.1942 114.882C80.8923 114.729 80.5479 114.653 80.1608 114.653C79.7702 114.653 79.4221 114.729 79.1167 114.882C78.8113 115.034 78.5699 115.246 78.3923 115.516C78.2183 115.782 78.1331 116.089 78.1366 116.437C78.1331 116.771 78.2148 117.066 78.3817 117.321C78.5486 117.574 78.7829 117.771 79.0848 117.913C79.3902 118.055 79.7488 118.126 80.1608 118.126ZM80.1608 113.156C80.4946 113.156 80.7893 113.088 81.045 112.954C81.3042 112.819 81.5084 112.63 81.6576 112.389C81.8067 112.147 81.8831 111.869 81.8866 111.553C81.8831 111.24 81.8085 110.967 81.6629 110.732C81.5173 110.494 81.3149 110.311 81.0557 110.184C80.7964 110.052 80.4981 109.987 80.1608 109.987C79.8163 109.987 79.5127 110.052 79.2499 110.184C78.9907 110.311 78.7883 110.494 78.6427 110.732C78.5006 110.967 78.4314 111.24 78.4349 111.553C78.4314 111.869 78.5024 112.147 78.648 112.389C78.7971 112.627 79.0013 112.815 79.2606 112.954C79.5233 113.088 79.8234 113.156 80.1608 113.156ZM91.7983 117.455V116.879C91.7983 116.457 91.8871 116.068 92.0646 115.713C92.2457 115.358 92.5085 115.072 92.853 114.855C93.1974 114.639 93.6147 114.53 94.1048 114.53C94.609 114.53 95.0316 114.639 95.3725 114.855C95.7134 115.068 95.9709 115.352 96.1449 115.707C96.3224 116.063 96.4112 116.453 96.4112 116.879V117.455C96.4112 117.877 96.3224 118.266 96.1449 118.621C95.9673 118.976 95.7063 119.262 95.3619 119.479C95.021 119.695 94.6019 119.804 94.1048 119.804C93.6076 119.804 93.1868 119.695 92.8423 119.479C92.4979 119.262 92.2369 118.976 92.0593 118.621C91.8853 118.266 91.7983 117.877 91.7983 117.455ZM93.1886 116.879V117.455C93.1886 117.735 93.256 117.993 93.391 118.227C93.5259 118.461 93.7638 118.579 94.1048 118.579C94.4492 118.579 94.6854 118.463 94.8132 118.232C94.9446 117.998 95.0103 117.739 95.0103 117.455V116.879C95.0103 116.595 94.9482 116.336 94.8239 116.102C94.6996 115.864 94.4599 115.745 94.1048 115.745C93.771 115.745 93.5348 115.864 93.3963 116.102C93.2578 116.336 93.1886 116.595 93.1886 116.879ZM86.2532 111.212V110.636C86.2532 110.21 86.3438 109.82 86.5249 109.465C86.706 109.109 86.9688 108.825 87.3132 108.612C87.6577 108.396 88.0749 108.287 88.565 108.287C89.0657 108.287 89.4865 108.396 89.8274 108.612C90.1719 108.825 90.4311 109.109 90.6051 109.465C90.7791 109.82 90.8661 110.21 90.8661 110.636V111.212C90.8661 111.638 90.7773 112.028 90.5998 112.384C90.4258 112.735 90.1665 113.017 89.8221 113.23C89.4776 113.444 89.0586 113.55 88.565 113.55C88.0643 113.55 87.6417 113.444 87.2972 113.23C86.9563 113.017 86.6971 112.733 86.5195 112.378C86.342 112.023 86.2532 111.634 86.2532 111.212ZM87.6541 110.636V111.212C87.6541 111.496 87.7198 111.755 87.8512 111.989C87.9862 112.22 88.2241 112.336 88.565 112.336C88.9059 112.336 89.1403 112.22 89.2681 111.989C89.3995 111.755 89.4652 111.496 89.4652 111.212V110.636C89.4652 110.352 89.4031 110.093 89.2788 109.859C89.1545 109.621 88.9165 109.502 88.565 109.502C88.2276 109.502 87.9915 109.621 87.8565 109.859C87.7216 110.097 87.6541 110.356 87.6541 110.636ZM86.8604 119.5L94.3604 108.591H95.6921L88.1921 119.5H86.8604Z" fill="#4FD18B"/>
</svg>
