<svg width="259" height="144" viewBox="0 0 259 144" fill="none" xmlns="http://www.w3.org/2000/svg">
<rect y="0.431854" width="258.75" height="143.068" rx="11" fill="white"/>
<path d="M30.904 30.4319V20.7359H27.192V19.0399H36.712V20.7359H32.984V30.4319H30.904ZM40.3926 30.5599C39.5713 30.5599 38.846 30.3892 38.2166 30.0479C37.598 29.7065 37.118 29.2212 36.7766 28.5919C36.446 27.9519 36.2806 27.2052 36.2806 26.3519C36.2806 25.4985 36.446 24.7572 36.7766 24.1279C37.118 23.4879 37.598 22.9972 38.2166 22.6559C38.846 22.3145 39.5713 22.1439 40.3926 22.1439C41.2033 22.1439 41.918 22.3145 42.5366 22.6559C43.1553 22.9972 43.63 23.4879 43.9606 24.1279C44.302 24.7572 44.4726 25.4985 44.4726 26.3519C44.4726 27.2052 44.302 27.9519 43.9606 28.5919C43.63 29.2212 43.1553 29.7065 42.5366 30.0479C41.918 30.3892 41.2033 30.5599 40.3926 30.5599ZM40.3766 28.9919C41.0593 28.9919 41.5766 28.7732 41.9286 28.3359C42.2913 27.8879 42.4726 27.2265 42.4726 26.3519C42.4726 25.4879 42.2913 24.8319 41.9286 24.3839C41.566 23.9252 41.054 23.6959 40.3926 23.6959C39.7206 23.6959 39.2033 23.9252 38.8406 24.3839C38.478 24.8319 38.2966 25.4879 38.2966 26.3519C38.2966 27.2265 38.4726 27.8879 38.8246 28.3359C39.1873 28.7732 39.7046 28.9919 40.3766 28.9919ZM48.6945 23.8559V27.4719C48.6945 28.4212 49.1372 28.8959 50.0225 28.8959C50.2678 28.8959 50.5345 28.8532 50.8225 28.7679V30.3519C50.4705 30.4799 50.0438 30.5439 49.5425 30.5439C48.6252 30.5439 47.9212 30.2879 47.4305 29.7759C46.9398 29.2639 46.6945 28.5279 46.6945 27.5679V23.8559H45.1425V22.3519H46.6945V20.3839L48.6945 19.7119V22.3519H50.8385V23.8559H48.6945ZM59.941 22.3519V30.4319H57.973V29.1359C57.7277 29.5839 57.3757 29.9359 56.917 30.1919C56.4583 30.4372 55.9357 30.5599 55.349 30.5599C54.645 30.5599 54.021 30.3892 53.477 30.0479C52.933 29.7065 52.5117 29.2212 52.213 28.5919C51.9143 27.9625 51.765 27.2319 51.765 26.3999C51.765 25.5679 51.9143 24.8319 52.213 24.1919C52.5223 23.5412 52.949 23.0399 53.493 22.6879C54.037 22.3252 54.6557 22.1439 55.349 22.1439C55.9357 22.1439 56.4583 22.2719 56.917 22.5279C57.3757 22.7732 57.7277 23.1199 57.973 23.5679V22.3519H59.941ZM55.893 28.9919C56.5543 28.9919 57.0663 28.7625 57.429 28.3039C57.7917 27.8452 57.973 27.1999 57.973 26.3679C57.973 25.5145 57.7917 24.8585 57.429 24.3999C57.0663 23.9412 56.549 23.7119 55.877 23.7119C55.2157 23.7119 54.6983 23.9519 54.325 24.4319C53.9623 24.9012 53.781 25.5572 53.781 26.3999C53.781 27.2319 53.9623 27.8719 54.325 28.3199C54.6983 28.7679 55.221 28.9919 55.893 28.9919ZM62.1193 30.4319V18.6559H64.1033V30.4319H62.1193ZM70.8258 30.4319V19.0399H72.8898V30.4319H70.8258ZM79.837 22.1439C81.7677 22.1439 82.733 23.2532 82.733 25.4719V30.4319H80.733V25.5679C80.733 24.9279 80.6103 24.4639 80.365 24.1759C80.1197 23.8772 79.741 23.7279 79.229 23.7279C78.621 23.7279 78.1303 23.9252 77.757 24.3199C77.3837 24.7039 77.197 25.2159 77.197 25.8559V30.4319H75.213V24.6399C75.213 23.7865 75.1703 23.0239 75.085 22.3519H76.957L77.101 23.6799C77.3783 23.1892 77.7517 22.8105 78.221 22.5439C78.701 22.2772 79.2397 22.1439 79.837 22.1439ZM88.5176 30.5599C87.675 30.5599 86.9443 30.3892 86.3256 30.0479C85.707 29.7065 85.2323 29.2265 84.9016 28.6079C84.571 27.9785 84.4056 27.2425 84.4056 26.3999C84.4056 25.5572 84.5763 24.8159 84.9176 24.1759C85.2696 23.5359 85.7603 23.0399 86.3896 22.6879C87.0296 22.3252 87.7656 22.1439 88.5976 22.1439C89.1736 22.1439 89.7283 22.2345 90.2616 22.4159C90.8056 22.5972 91.2376 22.8479 91.5576 23.1679L90.9976 24.5759C90.6563 24.2985 90.2936 24.0905 89.9096 23.9519C89.5256 23.8025 89.147 23.7279 88.7736 23.7279C88.0483 23.7279 87.483 23.9572 87.0776 24.4159C86.6723 24.8639 86.4696 25.5145 86.4696 26.3679C86.4696 27.2212 86.667 27.8719 87.0616 28.3199C87.467 28.7679 88.0376 28.9919 88.7736 28.9919C89.147 28.9919 89.5256 28.9172 89.9096 28.7679C90.2936 28.6185 90.6563 28.4052 90.9976 28.1279L91.5576 29.5359C91.2163 29.8559 90.7736 30.1065 90.2296 30.2879C89.6856 30.4692 89.115 30.5599 88.5176 30.5599ZM96.5645 30.5599C95.7432 30.5599 95.0178 30.3892 94.3885 30.0479C93.7698 29.7065 93.2898 29.2212 92.9485 28.5919C92.6178 27.9519 92.4525 27.2052 92.4525 26.3519C92.4525 25.4985 92.6178 24.7572 92.9485 24.1279C93.2898 23.4879 93.7698 22.9972 94.3885 22.6559C95.0178 22.3145 95.7432 22.1439 96.5645 22.1439C97.3752 22.1439 98.0898 22.3145 98.7085 22.6559C99.3272 22.9972 99.8018 23.4879 100.133 24.1279C100.474 24.7572 100.645 25.4985 100.645 26.3519C100.645 27.2052 100.474 27.9519 100.133 28.5919C99.8018 29.2212 99.3272 29.7065 98.7085 30.0479C98.0898 30.3892 97.3752 30.5599 96.5645 30.5599ZM96.5485 28.9919C97.2312 28.9919 97.7485 28.7732 98.1005 28.3359C98.4632 27.8879 98.6445 27.2265 98.6445 26.3519C98.6445 25.4879 98.4632 24.8319 98.1005 24.3839C97.7378 23.9252 97.2258 23.6959 96.5645 23.6959C95.8925 23.6959 95.3752 23.9252 95.0125 24.3839C94.6498 24.8319 94.4685 25.4879 94.4685 26.3519C94.4685 27.2265 94.6445 27.8879 94.9965 28.3359C95.3592 28.7732 95.8765 28.9919 96.5485 28.9919ZM111.905 22.1439C112.823 22.1439 113.505 22.4212 113.953 22.9759C114.401 23.5199 114.625 24.3519 114.625 25.4719V30.4319H112.625V25.5359C112.625 24.8959 112.519 24.4372 112.305 24.1599C112.103 23.8719 111.761 23.7279 111.281 23.7279C110.727 23.7279 110.289 23.9252 109.969 24.3199C109.66 24.7039 109.505 25.2372 109.505 25.9199V30.4319H107.505V25.5359C107.505 24.9065 107.393 24.4479 107.169 24.1599C106.956 23.8719 106.615 23.7279 106.145 23.7279C105.591 23.7279 105.153 23.9252 104.833 24.3199C104.513 24.7039 104.353 25.2372 104.353 25.9199V30.4319H102.369V24.6399C102.369 23.7865 102.327 23.0239 102.241 22.3519H104.113L104.257 23.6319C104.492 23.1519 104.828 22.7839 105.265 22.5279C105.713 22.2719 106.225 22.1439 106.801 22.1439C108.039 22.1439 108.844 22.6559 109.217 23.6799C109.473 23.1999 109.836 22.8265 110.305 22.5599C110.785 22.2825 111.319 22.1439 111.905 22.1439ZM123.832 26.4959H118.264C118.307 27.3599 118.52 27.9999 118.904 28.4159C119.299 28.8212 119.88 29.0239 120.648 29.0239C121.533 29.0239 122.355 28.7359 123.112 28.1599L123.688 29.5359C123.304 29.8452 122.829 30.0959 122.264 30.2879C121.709 30.4692 121.144 30.5599 120.568 30.5599C119.245 30.5599 118.205 30.1865 117.448 29.4399C116.691 28.6932 116.312 27.6692 116.312 26.3679C116.312 25.5465 116.477 24.8159 116.808 24.1759C117.139 23.5359 117.603 23.0399 118.2 22.6879C118.797 22.3252 119.475 22.1439 120.232 22.1439C121.341 22.1439 122.216 22.5065 122.856 23.2319C123.507 23.9465 123.832 24.9332 123.832 26.1919V26.4959ZM120.28 23.5839C119.747 23.5839 119.309 23.7439 118.968 24.0639C118.637 24.3732 118.424 24.8265 118.328 25.4239H122.088C122.024 24.8159 121.837 24.3572 121.528 24.0479C121.229 23.7385 120.813 23.5839 120.28 23.5839Z" fill="#A1A0BD"/>
<path d="M35.9286 79.6023V53.2387H37.6175V79.6023H35.9286ZM39.9964 62.1982C39.9278 61.443 39.6223 60.856 39.0799 60.4372C38.5444 60.0115 37.7789 59.7987 36.7834 59.7987C36.1243 59.7987 35.575 59.8845 35.1357 60.0561C34.6963 60.2278 34.3667 60.4646 34.147 60.7667C33.9273 61.0619 33.814 61.4018 33.8072 61.7863C33.7934 62.1021 33.8552 62.3801 33.9925 62.6204C34.1367 62.8607 34.3427 63.0735 34.6104 63.2589C34.8851 63.4374 35.2146 63.5953 35.5991 63.7326C35.9835 63.8699 36.4161 63.9901 36.8967 64.0931L38.7092 64.505C39.7527 64.7316 40.6727 65.0337 41.4691 65.4113C42.2724 65.7889 42.9452 66.2386 43.4876 66.7603C44.0368 67.2821 44.4522 67.8828 44.7337 68.5625C45.0152 69.2422 45.1593 70.0043 45.1662 70.8488C45.1593 72.1807 44.8229 73.3238 44.157 74.2781C43.491 75.2324 42.5333 75.9636 41.2837 76.4716C40.0411 76.9797 38.541 77.2337 36.7834 77.2337C35.0189 77.2337 33.4811 76.9694 32.1697 76.4407C30.8584 75.9121 29.8389 75.1088 29.1112 74.0309C28.3834 72.953 28.0092 71.5902 27.9886 69.9425H32.87C32.9112 70.6222 33.0932 71.1886 33.4158 71.6417C33.7385 72.0948 34.1813 72.4381 34.7443 72.6716C35.3142 72.905 35.9732 73.0217 36.7216 73.0217C37.4081 73.0217 37.9917 72.929 38.4723 72.7436C38.9598 72.5583 39.3339 72.3008 39.5948 71.9713C39.8557 71.6417 39.9896 71.2641 39.9964 70.8385C39.9896 70.4403 39.866 70.1004 39.6257 69.8189C39.3854 69.5306 39.0147 69.2834 38.5135 69.0774C38.0192 68.8646 37.3875 68.6689 36.6186 68.4904L34.4148 67.9755C32.5885 67.5567 31.1502 66.8805 30.0998 65.9468C29.0494 65.0062 28.5276 63.7361 28.5344 62.1364C28.5276 60.8319 28.8777 59.6888 29.5849 58.7071C30.292 57.7253 31.2704 56.9598 32.5199 56.4105C33.7694 55.8613 35.194 55.5867 36.7937 55.5867C38.4277 55.5867 39.8454 55.8647 41.0469 56.4208C42.2552 56.9701 43.1924 57.7425 43.8583 58.738C44.5243 59.7335 44.8641 60.8869 44.8778 62.1982H39.9964ZM63.6825 55.875V76.9659H58.5952V60.6328H58.4716L53.755 63.5164V59.1087L58.9556 55.875H63.6825ZM76.5837 77.2543C74.9429 77.2543 73.4771 76.9934 72.1863 76.4716C70.9025 75.943 69.8933 75.229 69.1586 74.3296C68.4309 73.4233 68.067 72.4004 68.067 71.2607C68.067 70.3888 68.2764 69.5889 68.6952 68.8612C69.114 68.1334 69.6804 67.5293 70.3944 67.0487C71.1153 66.5612 71.9186 66.2488 72.8042 66.1115V65.9468C71.644 65.7339 70.6931 65.195 69.9516 64.3299C69.217 63.4649 68.8497 62.4522 68.8497 61.2919C68.8497 60.1935 69.1827 59.2151 69.8486 58.3569C70.5215 57.4987 71.438 56.8225 72.5983 56.3282C73.7654 55.8338 75.0939 55.5867 76.5837 55.5867C78.0735 55.5867 79.3986 55.8338 80.5589 56.3282C81.726 56.8225 82.6425 57.4987 83.3085 58.3569C83.9813 59.2151 84.3177 60.1935 84.3177 61.2919C84.3177 62.4591 83.9436 63.4752 83.1952 64.3402C82.4537 65.1984 81.5097 65.7339 80.3632 65.9468V66.1115C81.242 66.2488 82.0384 66.5612 82.7524 67.0487C83.4733 67.5293 84.0431 68.1334 84.4619 68.8612C84.8876 69.5889 85.1004 70.3888 85.1004 71.2607C85.1004 72.4004 84.7331 73.4233 83.9985 74.3296C83.2639 75.229 82.2546 75.943 80.9708 76.4716C79.6938 76.9934 78.2314 77.2543 76.5837 77.2543ZM76.5837 73.6396C77.2085 73.6396 77.7577 73.5229 78.2314 73.2895C78.7052 73.0492 79.0759 72.7162 79.3437 72.2905C79.6183 71.8649 79.7556 71.3843 79.7556 70.8488C79.7556 70.2995 79.6183 69.8121 79.3437 69.3864C79.069 68.9607 78.6914 68.6278 78.2108 68.3875C77.7371 68.1403 77.1948 68.0167 76.5837 68.0167C75.9796 68.0167 75.4372 68.1403 74.9566 68.3875C74.476 68.6278 74.0984 68.9607 73.8238 69.3864C73.5492 69.8121 73.4118 70.2995 73.4118 70.8488C73.4118 71.3843 73.5457 71.8649 73.8135 72.2905C74.0881 72.7093 74.4623 73.0389 74.936 73.2792C75.4166 73.5194 75.9658 73.6396 76.5837 73.6396ZM76.5837 64.4226C77.1192 64.4226 77.593 64.3128 78.0049 64.0931C78.4237 63.8734 78.7498 63.5679 78.9832 63.1765C79.2235 62.7852 79.3437 62.3424 79.3437 61.848C79.3437 61.3537 79.2235 60.9178 78.9832 60.5402C78.7498 60.1626 78.4271 59.8673 78.0152 59.6545C77.6032 59.4348 77.1261 59.325 76.5837 59.325C76.0482 59.325 75.5711 59.4348 75.1523 59.6545C74.7335 59.8673 74.4073 60.1626 74.1739 60.5402C73.9405 60.9178 73.8238 61.3537 73.8238 61.848C73.8238 62.3424 73.9405 62.7852 74.1739 63.1765C74.4142 63.561 74.7438 63.8665 75.1626 64.0931C75.5814 64.3128 76.0551 64.4226 76.5837 64.4226ZM96.0166 77.2543C94.4787 77.2543 93.1125 76.9762 91.9179 76.4201C90.7233 75.864 89.7793 75.0985 89.0858 74.1236C88.3993 73.1487 88.0423 72.0296 88.0148 70.7664H92.958C92.9992 71.5422 93.315 72.1669 93.9055 72.6407C94.4959 73.1075 95.1996 73.3409 96.0166 73.3409C96.6551 73.3409 97.2215 73.2002 97.7158 72.9187C98.2101 72.6372 98.598 72.2425 98.8795 71.7344C99.161 71.2195 99.2983 70.6291 99.2915 69.9631C99.2983 69.2834 99.1576 68.6895 98.8692 68.1815C98.5877 67.6734 98.1964 67.2787 97.6952 66.9972C97.2009 66.7088 96.6311 66.5647 95.9857 66.5647C95.3747 66.5578 94.7945 66.6917 94.2453 66.9663C93.7029 67.2409 93.291 67.6151 93.0095 68.0888L88.5091 67.2444L89.4257 55.875H102.958V59.9841H93.6171L93.1331 64.9581H93.2567C93.6068 64.3746 94.1698 63.894 94.9456 63.5164C95.7282 63.1319 96.6173 62.9397 97.6128 62.9397C98.8761 62.9397 100.002 63.2349 100.991 63.8253C101.986 64.4089 102.769 65.219 103.339 66.2557C103.915 67.2924 104.204 68.4801 104.204 69.8189C104.204 71.2676 103.86 72.5514 103.174 73.6705C102.494 74.7896 101.54 75.6684 100.311 76.3069C99.0889 76.9385 97.6575 77.2543 96.0166 77.2543ZM115.025 77.2543C113.418 77.2543 111.994 76.9797 110.751 76.4304C109.515 75.8743 108.54 75.1088 107.826 74.1339C107.112 73.159 106.748 72.0365 106.735 70.7664H111.863C111.884 71.2264 112.031 71.6349 112.306 71.9919C112.581 72.342 112.955 72.6166 113.428 72.8157C113.902 73.0148 114.441 73.1144 115.045 73.1144C115.649 73.1144 116.182 73.008 116.642 72.7951C117.108 72.5754 117.472 72.2768 117.733 71.8992C117.994 71.5147 118.121 71.0753 118.114 70.581C118.121 70.0867 117.98 69.6473 117.692 69.2628C117.404 68.8783 116.995 68.5797 116.466 68.3669C115.945 68.154 115.327 68.0476 114.613 68.0476H112.563V64.4226H114.613C115.238 64.4226 115.787 64.3196 116.26 64.1137C116.741 63.9077 117.115 63.6194 117.383 63.2486C117.651 62.871 117.781 62.4385 117.774 61.951C117.781 61.4773 117.668 61.0619 117.434 60.7049C117.208 60.3411 116.889 60.0596 116.477 59.8605C116.072 59.6614 115.601 59.5618 115.066 59.5618C114.503 59.5618 113.991 59.6614 113.531 59.8605C113.078 60.0596 112.718 60.3411 112.45 60.7049C112.182 61.0688 112.042 61.491 112.028 61.9716H107.157C107.171 60.7152 107.521 59.6099 108.207 58.6556C108.894 57.6944 109.827 56.9426 111.008 56.4002C112.196 55.8579 113.549 55.5867 115.066 55.5867C116.576 55.5867 117.905 55.851 119.051 56.3796C120.198 56.9083 121.09 57.6292 121.729 58.5423C122.367 59.4485 122.687 60.4749 122.687 61.6215C122.693 62.8092 122.306 63.7876 121.523 64.5565C120.747 65.3254 119.748 65.7992 118.526 65.9777V66.1424C120.16 66.3347 121.392 66.8633 122.223 67.7284C123.061 68.5934 123.476 69.6747 123.469 70.9723C123.469 72.1944 123.109 73.2792 122.388 74.2266C121.674 75.1672 120.678 75.9087 119.401 76.451C118.131 76.9865 116.672 77.2543 115.025 77.2543ZM126.345 76.9659V73.2997L134.038 66.5647C134.615 66.0429 135.105 65.5657 135.511 65.1332C135.916 64.6938 136.225 64.2544 136.437 63.815C136.65 63.3688 136.757 62.8847 136.757 62.363C136.757 61.7794 136.63 61.2816 136.376 60.8697C136.122 60.4509 135.771 60.1282 135.325 59.9017C134.879 59.6751 134.367 59.5618 133.791 59.5618C133.207 59.5618 132.696 59.682 132.256 59.9223C131.817 60.1557 131.474 60.4955 131.226 60.9418C130.986 61.3881 130.866 61.9304 130.866 62.5689H126.036C126.036 61.134 126.359 59.8948 127.004 58.8512C127.65 57.8077 128.556 57.0044 129.723 56.4414C130.897 55.8716 132.26 55.5867 133.811 55.5867C135.411 55.5867 136.801 55.8544 137.982 56.3899C139.163 56.9255 140.076 57.6738 140.722 58.635C141.374 59.5893 141.7 60.6981 141.7 61.9613C141.7 62.7646 141.539 63.561 141.216 64.3505C140.893 65.1401 140.313 66.012 139.475 66.9663C138.645 67.9206 137.464 69.0637 135.933 70.3956L133.41 72.723V72.8569H141.957V76.9659H126.345Z" fill="black"/>
<path d="M146.184 77.1616C145.699 77.1616 145.283 76.9907 144.936 76.6488C144.594 76.307 144.426 75.8931 144.43 75.4073C144.426 74.9305 144.594 74.5235 144.936 74.1861C145.283 73.8443 145.699 73.6733 146.184 73.6733C146.643 73.6733 147.048 73.8443 147.399 74.1861C147.754 74.5235 147.934 74.9305 147.939 75.4073C147.934 75.7312 147.849 76.0258 147.682 76.2912C147.52 76.5566 147.307 76.768 147.041 76.9255C146.78 77.0829 146.495 77.1616 146.184 77.1616ZM155.325 77.1549C154.318 77.1549 153.422 76.9727 152.64 76.6083C151.857 76.244 151.239 75.7425 150.784 75.1037C150.335 74.465 150.101 73.7318 150.083 72.9042H153.321C153.348 73.4124 153.555 73.8218 153.942 74.1321C154.329 74.438 154.79 74.5909 155.325 74.5909C155.744 74.5909 156.115 74.4987 156.438 74.3143C156.762 74.1299 157.016 73.8712 157.201 73.5384C157.385 73.201 157.475 72.8142 157.471 72.3779C157.475 71.9326 157.383 71.5435 157.194 71.2106C157.01 70.8778 156.753 70.6191 156.425 70.4347C156.101 70.2458 155.728 70.1513 155.305 70.1513C154.905 70.1468 154.525 70.2345 154.165 70.4145C153.809 70.5944 153.539 70.8395 153.355 71.1499L150.407 70.5966L151.007 63.1478H159.873V65.8399H153.753L153.436 69.0988H153.517C153.746 68.7164 154.115 68.4015 154.623 68.1542C155.136 67.9023 155.719 67.7763 156.371 67.7763C157.199 67.7763 157.936 67.9697 158.584 68.3566C159.236 68.7389 159.749 69.2697 160.122 69.9489C160.5 70.6281 160.689 71.4063 160.689 72.2834C160.689 73.2325 160.464 74.0737 160.014 74.8069C159.569 75.54 158.944 76.1158 158.139 76.5341C157.338 76.9479 156.4 77.1549 155.325 77.1549ZM162.523 76.9659V74.564L167.563 70.1513C167.941 69.8095 168.262 69.4968 168.528 69.2135C168.793 68.9256 168.996 68.6377 169.135 68.3498C169.274 68.0574 169.344 67.7403 169.344 67.3985C169.344 67.0161 169.261 66.69 169.094 66.4201C168.928 66.1457 168.699 65.9343 168.406 65.7859C168.114 65.6375 167.779 65.5632 167.401 65.5632C167.019 65.5632 166.683 65.642 166.396 65.7994C166.108 65.9523 165.883 66.175 165.721 66.4674C165.563 66.7597 165.485 67.1151 165.485 67.5334H162.32C162.32 66.5933 162.532 65.7814 162.955 65.0977C163.377 64.414 163.971 63.8877 164.736 63.5189C165.505 63.1455 166.398 62.9588 167.414 62.9588C168.462 62.9588 169.373 63.1343 170.147 63.4851C170.921 63.836 171.519 64.3263 171.942 64.956C172.369 65.5812 172.583 66.3077 172.583 67.1353C172.583 67.6616 172.477 68.1834 172.266 68.7007C172.054 69.218 171.674 69.7892 171.125 70.4145C170.581 71.0397 169.807 71.7886 168.804 72.6613L167.151 74.1861V74.2738H172.751V76.9659H162.523Z" fill="#AFADFE"/>
<rect x="27" y="98.5" width="87" height="32" rx="16" fill="#DCF5E8"/>
<path fill-rule="evenodd" clip-rule="evenodd" d="M49.4947 109.126C49.4947 108.96 49.558 108.801 49.6706 108.683C49.7832 108.566 49.936 108.5 50.0953 108.5H54.8995C55.0587 108.5 55.2115 108.566 55.3241 108.683C55.4367 108.801 55.5 108.96 55.5 109.126V114.134C55.5 114.301 55.4367 114.46 55.3241 114.577C55.2115 114.695 55.0587 114.761 54.8995 114.761C54.7402 114.761 54.5875 114.695 54.4748 114.577C54.3622 114.46 54.2989 114.301 54.2989 114.134V110.879L49.9595 116.41C49.9064 116.477 49.8403 116.532 49.7655 116.572C49.6906 116.611 49.6087 116.634 49.525 116.638C49.4413 116.642 49.3576 116.628 49.2794 116.597C49.2011 116.566 49.1301 116.518 49.0708 116.456L45.9636 113.217L41.5726 119.511C41.4765 119.638 41.3369 119.722 41.1829 119.744C41.029 119.766 40.8728 119.725 40.7472 119.63C40.6215 119.535 40.5362 119.392 40.5092 119.233C40.4821 119.073 40.5154 118.909 40.6021 118.775L45.4063 111.888C45.4573 111.815 45.5229 111.754 45.5987 111.71C45.6744 111.666 45.7584 111.639 45.8449 111.632C45.9315 111.625 46.0184 111.637 46.0999 111.669C46.1813 111.7 46.2553 111.749 46.3167 111.813L49.4503 115.081L53.6324 109.752H50.0953C49.936 109.752 49.7832 109.686 49.6706 109.569C49.558 109.451 49.4947 109.292 49.4947 109.126Z" fill="#4FD18B"/>
<path d="M65.2081 118.855V111.483H66.8807V118.855H65.2081ZM62.3583 116.006V114.333H69.7305V116.006H62.3583ZM80.2201 108.591V119.5H78.2439V110.514H78.18L75.6285 112.144V110.333L78.3398 108.591H80.2201ZM87.4271 108.591V119.5H85.4509V110.514H85.387L82.8355 112.144V110.333L85.5468 108.591H87.4271ZM96.0297 117.455V116.879C96.0297 116.457 96.1185 116.068 96.2961 115.713C96.4772 115.358 96.74 115.072 97.0844 114.855C97.4289 114.639 97.8461 114.53 98.3362 114.53C98.8405 114.53 99.2631 114.639 99.604 114.855C99.9449 115.068 100.202 115.352 100.376 115.707C100.554 116.063 100.643 116.453 100.643 116.879V117.455C100.643 117.877 100.554 118.266 100.376 118.621C100.199 118.976 99.9378 119.262 99.5933 119.479C99.2524 119.695 98.8334 119.804 98.3362 119.804C97.839 119.804 97.4182 119.695 97.0738 119.479C96.7293 119.262 96.4683 118.976 96.2907 118.621C96.1167 118.266 96.0297 117.877 96.0297 117.455ZM97.42 116.879V117.455C97.42 117.735 97.4875 117.993 97.6224 118.227C97.7574 118.461 97.9953 118.579 98.3362 118.579C98.6807 118.579 98.9168 118.463 99.0447 118.232C99.176 117.998 99.2417 117.739 99.2417 117.455V116.879C99.2417 116.595 99.1796 116.336 99.0553 116.102C98.931 115.864 98.6913 115.745 98.3362 115.745C98.0024 115.745 97.7662 115.864 97.6278 116.102C97.4893 116.336 97.42 116.595 97.42 116.879ZM90.4846 111.212V110.636C90.4846 110.21 90.5752 109.82 90.7563 109.465C90.9374 109.109 91.2002 108.825 91.5447 108.612C91.8891 108.396 92.3064 108.287 92.7964 108.287C93.2971 108.287 93.718 108.396 94.0589 108.612C94.4033 108.825 94.6626 109.109 94.8366 109.465C95.0106 109.82 95.0976 110.21 95.0976 110.636V111.212C95.0976 111.638 95.0088 112.028 94.8312 112.384C94.6572 112.735 94.398 113.017 94.0535 113.23C93.7091 113.444 93.29 113.55 92.7964 113.55C92.2957 113.55 91.8731 113.444 91.5287 113.23C91.1878 113.017 90.9285 112.733 90.751 112.378C90.5734 112.023 90.4846 111.634 90.4846 111.212ZM91.8856 110.636V111.212C91.8856 111.496 91.9513 111.755 92.0827 111.989C92.2176 112.22 92.4555 112.336 92.7964 112.336C93.1373 112.336 93.3717 112.22 93.4996 111.989C93.6309 111.755 93.6966 111.496 93.6966 111.212V110.636C93.6966 110.352 93.6345 110.093 93.5102 109.859C93.3859 109.621 93.148 109.502 92.7964 109.502C92.4591 109.502 92.2229 109.621 92.088 109.859C91.953 110.097 91.8856 110.356 91.8856 110.636ZM91.0919 119.5L98.5919 108.591H99.9236L92.4236 119.5H91.0919Z" fill="#4FD18B"/>
</svg>
