<svg width="548" height="268" viewBox="0 0 548 268" fill="none" xmlns="http://www.w3.org/2000/svg">
<rect x="0.5401" width="547.46" height="267.392" rx="20" fill="white"/>
<path d="M26.8401 45V30.9H33.5001C35.1268 30.9 36.3801 31.2867 37.2601 32.06C38.1534 32.8333 38.6001 33.9067 38.6001 35.28C38.6001 36.2 38.4001 36.9867 38.0001 37.64C37.6001 38.28 37.0201 38.78 36.2601 39.14C35.5001 39.4867 34.5934 39.66 33.5401 39.66L33.7201 39.16H34.7201C35.3068 39.16 35.8268 39.32 36.2801 39.64C36.7334 39.96 37.1068 40.4067 37.4001 40.98L39.5401 45H35.5001L33.2001 40.5C33.0534 40.2067 32.8334 40.0067 32.5401 39.9C32.2601 39.7933 31.9401 39.74 31.5801 39.74H30.5401V45H26.8401ZM30.5401 37.12H32.8601C33.5801 37.12 34.1268 36.98 34.5001 36.7C34.8734 36.4067 35.0601 35.9733 35.0601 35.4C35.0601 34.84 34.8734 34.42 34.5001 34.14C34.1268 33.86 33.5801 33.72 32.8601 33.72H30.5401V37.12ZM45.5845 45.22C43.7445 45.22 42.3111 44.7467 41.2845 43.8C40.2711 42.8533 39.7645 41.5533 39.7645 39.9C39.7645 38.8733 39.9778 37.96 40.4045 37.16C40.8311 36.36 41.4311 35.74 42.2045 35.3C42.9778 34.8467 43.8845 34.62 44.9245 34.62C45.9511 34.62 46.8045 34.8467 47.4845 35.3C48.1778 35.74 48.6978 36.3533 49.0445 37.14C49.3911 37.9133 49.5645 38.8133 49.5645 39.84V40.6H42.7445V38.92H46.9445L46.6045 39.2C46.6045 38.44 46.4578 37.88 46.1645 37.52C45.8845 37.1467 45.4845 36.96 44.9645 36.96C44.3645 36.96 43.9045 37.1867 43.5845 37.64C43.2778 38.08 43.1245 38.7467 43.1245 39.64V40C43.1245 40.8933 43.3445 41.5467 43.7845 41.96C44.2245 42.3733 44.8578 42.58 45.6845 42.58C46.2178 42.58 46.7178 42.52 47.1845 42.4C47.6645 42.28 48.1178 42.0867 48.5445 41.82L49.4645 44.14C48.9578 44.4867 48.3711 44.7533 47.7045 44.94C47.0378 45.1267 46.3311 45.22 45.5845 45.22ZM50.8596 49.32V37.6C50.8596 37.1467 50.8463 36.6867 50.8196 36.22C50.793 35.7533 50.753 35.2933 50.6996 34.84H54.1396L54.3596 36.64H54.1596C54.3463 36.04 54.7596 35.5533 55.3996 35.18C56.0396 34.8067 56.753 34.62 57.5396 34.62C58.4196 34.62 59.193 34.8333 59.8596 35.26C60.5263 35.6733 61.0463 36.28 61.4196 37.08C61.8063 37.8667 61.9996 38.8133 61.9996 39.92C61.9996 41.0133 61.8063 41.96 61.4196 42.76C61.0463 43.56 60.5263 44.1733 59.8596 44.6C59.193 45.0133 58.4196 45.22 57.5396 45.22C56.7663 45.22 56.0663 45.0467 55.4396 44.7C54.813 44.34 54.3996 43.8667 54.1996 43.28H54.4196V49.32H50.8596ZM56.3996 42.58C57.013 42.58 57.4996 42.3733 57.8596 41.96C58.233 41.5333 58.4196 40.8533 58.4196 39.92C58.4196 38.9867 58.233 38.3133 57.8596 37.9C57.4996 37.4733 57.013 37.26 56.3996 37.26C55.7996 37.26 55.313 37.4733 54.9396 37.9C54.5663 38.3133 54.3796 38.9867 54.3796 39.92C54.3796 40.8533 54.5663 41.5333 54.9396 41.96C55.313 42.3733 55.7996 42.58 56.3996 42.58ZM68.4107 45.22C67.2774 45.22 66.2974 45.0067 65.4707 44.58C64.6441 44.1533 64.0041 43.5467 63.5507 42.76C63.0974 41.96 62.8707 41.0133 62.8707 39.92C62.8707 38.8133 63.0974 37.8667 63.5507 37.08C64.0041 36.2933 64.6441 35.6867 65.4707 35.26C66.2974 34.8333 67.2774 34.62 68.4107 34.62C69.5307 34.62 70.5041 34.8333 71.3307 35.26C72.1574 35.6867 72.7974 36.3 73.2507 37.1C73.7041 37.8867 73.9307 38.8267 73.9307 39.92C73.9307 41 73.7041 41.94 73.2507 42.74C72.7974 43.54 72.1574 44.1533 71.3307 44.58C70.5041 45.0067 69.5307 45.22 68.4107 45.22ZM68.4107 42.58C68.9974 42.58 69.4641 42.3733 69.8107 41.96C70.1574 41.5333 70.3307 40.8533 70.3307 39.92C70.3307 38.9867 70.1574 38.3133 69.8107 37.9C69.4641 37.4733 68.9974 37.26 68.4107 37.26C67.8107 37.26 67.3374 37.4733 66.9907 37.9C66.6441 38.3133 66.4707 38.9867 66.4707 39.92C66.4707 40.8533 66.6441 41.5333 66.9907 41.96C67.3374 42.3733 67.8107 42.58 68.4107 42.58ZM75.2745 45V37.62C75.2745 37.1533 75.2611 36.6867 75.2345 36.22C75.2078 35.7533 75.1678 35.2933 75.1145 34.84H78.5545L78.9345 37.96H78.3945C78.5278 37.2 78.7411 36.5733 79.0345 36.08C79.3278 35.5867 79.6945 35.22 80.1345 34.98C80.5745 34.74 81.0945 34.62 81.6945 34.62C81.9745 34.62 82.1811 34.6333 82.3145 34.66C82.4611 34.6733 82.6145 34.7133 82.7745 34.78V37.9C82.4411 37.7533 82.1745 37.66 81.9745 37.62C81.7745 37.58 81.5145 37.56 81.1945 37.56C80.6478 37.56 80.2011 37.66 79.8545 37.86C79.5078 38.0467 79.2545 38.34 79.0945 38.74C78.9478 39.14 78.8745 39.6533 78.8745 40.28V45H75.2745ZM89.2346 45.22C87.7946 45.22 86.708 44.88 85.9746 44.2C85.2546 43.5067 84.8946 42.46 84.8946 41.06V37.46H82.9946V34.84H84.8946V32.44L88.4546 31.6V34.84H90.9346V37.46H88.4546V40.92C88.4546 41.5067 88.588 41.9 88.8546 42.1C89.1213 42.2867 89.4413 42.38 89.8146 42.38C90.0413 42.38 90.2346 42.3667 90.3946 42.34C90.568 42.3 90.748 42.2467 90.9346 42.18V44.92C90.6413 45.04 90.348 45.12 90.0546 45.16C89.7746 45.2 89.5013 45.22 89.2346 45.22Z" fill="black"/>
<path d="M503.5 39.8438C502.903 39.8438 502.331 39.5968 501.909 39.1573C501.487 38.7177 501.25 38.1216 501.25 37.5C501.25 36.8784 501.487 36.2823 501.909 35.8427C502.331 35.4032 502.903 35.1562 503.5 35.1562C504.097 35.1562 504.669 35.4032 505.091 35.8427C505.513 36.2823 505.75 36.8784 505.75 37.5C505.75 38.1216 505.513 38.7177 505.091 39.1573C504.669 39.5968 504.097 39.8438 503.5 39.8438ZM511 39.8438C510.403 39.8438 509.831 39.5968 509.409 39.1573C508.987 38.7177 508.75 38.1216 508.75 37.5C508.75 36.8784 508.987 36.2823 509.409 35.8427C509.831 35.4032 510.403 35.1562 511 35.1562C511.597 35.1562 512.169 35.4032 512.591 35.8427C513.013 36.2823 513.25 36.8784 513.25 37.5C513.25 38.1216 513.013 38.7177 512.591 39.1573C512.169 39.5968 511.597 39.8438 511 39.8438ZM518.5 39.8438C517.903 39.8438 517.331 39.5968 516.909 39.1573C516.487 38.7177 516.25 38.1216 516.25 37.5C516.25 36.8784 516.487 36.2823 516.909 35.8427C517.331 35.4032 517.903 35.1562 518.5 35.1562C519.097 35.1562 519.669 35.4032 520.091 35.8427C520.513 36.2823 520.75 36.8784 520.75 37.5C520.75 38.1216 520.513 38.7177 520.091 39.1573C519.669 39.5968 519.097 39.8438 518.5 39.8438Z" fill="#A1A0BD"/>
<path d="M24.6237 87V85.6705L27.7303 82.794C27.9945 82.5384 28.2161 82.3082 28.395 82.1037C28.5769 81.8991 28.7146 81.6989 28.8084 81.5028C28.9021 81.304 28.949 81.0895 28.949 80.8594C28.949 80.6037 28.8908 80.3835 28.7743 80.1989C28.6578 80.0114 28.4987 79.8679 28.297 79.7685C28.0953 79.6662 27.8666 79.6151 27.611 79.6151C27.3439 79.6151 27.111 79.669 26.9121 79.777C26.7132 79.8849 26.5598 80.0398 26.4519 80.2415C26.3439 80.4432 26.2899 80.6832 26.2899 80.9616H24.5385C24.5385 80.3906 24.6678 79.8949 24.9263 79.4744C25.1848 79.054 25.547 78.7287 26.0129 78.4986C26.4788 78.2685 27.0158 78.1534 27.6237 78.1534C28.2487 78.1534 28.7928 78.2642 29.2558 78.4858C29.7217 78.7045 30.084 79.0085 30.3425 79.3977C30.601 79.7869 30.7303 80.233 30.7303 80.7358C30.7303 81.0653 30.6649 81.3906 30.5342 81.7116C30.4064 82.0327 30.1777 82.3892 29.8482 82.7812C29.5186 83.1705 29.0541 83.6378 28.4547 84.1832L27.1806 85.4318V85.4915H30.8453V87H24.6237ZM35.3642 87.1918C34.6313 87.1889 34.0006 87.0085 33.4722 86.6506C32.9466 86.2926 32.5418 85.7741 32.2577 85.0952C31.9764 84.4162 31.8372 83.5994 31.8401 82.6449C31.8401 81.6932 31.9807 80.8821 32.2619 80.2116C32.546 79.5412 32.9509 79.0312 33.4764 78.6818C34.0048 78.3295 34.6341 78.1534 35.3642 78.1534C36.0943 78.1534 36.7222 78.3295 37.2477 78.6818C37.7761 79.0341 38.1824 79.5455 38.4665 80.2159C38.7506 80.8835 38.8912 81.6932 38.8884 82.6449C38.8884 83.6023 38.7463 84.4205 38.4622 85.0994C38.181 85.7784 37.7776 86.2969 37.252 86.6548C36.7264 87.0128 36.0972 87.1918 35.3642 87.1918ZM35.3642 85.6619C35.8642 85.6619 36.2634 85.4105 36.5616 84.9077C36.8599 84.4048 37.0077 83.6506 37.0048 82.6449C37.0048 81.983 36.9366 81.4318 36.8003 80.9915C36.6668 80.5511 36.4764 80.2202 36.2293 79.9986C35.9849 79.777 35.6966 79.6662 35.3642 79.6662C34.867 79.6662 34.4693 79.9148 34.171 80.4119C33.8727 80.9091 33.7222 81.6534 33.7193 82.6449C33.7193 83.3153 33.7861 83.875 33.9196 84.3239C34.056 84.7699 34.2477 85.1051 34.4949 85.3295C34.742 85.5511 35.0318 85.6619 35.3642 85.6619ZM43.3859 87.1918C42.653 87.1889 42.0223 87.0085 41.4939 86.6506C40.9683 86.2926 40.5635 85.7741 40.2794 85.0952C39.9981 84.4162 39.8589 83.5994 39.8618 82.6449C39.8618 81.6932 40.0024 80.8821 40.2837 80.2116C40.5677 79.5412 40.9726 79.0312 41.4981 78.6818C42.0265 78.3295 42.6558 78.1534 43.3859 78.1534C44.116 78.1534 44.7439 78.3295 45.2694 78.6818C45.7979 79.0341 46.2041 79.5455 46.4882 80.2159C46.7723 80.8835 46.9129 81.6932 46.9101 82.6449C46.9101 83.6023 46.768 84.4205 46.4839 85.0994C46.2027 85.7784 45.7993 86.2969 45.2737 86.6548C44.7481 87.0128 44.1189 87.1918 43.3859 87.1918ZM43.3859 85.6619C43.8859 85.6619 44.2851 85.4105 44.5834 84.9077C44.8817 84.4048 45.0294 83.6506 45.0265 82.6449C45.0265 81.983 44.9584 81.4318 44.822 80.9915C44.6885 80.5511 44.4981 80.2202 44.251 79.9986C44.0067 79.777 43.7183 79.6662 43.3859 79.6662C42.8888 79.6662 42.491 79.9148 42.1927 80.4119C41.8944 80.9091 41.7439 81.6534 41.741 82.6449C41.741 83.3153 41.8078 83.875 41.9413 84.3239C42.0777 84.7699 42.2694 85.1051 42.5166 85.3295C42.7638 85.5511 43.0535 85.6619 43.3859 85.6619ZM51.4076 87.1918C50.6747 87.1889 50.044 87.0085 49.5156 86.6506C48.99 86.2926 48.5852 85.7741 48.3011 85.0952C48.0199 84.4162 47.8807 83.5994 47.8835 82.6449C47.8835 81.6932 48.0241 80.8821 48.3054 80.2116C48.5895 79.5412 48.9943 79.0312 49.5199 78.6818C50.0483 78.3295 50.6775 78.1534 51.4076 78.1534C52.1378 78.1534 52.7656 78.3295 53.2912 78.6818C53.8196 79.0341 54.2258 79.5455 54.5099 80.2159C54.794 80.8835 54.9346 81.6932 54.9318 82.6449C54.9318 83.6023 54.7897 84.4205 54.5057 85.0994C54.2244 85.7784 53.821 86.2969 53.2954 86.6548C52.7699 87.0128 52.1406 87.1918 51.4076 87.1918ZM51.4076 85.6619C51.9076 85.6619 52.3068 85.4105 52.6051 84.9077C52.9034 84.4048 53.0511 83.6506 53.0483 82.6449C53.0483 81.983 52.9801 81.4318 52.8437 80.9915C52.7102 80.5511 52.5199 80.2202 52.2727 79.9986C52.0284 79.777 51.74 79.6662 51.4076 79.6662C50.9105 79.6662 50.5128 79.9148 50.2145 80.4119C49.9162 80.9091 49.7656 81.6534 49.7628 82.6449C49.7628 83.3153 49.8295 83.875 49.963 84.3239C50.0994 84.7699 50.2912 85.1051 50.5383 85.3295C50.7855 85.5511 51.0753 85.6619 51.4076 85.6619Z" fill="#CCCBD8"/>
<path d="M30.1081 110.371V119.098H28.2629V112.122H28.2118L26.2132 113.375V111.739L28.3737 110.371H30.1081ZM35.3642 119.29C34.6313 119.287 34.0006 119.106 33.4722 118.749C32.9466 118.391 32.5418 117.872 32.2577 117.193C31.9764 116.514 31.8372 115.697 31.8401 114.743C31.8401 113.791 31.9807 112.98 32.2619 112.31C32.546 111.639 32.9509 111.129 33.4764 110.78C34.0048 110.428 34.6341 110.251 35.3642 110.251C36.0943 110.251 36.7222 110.428 37.2477 110.78C37.7761 111.132 38.1824 111.643 38.4665 112.314C38.7506 112.981 38.8912 113.791 38.8884 114.743C38.8884 115.7 38.7463 116.518 38.4622 117.197C38.181 117.876 37.7776 118.395 37.252 118.753C36.7264 119.111 36.0972 119.29 35.3642 119.29ZM35.3642 117.76C35.8642 117.76 36.2634 117.508 36.5616 117.006C36.8599 116.503 37.0077 115.749 37.0048 114.743C37.0048 114.081 36.9366 113.53 36.8003 113.089C36.6668 112.649 36.4764 112.318 36.2293 112.097C35.9849 111.875 35.6966 111.764 35.3642 111.764C34.867 111.764 34.4693 112.013 34.171 112.51C33.8727 113.007 33.7222 113.751 33.7193 114.743C33.7193 115.413 33.7861 115.973 33.9196 116.422C34.056 116.868 34.2477 117.203 34.4949 117.428C34.742 117.649 35.0318 117.76 35.3642 117.76ZM43.3859 119.29C42.653 119.287 42.0223 119.106 41.4939 118.749C40.9683 118.391 40.5635 117.872 40.2794 117.193C39.9981 116.514 39.8589 115.697 39.8618 114.743C39.8618 113.791 40.0024 112.98 40.2837 112.31C40.5677 111.639 40.9726 111.129 41.4981 110.78C42.0265 110.428 42.6558 110.251 43.3859 110.251C44.116 110.251 44.7439 110.428 45.2694 110.78C45.7979 111.132 46.2041 111.643 46.4882 112.314C46.7723 112.981 46.9129 113.791 46.9101 114.743C46.9101 115.7 46.768 116.518 46.4839 117.197C46.2027 117.876 45.7993 118.395 45.2737 118.753C44.7481 119.111 44.1189 119.29 43.3859 119.29ZM43.3859 117.76C43.8859 117.76 44.2851 117.508 44.5834 117.006C44.8817 116.503 45.0294 115.749 45.0265 114.743C45.0265 114.081 44.9584 113.53 44.822 113.089C44.6885 112.649 44.4981 112.318 44.251 112.097C44.0067 111.875 43.7183 111.764 43.3859 111.764C42.8888 111.764 42.491 112.013 42.1927 112.51C41.8944 113.007 41.7439 113.751 41.741 114.743C41.741 115.413 41.8078 115.973 41.9413 116.422C42.0777 116.868 42.2694 117.203 42.5166 117.428C42.7638 117.649 43.0535 117.76 43.3859 117.76ZM51.4076 119.29C50.6747 119.287 50.044 119.106 49.5156 118.749C48.99 118.391 48.5852 117.872 48.3011 117.193C48.0199 116.514 47.8807 115.697 47.8835 114.743C47.8835 113.791 48.0241 112.98 48.3054 112.31C48.5895 111.639 48.9943 111.129 49.5199 110.78C50.0483 110.428 50.6775 110.251 51.4076 110.251C52.1378 110.251 52.7656 110.428 53.2912 110.78C53.8196 111.132 54.2258 111.643 54.5099 112.314C54.794 112.981 54.9346 113.791 54.9318 114.743C54.9318 115.7 54.7897 116.518 54.5057 117.197C54.2244 117.876 53.821 118.395 53.2954 118.753C52.7699 119.111 52.1406 119.29 51.4076 119.29ZM51.4076 117.76C51.9076 117.76 52.3068 117.508 52.6051 117.006C52.9034 116.503 53.0511 115.749 53.0483 114.743C53.0483 114.081 52.9801 113.53 52.8437 113.089C52.7102 112.649 52.5199 112.318 52.2727 112.097C52.0284 111.875 51.74 111.764 51.4076 111.764C50.9105 111.764 50.5128 112.013 50.2145 112.51C49.9162 113.007 49.7656 113.751 49.7628 114.743C49.7628 115.413 49.8295 115.973 49.963 116.422C50.0994 116.868 50.2912 117.203 50.5383 117.428C50.7855 117.649 51.0753 117.76 51.4076 117.76Z" fill="#CCCBD8"/>
<path d="M35.6572 151.315C35.0549 151.315 34.518 151.204 34.0464 150.983C33.5776 150.761 33.2055 150.456 32.9299 150.067C32.6543 149.677 32.5109 149.231 32.4995 148.729H34.2893C34.3092 149.067 34.4512 149.341 34.7154 149.551C34.9796 149.761 35.2935 149.866 35.6572 149.866C35.9469 149.866 36.2026 149.802 36.4242 149.675C36.6487 149.544 36.8234 149.364 36.9484 149.133C37.0762 148.9 37.1401 148.633 37.1401 148.332C37.1401 148.025 37.0748 147.756 36.9441 147.523C36.8163 147.29 36.6387 147.108 36.4114 146.977C36.1842 146.846 35.9242 146.78 35.6316 146.777C35.3759 146.777 35.1273 146.829 34.8859 146.935C34.6472 147.04 34.4612 147.183 34.3276 147.365L32.687 147.071L33.1004 142.469H38.4356V143.977H34.6217L34.3958 146.163H34.4469C34.6004 145.947 34.8319 145.768 35.1415 145.626C35.4512 145.484 35.7978 145.413 36.1813 145.413C36.7069 145.413 37.1756 145.537 37.5876 145.784C37.9995 146.031 38.3248 146.371 38.5634 146.802C38.8021 147.231 38.92 147.726 38.9171 148.285C38.92 148.873 38.7836 149.396 38.508 149.854C38.2353 150.308 37.8532 150.666 37.3617 150.927C36.8731 151.186 36.3049 151.315 35.6572 151.315ZM43.3859 151.388C42.653 151.385 42.0223 151.204 41.4939 150.846C40.9683 150.489 40.5635 149.97 40.2794 149.291C39.9981 148.612 39.8589 147.795 39.8618 146.841C39.8618 145.889 40.0024 145.078 40.2837 144.408C40.5677 143.737 40.9726 143.227 41.4981 142.878C42.0265 142.525 42.6558 142.349 43.3859 142.349C44.116 142.349 44.7439 142.525 45.2694 142.878C45.7979 143.23 46.2041 143.741 46.4882 144.412C46.7723 145.079 46.9129 145.889 46.9101 146.841C46.9101 147.798 46.768 148.616 46.4839 149.295C46.2027 149.974 45.7993 150.493 45.2737 150.851C44.7481 151.209 44.1189 151.388 43.3859 151.388ZM43.3859 149.858C43.8859 149.858 44.2851 149.606 44.5834 149.104C44.8817 148.601 45.0294 147.846 45.0265 146.841C45.0265 146.179 44.9584 145.628 44.822 145.187C44.6885 144.747 44.4981 144.416 44.251 144.195C44.0067 143.973 43.7183 143.862 43.3859 143.862C42.8888 143.862 42.491 144.111 42.1927 144.608C41.8944 145.105 41.7439 145.849 41.741 146.841C41.741 147.511 41.8078 148.071 41.9413 148.52C42.0777 148.966 42.2694 149.301 42.5166 149.525C42.7638 149.747 43.0535 149.858 43.3859 149.858ZM51.4076 151.388C50.6747 151.385 50.044 151.204 49.5156 150.846C48.99 150.489 48.5852 149.97 48.3011 149.291C48.0199 148.612 47.8807 147.795 47.8835 146.841C47.8835 145.889 48.0241 145.078 48.3054 144.408C48.5895 143.737 48.9943 143.227 49.5199 142.878C50.0483 142.525 50.6775 142.349 51.4076 142.349C52.1378 142.349 52.7656 142.525 53.2912 142.878C53.8196 143.23 54.2258 143.741 54.5099 144.412C54.794 145.079 54.9346 145.889 54.9318 146.841C54.9318 147.798 54.7897 148.616 54.5057 149.295C54.2244 149.974 53.821 150.493 53.2954 150.851C52.7699 151.209 52.1406 151.388 51.4076 151.388ZM51.4076 149.858C51.9076 149.858 52.3068 149.606 52.6051 149.104C52.9034 148.601 53.0511 147.846 53.0483 146.841C53.0483 146.179 52.9801 145.628 52.8437 145.187C52.7102 144.747 52.5199 144.416 52.2727 144.195C52.0284 143.973 51.74 143.862 51.4076 143.862C50.9105 143.862 50.5128 144.111 50.2145 144.608C49.9162 145.105 49.7656 145.849 49.7628 146.841C49.7628 147.511 49.8295 148.071 49.963 148.52C50.0994 148.966 50.2912 149.301 50.5383 149.525C50.7855 149.747 51.0753 149.858 51.4076 149.858Z" fill="#CCCBD8"/>
<path d="M33.1728 183.294V181.964L36.2793 179.088C36.5435 178.832 36.7651 178.602 36.9441 178.398C37.1259 178.193 37.2637 177.993 37.3575 177.797C37.4512 177.598 37.4981 177.383 37.4981 177.153C37.4981 176.898 37.4398 176.677 37.3234 176.493C37.2069 176.305 37.0478 176.162 36.8461 176.062C36.6444 175.96 36.4157 175.909 36.16 175.909C35.893 175.909 35.66 175.963 35.4612 176.071C35.2623 176.179 35.1089 176.334 35.0009 176.535C34.893 176.737 34.839 176.977 34.839 177.256H33.0876C33.0876 176.685 33.2168 176.189 33.4754 175.768C33.7339 175.348 34.0961 175.023 34.562 174.792C35.0279 174.562 35.5648 174.447 36.1728 174.447C36.7978 174.447 37.3418 174.558 37.8049 174.78C38.2708 174.998 38.633 175.302 38.8915 175.692C39.1501 176.081 39.2793 176.527 39.2793 177.03C39.2793 177.359 39.214 177.685 39.0833 178.006C38.9555 178.327 38.7268 178.683 38.3972 179.075C38.0677 179.464 37.6032 179.932 37.0038 180.477L35.7296 181.726V181.785H39.3944V183.294H33.1728ZM43.6789 183.413C43.0766 183.413 42.5397 183.302 42.0681 183.081C41.5993 182.859 41.2272 182.554 40.9516 182.165C40.6761 181.775 40.5326 181.329 40.5212 180.827H42.311C42.3309 181.165 42.4729 181.439 42.7371 181.649C43.0013 181.859 43.3153 181.964 43.6789 181.964C43.9687 181.964 44.2243 181.9 44.4459 181.773C44.6704 181.642 44.8451 181.462 44.9701 181.231C45.0979 180.998 45.1618 180.731 45.1618 180.43C45.1618 180.123 45.0965 179.854 44.9658 179.621C44.838 179.388 44.6604 179.206 44.4332 179.075C44.2059 178.944 43.9459 178.878 43.6533 178.875C43.3976 178.875 43.1491 178.927 42.9076 179.033C42.6689 179.138 42.4829 179.281 42.3493 179.463L40.7087 179.169L41.1221 174.567H46.4573V176.075H42.6434L42.4175 178.261H42.4687C42.6221 178.045 42.8536 177.866 43.1633 177.724C43.4729 177.582 43.8195 177.511 44.203 177.511C44.7286 177.511 45.1974 177.635 45.6093 177.882C46.0212 178.129 46.3465 178.469 46.5851 178.9C46.8238 179.329 46.9417 179.824 46.9388 180.383C46.9417 180.971 46.8053 181.494 46.5297 181.952C46.257 182.406 45.8749 182.764 45.3834 183.025C44.8948 183.284 44.3266 183.413 43.6789 183.413ZM51.4076 183.486C50.6747 183.483 50.044 183.302 49.5156 182.944C48.99 182.587 48.5852 182.068 48.3011 181.389C48.0199 180.71 47.8807 179.893 47.8835 178.939C47.8835 177.987 48.0241 177.176 48.3054 176.506C48.5895 175.835 48.9943 175.325 49.5199 174.976C50.0483 174.623 50.6775 174.447 51.4076 174.447C52.1378 174.447 52.7656 174.623 53.2912 174.976C53.8196 175.328 54.2258 175.839 54.5099 176.51C54.794 177.177 54.9346 177.987 54.9318 178.939C54.9318 179.896 54.7897 180.714 54.5057 181.393C54.2244 182.072 53.821 182.591 53.2954 182.949C52.7699 183.307 52.1406 183.486 51.4076 183.486ZM51.4076 181.956C51.9076 181.956 52.3068 181.704 52.6051 181.202C52.9034 180.699 53.0511 179.944 53.0483 178.939C53.0483 178.277 52.9801 177.726 52.8437 177.285C52.7102 176.845 52.5199 176.514 52.2727 176.292C52.0284 176.071 51.74 175.96 51.4076 175.96C50.9105 175.96 50.5128 176.209 50.2145 176.706C49.9162 177.203 49.7656 177.947 49.7628 178.939C49.7628 179.609 49.8295 180.169 49.963 180.618C50.0994 181.064 50.2912 181.399 50.5383 181.623C50.7855 181.845 51.0753 181.956 51.4076 181.956Z" fill="#CCCBD8"/>
<path d="M51.4076 215.584C50.6747 215.581 50.044 215.4 49.5156 215.042C48.99 214.684 48.5852 214.166 48.3011 213.487C48.0199 212.808 47.8807 211.991 47.8835 211.037C47.8835 210.085 48.0241 209.274 48.3054 208.604C48.5895 207.933 48.9943 207.423 49.5199 207.074C50.0483 206.721 50.6775 206.545 51.4076 206.545C52.1378 206.545 52.7656 206.721 53.2912 207.074C53.8196 207.426 54.2258 207.937 54.5099 208.608C54.794 209.275 54.9346 210.085 54.9318 211.037C54.9318 211.994 54.7897 212.812 54.5057 213.491C54.2244 214.17 53.821 214.689 53.2954 215.047C52.7699 215.405 52.1406 215.584 51.4076 215.584ZM51.4076 214.054C51.9076 214.054 52.3068 213.802 52.6051 213.3C52.9034 212.797 53.0511 212.042 53.0483 211.037C53.0483 210.375 52.9801 209.824 52.8437 209.383C52.7102 208.943 52.5199 208.612 52.2727 208.39C52.0284 208.169 51.74 208.058 51.4076 208.058C50.9105 208.058 50.5128 208.307 50.2145 208.804C49.9162 209.301 49.7656 210.045 49.7628 211.037C49.7628 211.707 49.8295 212.267 49.963 212.716C50.0994 213.162 50.2912 213.497 50.5383 213.721C50.7855 213.943 51.0753 214.054 51.4076 214.054Z" fill="#CCCBD8"/>
<rect x="70.5401" y="75" width="24.705" height="141.392" rx="5" fill="#4C49ED"/>
<rect x="96.2451" y="129.392" width="24.705" height="87" rx="5" fill="#AFAEFE"/>
<path d="M87.2632 229.937H89.2391V236.53C89.2391 237.139 89.1021 237.668 88.8282 238.118C88.5574 238.567 88.1804 238.913 87.6972 239.156C87.214 239.4 86.6523 239.521 86.0121 239.521C85.4428 239.521 84.9257 239.421 84.461 239.221C83.9994 239.018 83.6331 238.71 83.3623 238.298C83.0915 237.882 82.9576 237.361 82.9607 236.733H84.9504C84.9565 236.982 85.0073 237.196 85.1027 237.374C85.2012 237.55 85.3351 237.685 85.5043 237.781C85.6767 237.873 85.8798 237.919 86.1137 237.919C86.3599 237.919 86.5677 237.867 86.7369 237.762C86.9093 237.655 87.0401 237.498 87.1293 237.291C87.2186 237.085 87.2632 236.831 87.2632 236.53V229.937ZM92.2614 239.392H90.1193L93.3832 229.937H95.9592L99.2184 239.392H97.0764L94.7081 232.098H94.6342L92.2614 239.392ZM92.1275 235.676H97.1872V237.236H92.1275V235.676ZM108.004 229.937V239.392H106.278L102.165 233.441H102.095V239.392H100.096V229.937H101.851L105.932 235.883H106.015V229.937H108.004Z" fill="#CCCBD8"/>
<rect x="150.95" y="136.392" width="24.705" height="80" rx="5" fill="#4C49ED"/>
<rect x="176.655" y="75" width="24.705" height="141.392" rx="5" fill="#AFAEFE"/>
<path d="M165.157 239.392V229.937H171.417V231.585H167.156V233.838H171.002V235.486H167.156V239.392H165.157ZM172.502 239.392V229.937H178.872V231.585H174.501V233.838H178.545V235.486H174.501V237.744H178.891V239.392H172.502ZM180.202 239.392V229.937H183.987C184.683 229.937 185.263 230.04 185.728 230.247C186.192 230.453 186.542 230.739 186.776 231.105C187.009 231.468 187.126 231.887 187.126 232.361C187.126 232.73 187.053 233.055 186.905 233.335C186.757 233.612 186.554 233.84 186.295 234.018C186.04 234.194 185.748 234.318 185.418 234.392V234.485C185.778 234.5 186.115 234.602 186.429 234.789C186.746 234.977 187.003 235.24 187.2 235.579C187.397 235.914 187.496 236.314 187.496 236.779C187.496 237.281 187.371 237.728 187.122 238.122C186.876 238.513 186.511 238.823 186.028 239.05C185.544 239.278 184.949 239.392 184.241 239.392H180.202ZM182.201 237.758H183.83C184.387 237.758 184.794 237.651 185.049 237.439C185.304 237.224 185.432 236.937 185.432 236.58C185.432 236.319 185.369 236.088 185.243 235.888C185.117 235.688 184.937 235.531 184.703 235.417C184.472 235.303 184.196 235.246 183.876 235.246H182.201V237.758ZM182.201 233.894H183.682C183.956 233.894 184.2 233.846 184.412 233.751C184.627 233.652 184.797 233.514 184.92 233.335C185.046 233.157 185.109 232.943 185.109 232.693C185.109 232.352 184.987 232.076 184.744 231.867C184.504 231.658 184.163 231.553 183.719 231.553H182.201V233.894Z" fill="#CCCBD8"/>
<rect x="231.36" y="75" width="24.705" height="141.392" rx="5" fill="#4C49ED"/>
<rect x="257.065" y="75" width="24.705" height="141.392" rx="5" fill="#AFAEFE"/>
<path d="M242.571 229.937H245.036L247.64 236.29H247.751L250.354 229.937H252.82V239.392H250.881V233.238H250.802L248.356 239.346H247.035L244.589 233.215H244.51V239.392H242.571V229.937ZM255.836 239.392H253.694L256.958 229.937H259.534L262.793 239.392H260.651L258.283 232.098H258.209L255.836 239.392ZM255.702 235.676H260.762V237.236H255.702V235.676ZM263.671 239.392V229.937H267.401C268.115 229.937 268.725 230.065 269.229 230.32C269.737 230.573 270.124 230.931 270.388 231.396C270.656 231.858 270.79 232.401 270.79 233.026C270.79 233.654 270.654 234.194 270.384 234.646C270.113 235.095 269.72 235.44 269.206 235.68C268.695 235.92 268.077 236.04 267.351 236.04H264.853V234.434H267.027C267.409 234.434 267.726 234.381 267.978 234.277C268.231 234.172 268.419 234.015 268.542 233.806C268.668 233.597 268.731 233.337 268.731 233.026C268.731 232.712 268.668 232.447 268.542 232.232C268.419 232.016 268.229 231.853 267.974 231.742C267.721 231.629 267.403 231.572 267.018 231.572H265.67V239.392H263.671ZM268.777 235.089L271.127 239.392H268.92L266.621 235.089H268.777Z" fill="#CCCBD8"/>
<rect x="311.77" y="75" width="24.705" height="141.392" rx="5" fill="#4C49ED"/>
<rect x="337.475" y="132.392" width="24.705" height="84" rx="5" fill="#AFAEFE"/>
<path d="M326.35 239.392H324.208L327.472 229.937H330.048L333.307 239.392H331.165L328.797 232.098H328.723L326.35 239.392ZM326.216 235.676H331.276V237.236H326.216V235.676ZM334.185 239.392V229.937H337.915C338.632 229.937 339.243 230.074 339.748 230.348C340.253 230.619 340.637 230.996 340.902 231.479C341.17 231.959 341.304 232.513 341.304 233.141C341.304 233.769 341.168 234.323 340.897 234.803C340.627 235.283 340.234 235.657 339.72 235.925C339.209 236.193 338.591 236.327 337.864 236.327H335.487V234.725H337.541C337.926 234.725 338.243 234.658 338.492 234.526C338.745 234.391 338.932 234.204 339.055 233.968C339.182 233.727 339.245 233.452 339.245 233.141C339.245 232.827 339.182 232.553 339.055 232.319C338.932 232.082 338.745 231.899 338.492 231.77C338.24 231.638 337.92 231.572 337.532 231.572H336.184V239.392H334.185ZM342.342 239.392V229.937H346.072C346.786 229.937 347.395 230.065 347.9 230.32C348.408 230.573 348.794 230.931 349.059 231.396C349.327 231.858 349.461 232.401 349.461 233.026C349.461 233.654 349.325 234.194 349.054 234.646C348.784 235.095 348.391 235.44 347.877 235.68C347.366 235.92 346.748 236.04 346.021 236.04H343.524V234.434H345.698C346.08 234.434 346.397 234.381 346.649 234.277C346.902 234.172 347.089 234.015 347.212 233.806C347.339 233.597 347.402 233.337 347.402 233.026C347.402 232.712 347.339 232.447 347.212 232.232C347.089 232.016 346.9 231.853 346.645 231.742C346.392 231.629 346.074 231.572 345.689 231.572H344.341V239.392H342.342ZM347.448 235.089L349.798 239.392H347.591L345.292 235.089H347.448Z" fill="#CCCBD8"/>
<rect x="392.18" y="161.392" width="24.705" height="55" rx="5" fill="#4C49ED"/>
<rect x="417.885" y="75" width="24.705" height="141.392" rx="5" fill="#AFAEFE"/>
<path d="M403.429 229.937H405.894L408.498 236.29H408.609L411.213 229.937H413.678V239.392H411.739V233.238H411.66L409.214 239.346H407.893L405.447 233.215H405.368V239.392H403.429V229.937ZM416.694 239.392H414.552L417.816 229.937H420.392L423.651 239.392H421.509L419.141 232.098H419.067L416.694 239.392ZM416.56 235.676H421.62V237.236H416.56V235.676ZM423.011 229.937H425.249L427.405 234.009H427.498L429.654 229.937H431.893L428.444 236.05V239.392H426.459V236.05L423.011 229.937Z" fill="#CCCBD8"/>
<rect x="472.59" y="75" width="24.705" height="141.392" rx="5" fill="#4C49ED"/>
<rect x="498.295" y="137.392" width="24.705" height="79" rx="5" fill="#AFAEFE"/>
<path d="M489.434 229.937H491.41V236.53C491.41 237.139 491.273 237.668 490.999 238.118C490.728 238.567 490.351 238.913 489.868 239.156C489.385 239.4 488.823 239.521 488.183 239.521C487.613 239.521 487.096 239.421 486.632 239.221C486.17 239.018 485.804 238.71 485.533 238.298C485.262 237.882 485.128 237.361 485.131 236.733H487.121C487.127 236.982 487.178 237.196 487.273 237.374C487.372 237.55 487.506 237.685 487.675 237.781C487.847 237.873 488.05 237.919 488.284 237.919C488.53 237.919 488.738 237.867 488.907 237.762C489.08 237.655 489.211 237.498 489.3 237.291C489.389 237.085 489.434 236.831 489.434 236.53V229.937ZM498.642 229.937H500.641V236.077C500.641 236.767 500.476 237.37 500.147 237.887C499.821 238.404 499.364 238.807 498.776 239.096C498.188 239.383 497.503 239.526 496.722 239.526C495.937 239.526 495.251 239.383 494.663 239.096C494.075 238.807 493.618 238.404 493.292 237.887C492.965 237.37 492.802 236.767 492.802 236.077V229.937H494.801V235.906C494.801 236.267 494.88 236.587 495.037 236.867C495.197 237.147 495.421 237.367 495.711 237.527C496 237.687 496.337 237.767 496.722 237.767C497.109 237.767 497.446 237.687 497.733 237.527C498.022 237.367 498.245 237.147 498.402 236.867C498.562 236.587 498.642 236.267 498.642 235.906V229.937ZM509.934 229.937V239.392H508.207L504.094 233.441H504.025V239.392H502.026V229.937H503.78L507.861 235.883H507.944V229.937H509.934Z" fill="#CCCBD8"/>
</svg>
