<svg width="260" height="144" viewBox="0 0 260 144" fill="none" xmlns="http://www.w3.org/2000/svg">
<rect x="0.75" y="0.431854" width="258.75" height="143.068" rx="11" fill="white"/>
<path d="M31.654 30.4319V20.7359H27.942V19.0399H37.462V20.7359H33.734V30.4319H31.654ZM41.1426 30.5599C40.3213 30.5599 39.596 30.3892 38.9666 30.0479C38.348 29.7065 37.868 29.2212 37.5266 28.5919C37.196 27.9519 37.0306 27.2052 37.0306 26.3519C37.0306 25.4985 37.196 24.7572 37.5266 24.1279C37.868 23.4879 38.348 22.9972 38.9666 22.6559C39.596 22.3145 40.3213 22.1439 41.1426 22.1439C41.9533 22.1439 42.668 22.3145 43.2866 22.6559C43.9053 22.9972 44.38 23.4879 44.7106 24.1279C45.052 24.7572 45.2226 25.4985 45.2226 26.3519C45.2226 27.2052 45.052 27.9519 44.7106 28.5919C44.38 29.2212 43.9053 29.7065 43.2866 30.0479C42.668 30.3892 41.9533 30.5599 41.1426 30.5599ZM41.1266 28.9919C41.8093 28.9919 42.3266 28.7732 42.6786 28.3359C43.0413 27.8879 43.2226 27.2265 43.2226 26.3519C43.2226 25.4879 43.0413 24.8319 42.6786 24.3839C42.316 23.9252 41.804 23.6959 41.1426 23.6959C40.4706 23.6959 39.9533 23.9252 39.5906 24.3839C39.228 24.8319 39.0466 25.4879 39.0466 26.3519C39.0466 27.2265 39.2226 27.8879 39.5746 28.3359C39.9373 28.7732 40.4546 28.9919 41.1266 28.9919ZM49.4445 23.8559V27.4719C49.4445 28.4212 49.8872 28.8959 50.7725 28.8959C51.0178 28.8959 51.2845 28.8532 51.5725 28.7679V30.3519C51.2205 30.4799 50.7938 30.5439 50.2925 30.5439C49.3752 30.5439 48.6712 30.2879 48.1805 29.7759C47.6898 29.2639 47.4445 28.5279 47.4445 27.5679V23.8559H45.8925V22.3519H47.4445V20.3839L49.4445 19.7119V22.3519H51.5885V23.8559H49.4445ZM60.691 22.3519V30.4319H58.723V29.1359C58.4777 29.5839 58.1257 29.9359 57.667 30.1919C57.2083 30.4372 56.6857 30.5599 56.099 30.5599C55.395 30.5599 54.771 30.3892 54.227 30.0479C53.683 29.7065 53.2617 29.2212 52.963 28.5919C52.6643 27.9625 52.515 27.2319 52.515 26.3999C52.515 25.5679 52.6643 24.8319 52.963 24.1919C53.2723 23.5412 53.699 23.0399 54.243 22.6879C54.787 22.3252 55.4057 22.1439 56.099 22.1439C56.6857 22.1439 57.2083 22.2719 57.667 22.5279C58.1257 22.7732 58.4777 23.1199 58.723 23.5679V22.3519H60.691ZM56.643 28.9919C57.3043 28.9919 57.8163 28.7625 58.179 28.3039C58.5417 27.8452 58.723 27.1999 58.723 26.3679C58.723 25.5145 58.5417 24.8585 58.179 24.3999C57.8163 23.9412 57.299 23.7119 56.627 23.7119C55.9657 23.7119 55.4483 23.9519 55.075 24.4319C54.7123 24.9012 54.531 25.5572 54.531 26.3999C54.531 27.2319 54.7123 27.8719 55.075 28.3199C55.4483 28.7679 55.971 28.9919 56.643 28.9919ZM62.8693 30.4319V18.6559H64.8533V30.4319H62.8693ZM75.4318 30.5759C74.5571 30.5759 73.7358 30.4585 72.9678 30.2239C72.2104 29.9892 71.5651 29.6532 71.0318 29.2159L71.7358 27.7119C72.2904 28.1279 72.8664 28.4372 73.4638 28.6399C74.0718 28.8319 74.7331 28.9279 75.4478 28.9279C76.2371 28.9279 76.8451 28.7892 77.2718 28.5119C77.7091 28.2345 77.9278 27.8452 77.9278 27.3439C77.9278 26.9172 77.7251 26.5919 77.3198 26.3679C76.9251 26.1332 76.2691 25.9145 75.3518 25.7119C73.9224 25.4025 72.8824 25.0025 72.2318 24.5119C71.5811 24.0212 71.2558 23.3065 71.2558 22.3679C71.2558 21.6959 71.4371 21.0985 71.7998 20.5759C72.1624 20.0532 72.6744 19.6425 73.3358 19.3439C74.0078 19.0452 74.7811 18.8959 75.6558 18.8959C76.4558 18.8959 77.2131 19.0185 77.9278 19.2639C78.6531 19.4985 79.2451 19.8292 79.7038 20.2559L79.0158 21.7599C78.0024 20.9492 76.8824 20.5439 75.6558 20.5439C74.9198 20.5439 74.3384 20.6985 73.9118 21.0079C73.4851 21.3065 73.2718 21.7172 73.2718 22.2399C73.2718 22.6879 73.4584 23.0292 73.8318 23.2639C74.2158 23.4985 74.8664 23.7172 75.7838 23.9199C76.7331 24.1439 77.5064 24.3892 78.1038 24.6559C78.7011 24.9119 79.1598 25.2479 79.4798 25.6639C79.7998 26.0692 79.9598 26.5812 79.9598 27.1999C79.9598 27.8825 79.7784 28.4799 79.4158 28.9919C79.0531 29.4932 78.5304 29.8825 77.8478 30.1599C77.1651 30.4372 76.3598 30.5759 75.4318 30.5759ZM89.4566 22.3519V30.4319H87.4886V29.1359C87.2433 29.5839 86.8913 29.9359 86.4326 30.1919C85.974 30.4372 85.4513 30.5599 84.8646 30.5599C84.1606 30.5599 83.5366 30.3892 82.9926 30.0479C82.4486 29.7065 82.0273 29.2212 81.7286 28.5919C81.43 27.9625 81.2806 27.2319 81.2806 26.3999C81.2806 25.5679 81.43 24.8319 81.7286 24.1919C82.038 23.5412 82.4646 23.0399 83.0086 22.6879C83.5526 22.3252 84.1713 22.1439 84.8646 22.1439C85.4513 22.1439 85.974 22.2719 86.4326 22.5279C86.8913 22.7732 87.2433 23.1199 87.4886 23.5679V22.3519H89.4566ZM85.4086 28.9919C86.07 28.9919 86.582 28.7625 86.9446 28.3039C87.3073 27.8452 87.4886 27.1999 87.4886 26.3679C87.4886 25.5145 87.3073 24.8585 86.9446 24.3999C86.582 23.9412 86.0646 23.7119 85.3926 23.7119C84.7313 23.7119 84.214 23.9519 83.8406 24.4319C83.478 24.9012 83.2966 25.5572 83.2966 26.3999C83.2966 27.2319 83.478 27.8719 83.8406 28.3199C84.214 28.7679 84.7366 28.9919 85.4086 28.9919ZM97.2989 22.3679H99.2829L95.7469 30.4319H94.0029L90.5149 22.3679H92.6109L94.9309 28.1599L97.2989 22.3679ZM107.254 26.4959H101.686C101.728 27.3599 101.942 27.9999 102.326 28.4159C102.72 28.8212 103.302 29.0239 104.07 29.0239C104.955 29.0239 105.776 28.7359 106.534 28.1599L107.11 29.5359C106.726 29.8452 106.251 30.0959 105.686 30.2879C105.131 30.4692 104.566 30.5599 103.99 30.5599C102.667 30.5599 101.627 30.1865 100.87 29.4399C100.112 28.6932 99.7338 27.6692 99.7338 26.3679C99.7338 25.5465 99.8991 24.8159 100.23 24.1759C100.56 23.5359 101.024 23.0399 101.622 22.6879C102.219 22.3252 102.896 22.1439 103.654 22.1439C104.763 22.1439 105.638 22.5065 106.278 23.2319C106.928 23.9465 107.254 24.9332 107.254 26.1919V26.4959ZM103.702 23.5839C103.168 23.5839 102.731 23.7439 102.39 24.0639C102.059 24.3732 101.846 24.8265 101.75 25.4239H105.51C105.446 24.8159 105.259 24.3572 104.95 24.0479C104.651 23.7385 104.235 23.5839 103.702 23.5839ZM111.907 30.5599C110.446 30.5599 109.283 30.2185 108.419 29.5359L108.979 28.1279C109.843 28.7679 110.83 29.0879 111.939 29.0879C112.419 29.0879 112.787 29.0079 113.043 28.8479C113.31 28.6879 113.443 28.4639 113.443 28.1759C113.443 27.9305 113.353 27.7385 113.171 27.5999C112.99 27.4505 112.681 27.3225 112.243 27.2159L110.899 26.9119C109.427 26.5919 108.691 25.8399 108.691 24.6559C108.691 24.1652 108.83 23.7332 109.107 23.3599C109.385 22.9759 109.774 22.6772 110.275 22.4639C110.777 22.2505 111.358 22.1439 112.019 22.1439C112.595 22.1439 113.15 22.2345 113.683 22.4159C114.217 22.5865 114.686 22.8372 115.091 23.1679L114.499 24.5279C113.689 23.9305 112.857 23.6319 112.003 23.6319C111.545 23.6319 111.187 23.7172 110.931 23.8879C110.675 24.0585 110.547 24.2932 110.547 24.5919C110.547 24.8265 110.622 25.0132 110.771 25.1519C110.931 25.2905 111.198 25.4079 111.571 25.5039L112.947 25.8079C113.747 25.9892 114.329 26.2719 114.691 26.6559C115.065 27.0292 115.251 27.5199 115.251 28.1279C115.251 28.8745 114.953 29.4665 114.355 29.9039C113.758 30.3412 112.942 30.5599 111.907 30.5599Z" fill="#A1A0BD"/>
<path d="M36.6786 79.6023V53.2387H38.3675V79.6023H36.6786ZM40.7464 62.1982C40.6778 61.443 40.3723 60.856 39.8299 60.4372C39.2944 60.0115 38.5289 59.7987 37.5334 59.7987C36.8743 59.7987 36.325 59.8845 35.8857 60.0561C35.4463 60.2278 35.1167 60.4646 34.897 60.7667C34.6773 61.0619 34.564 61.4018 34.5572 61.7863C34.5434 62.1021 34.6052 62.3801 34.7425 62.6204C34.8867 62.8607 35.0927 63.0735 35.3604 63.2589C35.6351 63.4374 35.9646 63.5953 36.3491 63.7326C36.7335 63.8699 37.1661 63.9901 37.6467 64.0931L39.4592 64.505C40.5027 64.7316 41.4227 65.0337 42.2191 65.4113C43.0224 65.7889 43.6952 66.2386 44.2376 66.7603C44.7868 67.2821 45.2022 67.8828 45.4837 68.5625C45.7652 69.2422 45.9093 70.0043 45.9162 70.8488C45.9093 72.1807 45.5729 73.3238 44.907 74.2781C44.241 75.2324 43.2833 75.9636 42.0337 76.4716C40.7911 76.9797 39.291 77.2337 37.5334 77.2337C35.7689 77.2337 34.2311 76.9694 32.9197 76.4407C31.6084 75.9121 30.5889 75.1088 29.8612 74.0309C29.1334 72.953 28.7592 71.5902 28.7386 69.9425H33.62C33.6612 70.6222 33.8432 71.1886 34.1658 71.6417C34.4885 72.0948 34.9313 72.4381 35.4943 72.6716C36.0642 72.905 36.7232 73.0217 37.4716 73.0217C38.1581 73.0217 38.7417 72.929 39.2223 72.7436C39.7098 72.5583 40.0839 72.3008 40.3448 71.9713C40.6057 71.6417 40.7396 71.2641 40.7464 70.8385C40.7396 70.4403 40.616 70.1004 40.3757 69.8189C40.1354 69.5306 39.7647 69.2834 39.2635 69.0774C38.7692 68.8646 38.1375 68.6689 37.3686 68.4904L35.1648 67.9755C33.3385 67.5567 31.9002 66.8805 30.8498 65.9468C29.7994 65.0062 29.2776 63.7361 29.2844 62.1364C29.2776 60.8319 29.6277 59.6888 30.3349 58.7071C31.042 57.7253 32.0204 56.9598 33.2699 56.4105C34.5194 55.8613 35.944 55.5867 37.5437 55.5867C39.1777 55.5867 40.5954 55.8647 41.7969 56.4208C43.0052 56.9701 43.9424 57.7425 44.6083 58.738C45.2743 59.7335 45.6141 60.8869 45.6278 62.1982H40.7464ZM64.4325 55.875V76.9659H59.3452V60.6328H59.2216L54.505 63.5164V59.1087L59.7056 55.875H64.4325ZM77.1175 77.2543C75.5109 77.2543 74.0863 76.9797 72.8437 76.4304C71.6079 75.8743 70.633 75.1088 69.9189 74.1339C69.2049 73.159 68.8411 72.0365 68.8273 70.7664H73.9559C73.9765 71.2264 74.1241 71.6349 74.3987 71.9919C74.6733 72.342 75.0475 72.6166 75.5212 72.8157C75.9949 73.0148 76.5339 73.1144 77.1381 73.1144C77.7422 73.1144 78.2743 73.008 78.7343 72.7951C79.2011 72.5754 79.565 72.2768 79.8259 71.8992C80.0868 71.5147 80.2138 71.0753 80.2069 70.581C80.2138 70.0867 80.0731 69.6473 79.7847 69.2628C79.4964 68.8783 79.0879 68.5797 78.5592 68.3669C78.0374 68.154 77.4195 68.0476 76.7055 68.0476H74.6562V64.4226H76.7055C77.3303 64.4226 77.8795 64.3196 78.3532 64.1137C78.8338 63.9077 79.208 63.6194 79.4758 63.2486C79.7435 62.871 79.874 62.4385 79.8671 61.951C79.874 61.4773 79.7607 61.0619 79.5273 60.7049C79.3007 60.3411 78.9814 60.0596 78.5695 59.8605C78.1644 59.6614 77.6942 59.5618 77.1586 59.5618C76.5957 59.5618 76.0842 59.6614 75.6242 59.8605C75.1711 60.0596 74.8106 60.3411 74.5429 60.7049C74.2751 61.0688 74.1344 61.491 74.1207 61.9716H69.2496C69.2633 60.7152 69.6134 59.6099 70.3 58.6556C70.9865 57.6944 71.9202 56.9426 73.1011 56.4002C74.2889 55.8579 75.6414 55.5867 77.1586 55.5867C78.6691 55.5867 79.9975 55.851 81.1441 56.3796C82.2906 56.9083 83.1832 57.6292 83.8216 58.5423C84.4601 59.4485 84.7794 60.4749 84.7794 61.6215C84.7863 62.8092 84.3983 63.7876 83.6157 64.5565C82.8399 65.3254 81.8409 65.7992 80.6189 65.9777V66.1424C82.2529 66.3347 83.4852 66.8633 84.316 67.7284C85.1536 68.5934 85.5689 69.6747 85.5621 70.9723C85.5621 72.1944 85.2016 73.2792 84.4807 74.2266C83.7667 75.1672 82.7712 75.9087 81.4942 76.451C80.2241 76.9865 78.7652 77.2543 77.1175 77.2543ZM89.3338 76.9659L97.8402 60.1179V59.9841H87.892V55.875H103.113V60.0149L94.5756 76.9659H89.3338Z" fill="black"/>
<path d="M107.258 77.1616C106.772 77.1616 106.356 76.9907 106.009 76.6488C105.668 76.307 105.499 75.8931 105.503 75.4073C105.499 74.9305 105.668 74.5235 106.009 74.1861C106.356 73.8443 106.772 73.6733 107.258 73.6733C107.717 73.6733 108.121 73.8443 108.472 74.1861C108.828 74.5235 109.007 74.9305 109.012 75.4073C109.007 75.7312 108.922 76.0258 108.756 76.2912C108.594 76.5566 108.38 76.768 108.115 76.9255C107.854 77.0829 107.568 77.1616 107.258 77.1616ZM110.996 74.6719V72.0675L116.657 63.1478H118.971V66.6833H117.628L114.315 71.9326V72.0405H122.513V74.6719H110.996ZM117.669 76.9659V73.8757L117.736 72.7355V63.1478H120.86V76.9659H117.669ZM129.52 77.1549C128.467 77.1549 127.534 76.9749 126.72 76.6151C125.91 76.2507 125.272 75.7492 124.804 75.1105C124.336 74.4717 124.098 73.7363 124.089 72.9042H127.449C127.462 73.2055 127.559 73.4732 127.739 73.7071C127.919 73.9365 128.164 74.1164 128.474 74.2468C128.785 74.3773 129.138 74.4425 129.533 74.4425C129.929 74.4425 130.278 74.3728 130.579 74.2333C130.885 74.0894 131.124 73.8937 131.294 73.6463C131.465 73.3944 131.549 73.1066 131.544 72.7827C131.549 72.4588 131.456 72.171 131.267 71.9191C131.079 71.6672 130.811 71.4715 130.465 71.3321C130.123 71.1926 129.718 71.1229 129.25 71.1229H127.907V68.7479H129.25C129.659 68.7479 130.019 68.6804 130.33 68.5455C130.645 68.4105 130.89 68.2216 131.065 67.9787C131.241 67.7313 131.326 67.4479 131.321 67.1286C131.326 66.8182 131.252 66.5461 131.099 66.3122C130.95 66.0738 130.741 65.8894 130.471 65.7589C130.206 65.6285 129.898 65.5632 129.547 65.5632C129.178 65.5632 128.843 65.6285 128.542 65.7589C128.245 65.8894 128.009 66.0738 127.833 66.3122C127.658 66.5506 127.566 66.8272 127.557 67.1421H124.365C124.374 66.3189 124.604 65.5947 125.053 64.9695C125.503 64.3398 126.115 63.8472 126.889 63.4919C127.667 63.1365 128.553 62.9588 129.547 62.9588C130.537 62.9588 131.407 63.132 132.158 63.4784C132.909 63.8247 133.494 64.297 133.912 64.8953C134.331 65.489 134.54 66.1615 134.54 66.9127C134.544 67.6908 134.29 68.3318 133.777 68.8356C133.269 69.3394 132.615 69.6498 131.814 69.7667V69.8747C132.885 70.0006 133.692 70.347 134.236 70.9137C134.785 71.4805 135.057 72.189 135.053 73.0391C135.053 73.8398 134.816 74.5505 134.344 75.1712C133.876 75.7874 133.224 76.2732 132.388 76.6286C131.555 76.9794 130.6 77.1549 129.52 77.1549Z" fill="#AFADFE"/>
<rect x="27.75" y="98.5" width="76" height="32" rx="16" fill="#F5DCDC"/>
<path fill-rule="evenodd" clip-rule="evenodd" d="M50.2447 119.874C50.2447 120.04 50.308 120.199 50.4206 120.317C50.5332 120.434 50.686 120.5 50.8453 120.5H55.6495C55.8087 120.5 55.9615 120.434 56.0741 120.317C56.1867 120.199 56.25 120.04 56.25 119.874V114.866C56.25 114.7 56.1867 114.54 56.0741 114.423C55.9615 114.305 55.8087 114.24 55.6495 114.24C55.4902 114.24 55.3375 114.305 55.2248 114.423C55.1122 114.54 55.0489 114.7 55.0489 114.866V118.121L50.7095 112.591C50.6564 112.523 50.5903 112.468 50.5155 112.428C50.4406 112.389 50.3587 112.366 50.275 112.362C50.1913 112.358 50.1076 112.372 50.0294 112.403C49.9511 112.434 49.8801 112.482 49.8208 112.544L46.7136 115.783L42.3226 109.489C42.2265 109.362 42.0869 109.278 41.9329 109.256C41.779 109.234 41.6228 109.275 41.4972 109.37C41.3715 109.465 41.2862 109.608 41.2592 109.767C41.2321 109.927 41.2654 110.091 41.3521 110.225L46.1563 117.112C46.2073 117.185 46.2729 117.246 46.3487 117.29C46.4244 117.334 46.5084 117.361 46.5949 117.368C46.6815 117.375 46.7684 117.363 46.8499 117.332C46.9313 117.3 47.0053 117.251 47.0667 117.187L50.2003 113.919L54.3824 119.248H50.8453C50.686 119.248 50.5332 119.314 50.4206 119.431C50.308 119.549 50.2447 119.708 50.2447 119.874Z" fill="#D14F4F"/>
<path d="M67.6999 113.252V114.839H62.7887V113.252H67.6999ZM73.5846 119.649C72.7927 119.649 72.0896 119.516 71.4752 119.25C70.8644 118.983 70.385 118.619 70.037 118.158C69.6926 117.693 69.5221 117.165 69.5257 116.576C69.5221 116.118 69.6215 115.697 69.824 115.313C70.0264 114.93 70.2998 114.61 70.6443 114.354C70.9923 114.095 71.3794 113.93 71.8055 113.859V113.784C71.2444 113.66 70.7899 113.374 70.4419 112.927C70.0974 112.476 69.9269 111.956 69.9305 111.366C69.9269 110.805 70.0832 110.304 70.3992 109.864C70.7153 109.424 71.1485 109.077 71.699 108.825C72.2494 108.57 72.8779 108.442 73.5846 108.442C74.2842 108.442 74.9074 108.57 75.4543 108.825C76.0047 109.077 76.4379 109.424 76.754 109.864C77.0736 110.304 77.2334 110.805 77.2334 111.366C77.2334 111.956 77.0576 112.476 76.7061 112.927C76.358 113.374 75.9088 113.66 75.3584 113.784V113.859C75.7845 113.93 76.1681 114.095 76.509 114.354C76.8534 114.61 77.1269 114.93 77.3293 115.313C77.5352 115.697 77.6382 116.118 77.6382 116.576C77.6382 117.165 77.4642 117.693 77.1162 118.158C76.7682 118.619 76.2888 118.983 75.678 119.25C75.0708 119.516 74.373 119.649 73.5846 119.649ZM73.5846 118.126C73.993 118.126 74.3481 118.056 74.6499 117.918C74.9518 117.776 75.1862 117.577 75.3531 117.321C75.52 117.066 75.6052 116.771 75.6088 116.437C75.6052 116.089 75.5146 115.782 75.3371 115.516C75.1631 115.246 74.9234 115.034 74.618 114.882C74.3161 114.729 73.9717 114.653 73.5846 114.653C73.194 114.653 72.846 114.729 72.5406 114.882C72.2352 115.034 71.9937 115.246 71.8161 115.516C71.6421 115.782 71.5569 116.089 71.5605 116.437C71.5569 116.771 71.6386 117.066 71.8055 117.321C71.9724 117.574 72.2068 117.771 72.5086 117.913C72.814 118.055 73.1727 118.126 73.5846 118.126ZM73.5846 113.156C73.9184 113.156 74.2132 113.088 74.4688 112.954C74.7281 112.819 74.9323 112.63 75.0814 112.389C75.2306 112.147 75.3069 111.869 75.3105 111.553C75.3069 111.24 75.2323 110.967 75.0867 110.732C74.9411 110.494 74.7387 110.311 74.4795 110.184C74.2203 110.052 73.922 109.987 73.5846 109.987C73.2401 109.987 72.9365 110.052 72.6737 110.184C72.4145 110.311 72.2121 110.494 72.0665 110.732C71.9244 110.967 71.8552 111.24 71.8588 111.553C71.8552 111.869 71.9262 112.147 72.0718 112.389C72.221 112.627 72.4252 112.815 72.6844 112.954C72.9472 113.088 73.2472 113.156 73.5846 113.156ZM85.2221 117.455V116.879C85.2221 116.457 85.3109 116.068 85.4885 115.713C85.6696 115.358 85.9324 115.072 86.2768 114.855C86.6213 114.639 87.0385 114.53 87.5286 114.53C88.0328 114.53 88.4554 114.639 88.7963 114.855C89.1373 115.068 89.3947 115.352 89.5687 115.707C89.7463 116.063 89.8351 116.453 89.8351 116.879V117.455C89.8351 117.877 89.7463 118.266 89.5687 118.621C89.3912 118.976 89.1301 119.262 88.7857 119.479C88.4448 119.695 88.0257 119.804 87.5286 119.804C87.0314 119.804 86.6106 119.695 86.2662 119.479C85.9217 119.262 85.6607 118.976 85.4831 118.621C85.3091 118.266 85.2221 117.877 85.2221 117.455ZM86.6124 116.879V117.455C86.6124 117.735 86.6799 117.993 86.8148 118.227C86.9498 118.461 87.1877 118.579 87.5286 118.579C87.873 118.579 88.1092 118.463 88.237 118.232C88.3684 117.998 88.4341 117.739 88.4341 117.455V116.879C88.4341 116.595 88.372 116.336 88.2477 116.102C88.1234 115.864 87.8837 115.745 87.5286 115.745C87.1948 115.745 86.9586 115.864 86.8201 116.102C86.6816 116.336 86.6124 116.595 86.6124 116.879ZM79.677 111.212V110.636C79.677 110.21 79.7676 109.82 79.9487 109.465C80.1298 109.109 80.3926 108.825 80.737 108.612C81.0815 108.396 81.4988 108.287 81.9888 108.287C82.4895 108.287 82.9103 108.396 83.2512 108.612C83.5957 108.825 83.8549 109.109 84.0289 109.465C84.2029 109.82 84.29 110.21 84.29 110.636V111.212C84.29 111.638 84.2012 112.028 84.0236 112.384C83.8496 112.735 83.5904 113.017 83.2459 113.23C82.9015 113.444 82.4824 113.55 81.9888 113.55C81.4881 113.55 81.0655 113.444 80.7211 113.23C80.3801 113.017 80.1209 112.733 79.9434 112.378C79.7658 112.023 79.677 111.634 79.677 111.212ZM81.0779 110.636V111.212C81.0779 111.496 81.1436 111.755 81.275 111.989C81.41 112.22 81.6479 112.336 81.9888 112.336C82.3297 112.336 82.5641 112.22 82.6919 111.989C82.8233 111.755 82.889 111.496 82.889 111.212V110.636C82.889 110.352 82.8269 110.093 82.7026 109.859C82.5783 109.621 82.3404 109.502 81.9888 109.502C81.6515 109.502 81.4153 109.621 81.2804 109.859C81.1454 110.097 81.0779 110.356 81.0779 110.636ZM80.2843 119.5L87.7843 108.591H89.1159L81.6159 119.5H80.2843Z" fill="#D14F4F"/>
</svg>
