<svg width="548" height="448" viewBox="0 0 548 448" fill="none" xmlns="http://www.w3.org/2000/svg">
<rect x="0.5401" y="0.5" width="547.46" height="447.001" rx="20" fill="white"/>
<path d="M31.9801 45.68C30.9134 45.68 29.8601 45.54 28.8201 45.26C27.7801 44.98 26.9334 44.6 26.2801 44.12L27.4601 41.46C28.1534 41.9 28.8868 42.24 29.6601 42.48C30.4468 42.7067 31.2334 42.82 32.0201 42.82C32.8201 42.82 33.4334 42.7133 33.8601 42.5C34.2868 42.2733 34.5001 41.96 34.5001 41.56C34.5001 41.2 34.3068 40.9067 33.9201 40.68C33.5334 40.44 32.8068 40.2067 31.7401 39.98C30.3934 39.7133 29.3468 39.3867 28.6001 39C27.8534 38.6 27.3268 38.1333 27.0201 37.6C26.7268 37.0667 26.5801 36.42 26.5801 35.66C26.5801 34.7933 26.8268 34.0133 27.3201 33.32C27.8134 32.6133 28.5068 32.0667 29.4001 31.68C30.2934 31.28 31.3134 31.08 32.4601 31.08C33.4868 31.08 34.4801 31.2267 35.4401 31.52C36.4134 31.8 37.1734 32.1733 37.7201 32.64L36.5601 35.3C35.9334 34.86 35.2734 34.5267 34.5801 34.3C33.8868 34.06 33.1934 33.94 32.5001 33.94C31.8201 33.94 31.2734 34.0733 30.8601 34.34C30.4468 34.5933 30.2401 34.94 30.2401 35.38C30.2401 35.62 30.3134 35.82 30.4601 35.98C30.6068 36.14 30.8801 36.3 31.2801 36.46C31.6801 36.6067 32.2801 36.7667 33.0801 36.94C34.3734 37.22 35.3868 37.56 36.1201 37.96C36.8668 38.3467 37.3934 38.8067 37.7001 39.34C38.0068 39.86 38.1601 40.4867 38.1601 41.22C38.1601 42.6067 37.6201 43.7 36.5401 44.5C35.4601 45.2867 33.9401 45.68 31.9801 45.68ZM46.3576 35.06C47.2243 35.06 47.9976 35.2867 48.6776 35.74C49.3576 36.1933 49.8909 36.8267 50.2776 37.64C50.6643 38.4533 50.8576 39.3867 50.8576 40.44C50.8576 41.48 50.6643 42.4 50.2776 43.2C49.9043 43.9867 49.3776 44.5933 48.6976 45.02C48.0176 45.4467 47.2376 45.66 46.3576 45.66C45.6909 45.66 45.0843 45.5333 44.5376 45.28C43.9909 45.0133 43.5709 44.6467 43.2776 44.18V49.82H39.6576V38.26C39.6576 37.1667 39.6043 36.1933 39.4976 35.34H42.8976L43.0976 36.92C43.3509 36.36 43.7709 35.9133 44.3576 35.58C44.9443 35.2333 45.6109 35.06 46.3576 35.06ZM45.2576 42.96C45.9109 42.96 46.4043 42.7467 46.7376 42.32C47.0709 41.8933 47.2376 41.2667 47.2376 40.44C47.2376 39.6 47.0643 38.9533 46.7176 38.5C46.3843 38.0333 45.8976 37.8 45.2576 37.8C44.6043 37.8 44.1043 38.02 43.7576 38.46C43.4109 38.9 43.2376 39.5467 43.2376 40.4C43.2376 41.2267 43.4109 41.86 43.7576 42.3C44.1043 42.74 44.6043 42.96 45.2576 42.96ZM61.5282 40.78H55.1482C55.2149 41.5667 55.4416 42.1333 55.8282 42.48C56.2149 42.8267 56.7816 43 57.5282 43C58.0349 43 58.5416 42.92 59.0482 42.76C59.5549 42.5867 60.0149 42.3533 60.4282 42.06L61.3482 44.46C60.8416 44.8333 60.2282 45.1267 59.5082 45.34C58.7882 45.5533 58.0682 45.66 57.3482 45.66C56.1882 45.66 55.1816 45.4467 54.3282 45.02C53.4749 44.5933 52.8216 43.9867 52.3682 43.2C51.9149 42.4 51.6882 41.46 51.6882 40.38C51.6882 39.3533 51.9016 38.44 52.3282 37.64C52.7682 36.8267 53.3682 36.1933 54.1282 35.74C54.9016 35.2867 55.7816 35.06 56.7682 35.06C57.7282 35.06 58.5682 35.2733 59.2882 35.7C60.0082 36.1267 60.5616 36.74 60.9482 37.54C61.3349 38.3267 61.5282 39.2467 61.5282 40.3V40.78ZM56.8682 37.54C55.9749 37.54 55.4149 38.06 55.1882 39.1H58.4282C58.2949 38.06 57.7749 37.54 56.8682 37.54ZM69.6029 35.06C70.8029 35.06 71.6962 35.4267 72.2829 36.16C72.8829 36.88 73.1829 37.9733 73.1829 39.44V45.5H69.5629V39.6C69.5629 38.9733 69.4562 38.5267 69.2429 38.26C69.0296 37.98 68.6962 37.84 68.2429 37.84C67.6962 37.84 67.2562 38.0267 66.9229 38.4C66.5896 38.76 66.4229 39.24 66.4229 39.84V45.5H62.8029V38.26C62.8029 37.1667 62.7496 36.1933 62.6429 35.34H66.0429L66.2229 36.84C66.6096 36.2667 67.0896 35.8267 67.6629 35.52C68.2362 35.2133 68.8829 35.06 69.6029 35.06ZM85.5834 30.78V45.5H82.0234V44.12C81.7301 44.6 81.3034 44.98 80.7434 45.26C80.1834 45.5267 79.57 45.66 78.9034 45.66C78.0367 45.66 77.2634 45.44 76.5834 45C75.9034 44.5467 75.37 43.92 74.9834 43.12C74.61 42.3067 74.4234 41.3733 74.4234 40.32C74.4234 39.28 74.61 38.36 74.9834 37.56C75.37 36.76 75.9034 36.1467 76.5834 35.72C77.2634 35.28 78.0367 35.06 78.9034 35.06C79.5434 35.06 80.13 35.1933 80.6634 35.46C81.21 35.7267 81.6434 36.0867 81.9634 36.54V30.78H85.5834ZM80.0234 42.96C80.6634 42.96 81.1567 42.74 81.5034 42.3C81.85 41.8467 82.0234 41.2 82.0234 40.36C82.0234 39.5467 81.8434 38.92 81.4834 38.48C81.1367 38.0267 80.65 37.8 80.0234 37.8C79.37 37.8 78.87 38.02 78.5234 38.46C78.1767 38.8867 78.0034 39.5067 78.0034 40.32C78.0034 41.16 78.1767 41.8133 78.5234 42.28C78.8834 42.7333 79.3834 42.96 80.0234 42.96ZM87.3349 45.5V35.34H90.9549V45.5H87.3349ZM87.2349 30.36H91.0149V33.62H87.2349V30.36ZM99.5162 35.06C100.716 35.06 101.61 35.4267 102.196 36.16C102.796 36.88 103.096 37.9733 103.096 39.44V45.5H99.4762V39.6C99.4762 38.9733 99.3695 38.5267 99.1562 38.26C98.9429 37.98 98.6095 37.84 98.1562 37.84C97.6095 37.84 97.1695 38.0267 96.8362 38.4C96.5029 38.76 96.3362 39.24 96.3362 39.84V45.5H92.7162V38.26C92.7162 37.1667 92.6629 36.1933 92.5562 35.34H95.9562L96.1362 36.84C96.5229 36.2667 97.0029 35.8267 97.5762 35.52C98.1495 35.2133 98.7962 35.06 99.5162 35.06ZM115.617 35.34V44.86C115.617 46.5267 115.117 47.7933 114.117 48.66C113.117 49.54 111.65 49.98 109.717 49.98C108.063 49.98 106.63 49.6867 105.417 49.1L105.957 46.46C106.557 46.7267 107.17 46.9333 107.797 47.08C108.437 47.24 109.037 47.32 109.597 47.32C110.423 47.32 111.03 47.14 111.417 46.78C111.817 46.4333 112.017 45.8867 112.017 45.14V43.64C111.683 44.08 111.23 44.4533 110.657 44.76C110.097 45.0667 109.497 45.22 108.857 45.22C107.99 45.22 107.21 45.0133 106.517 44.6C105.837 44.1733 105.303 43.58 104.917 42.82C104.53 42.0467 104.337 41.1533 104.337 40.14C104.337 39.14 104.53 38.26 104.917 37.5C105.303 36.7267 105.837 36.1267 106.517 35.7C107.21 35.2733 107.99 35.06 108.857 35.06C109.537 35.06 110.157 35.2 110.717 35.48C111.277 35.76 111.71 36.14 112.017 36.62V35.34H115.617ZM109.977 42.52C110.617 42.52 111.117 42.3133 111.477 41.9C111.837 41.4733 112.017 40.8867 112.017 40.14C112.017 39.42 111.837 38.8533 111.477 38.44C111.117 38.0133 110.617 37.8 109.977 37.8C109.337 37.8 108.83 38.0067 108.457 38.42C108.097 38.8333 107.917 39.4067 107.917 40.14C107.917 40.8733 108.103 41.4533 108.477 41.88C108.85 42.3067 109.35 42.52 109.977 42.52ZM126.147 45.5V34.3H121.907V31.26H134.187V34.3H129.947V45.5H126.147ZM141.901 35.06C143.101 35.06 143.994 35.4267 144.581 36.16C145.181 36.88 145.481 37.9733 145.481 39.44V45.5H141.861V39.6C141.861 38.9733 141.754 38.5267 141.541 38.26C141.327 37.98 140.994 37.84 140.541 37.84C139.994 37.84 139.554 38.0267 139.221 38.4C138.887 38.76 138.721 39.24 138.721 39.84V45.5H135.101V30.78H138.721V36.58C139.507 35.5667 140.567 35.06 141.901 35.06ZM147.181 45.5V35.34H150.801V45.5H147.181ZM147.081 30.36H150.861V33.62H147.081V30.36ZM156.662 45.66C154.636 45.66 153.036 45.2533 151.862 44.44L152.782 41.98C153.329 42.3533 153.949 42.6467 154.642 42.86C155.336 43.06 156.016 43.16 156.682 43.16C157.096 43.16 157.416 43.1 157.642 42.98C157.869 42.86 157.982 42.6933 157.982 42.48C157.982 42.2933 157.896 42.1467 157.722 42.04C157.562 41.92 157.249 41.8133 156.782 41.72L155.142 41.34C154.102 41.1267 153.349 40.7933 152.882 40.34C152.429 39.8733 152.202 39.2333 152.202 38.42C152.202 37.7667 152.396 37.1867 152.782 36.68C153.169 36.1733 153.702 35.78 154.382 35.5C155.076 35.2067 155.869 35.06 156.762 35.06C157.496 35.06 158.216 35.1667 158.922 35.38C159.629 35.5933 160.289 35.8933 160.902 36.28L159.942 38.68C159.409 38.3333 158.862 38.0667 158.302 37.88C157.742 37.6933 157.216 37.6 156.722 37.6C156.322 37.6 156.009 37.6667 155.782 37.8C155.556 37.92 155.442 38.1 155.442 38.34C155.442 38.4867 155.509 38.6067 155.642 38.7C155.776 38.78 156.029 38.8667 156.402 38.96L158.102 39.34C159.182 39.5933 159.956 39.9667 160.422 40.46C160.902 40.94 161.142 41.6 161.142 42.44C161.142 43.44 160.742 44.2267 159.942 44.8C159.156 45.3733 158.062 45.66 156.662 45.66ZM179.4 31.26H182.32V45.5H179.04L179.02 38.98L176.32 45.5H173.94L171.22 39.06V45.5H167.96V31.26H170.9L175.16 40.98L179.4 31.26ZM189.451 45.66C188.318 45.66 187.331 45.4467 186.491 45.02C185.651 44.5933 185.004 43.98 184.551 43.18C184.098 42.38 183.871 41.44 183.871 40.36C183.871 39.28 184.098 38.34 184.551 37.54C185.004 36.74 185.651 36.1267 186.491 35.7C187.331 35.2733 188.318 35.06 189.451 35.06C190.571 35.06 191.544 35.28 192.371 35.72C193.211 36.1467 193.858 36.76 194.311 37.56C194.764 38.3467 194.991 39.28 194.991 40.36C194.991 41.44 194.764 42.38 194.311 43.18C193.858 43.9667 193.211 44.58 192.371 45.02C191.544 45.4467 190.571 45.66 189.451 45.66ZM189.451 42.96C190.758 42.96 191.411 42.0933 191.411 40.36C191.411 39.48 191.244 38.8333 190.911 38.42C190.591 37.9933 190.104 37.78 189.451 37.78C188.784 37.78 188.284 37.9933 187.951 38.42C187.618 38.8333 187.451 39.48 187.451 40.36C187.451 41.2533 187.618 41.9133 187.951 42.34C188.284 42.7533 188.784 42.96 189.451 42.96ZM203.094 35.06C204.294 35.06 205.188 35.4267 205.774 36.16C206.374 36.88 206.674 37.9733 206.674 39.44V45.5H203.054V39.6C203.054 38.9733 202.948 38.5267 202.734 38.26C202.521 37.98 202.188 37.84 201.734 37.84C201.188 37.84 200.748 38.0267 200.414 38.4C200.081 38.76 199.914 39.24 199.914 39.84V45.5H196.294V38.26C196.294 37.1667 196.241 36.1933 196.134 35.34H199.534L199.714 36.84C200.101 36.2667 200.581 35.8267 201.154 35.52C201.728 35.2133 202.374 35.06 203.094 35.06ZM214.375 42.74C214.615 42.74 214.935 42.7 215.335 42.62V45.36C214.841 45.56 214.215 45.66 213.455 45.66C212.081 45.66 211.035 45.2733 210.315 44.5C209.608 43.7267 209.255 42.6533 209.255 41.28V38H207.355V35.34H209.255V33.04L212.875 31.88V35.34H215.315V38H212.875V41.28C212.875 41.76 213.015 42.1267 213.295 42.38C213.588 42.62 213.948 42.74 214.375 42.74ZM223.095 35.06C224.295 35.06 225.188 35.4267 225.775 36.16C226.375 36.88 226.675 37.9733 226.675 39.44V45.5H223.055V39.6C223.055 38.9733 222.948 38.5267 222.735 38.26C222.522 37.98 222.188 37.84 221.735 37.84C221.188 37.84 220.748 38.0267 220.415 38.4C220.082 38.76 219.915 39.24 219.915 39.84V45.5H216.295V30.78H219.915V36.58C220.702 35.5667 221.762 35.06 223.095 35.06Z" fill="black"/>
<path d="M503.5 40.3438C502.903 40.3438 502.331 40.0968 501.909 39.6573C501.487 39.2177 501.25 38.6216 501.25 38C501.25 37.3784 501.487 36.7823 501.909 36.3427C502.331 35.9032 502.903 35.6562 503.5 35.6562C504.097 35.6562 504.669 35.9032 505.091 36.3427C505.513 36.7823 505.75 37.3784 505.75 38C505.75 38.6216 505.513 39.2177 505.091 39.6573C504.669 40.0968 504.097 40.3438 503.5 40.3438ZM511 40.3438C510.403 40.3438 509.831 40.0968 509.409 39.6573C508.987 39.2177 508.75 38.6216 508.75 38C508.75 37.3784 508.987 36.7823 509.409 36.3427C509.831 35.9032 510.403 35.6562 511 35.6562C511.597 35.6562 512.169 35.9032 512.591 36.3427C513.013 36.7823 513.25 37.3784 513.25 38C513.25 38.6216 513.013 39.2177 512.591 39.6573C512.169 40.0968 511.597 40.3438 511 40.3438ZM518.5 40.3438C517.903 40.3438 517.331 40.0968 516.909 39.6573C516.487 39.2177 516.25 38.6216 516.25 38C516.25 37.3784 516.487 36.7823 516.909 36.3427C517.331 35.9032 517.903 35.6562 518.5 35.6562C519.097 35.6562 519.669 35.9032 520.091 36.3427C520.513 36.7823 520.75 37.3784 520.75 38C520.75 38.6216 520.513 39.2177 520.091 39.6573C519.669 40.0968 519.097 40.3438 518.5 40.3438Z" fill="#A1A0BD"/>
<rect x="28.7701" y="406.001" width="37" height="13" rx="6.5" fill="#4C49ED"/>
<path d="M80.0021 407.109H84.9461C86.1727 407.109 87.1274 407.407 87.8101 408.005C88.4927 408.591 88.8341 409.397 88.8341 410.421C88.8341 411.445 88.4874 412.255 87.7941 412.853C87.1114 413.45 86.1621 413.749 84.9461 413.749H82.0661V418.501H80.0021V407.109ZM84.7061 412.149C85.4207 412.149 85.9594 412.005 86.3221 411.717C86.6954 411.418 86.8821 410.991 86.8821 410.437C86.8821 409.871 86.7007 409.445 86.3381 409.157C85.9754 408.858 85.4314 408.709 84.7061 408.709H82.0661V412.149H84.7061ZM96.9694 414.565H91.4014C91.4441 415.429 91.6574 416.069 92.0414 416.485C92.4361 416.89 93.0174 417.093 93.7854 417.093C94.6708 417.093 95.4921 416.805 96.2494 416.229L96.8254 417.605C96.4414 417.914 95.9668 418.165 95.4014 418.357C94.8468 418.538 94.2814 418.629 93.7054 418.629C92.3828 418.629 91.3428 418.255 90.5854 417.509C89.8281 416.762 89.4494 415.738 89.4494 414.437C89.4494 413.615 89.6148 412.885 89.9454 412.245C90.2761 411.605 90.7401 411.109 91.3374 410.757C91.9348 410.394 92.6121 410.213 93.3694 410.213C94.4788 410.213 95.3534 410.575 95.9934 411.301C96.6441 412.015 96.9694 413.002 96.9694 414.261V414.565ZM93.4174 411.653C92.8841 411.653 92.4468 411.813 92.1054 412.133C91.7748 412.442 91.5614 412.895 91.4654 413.493H95.2254C95.1614 412.885 94.9748 412.426 94.6654 412.117C94.3668 411.807 93.9508 411.653 93.4174 411.653ZM102.695 410.229C103.004 410.229 103.271 410.271 103.495 410.357L103.479 412.181C103.138 412.042 102.786 411.973 102.423 411.973C101.74 411.973 101.218 412.17 100.855 412.565C100.503 412.959 100.327 413.482 100.327 414.133V418.501H98.3431V412.709C98.3431 411.855 98.3004 411.093 98.2151 410.421H100.087L100.247 411.845C100.45 411.322 100.77 410.922 101.207 410.645C101.644 410.367 102.14 410.229 102.695 410.229ZM107.171 418.629C105.709 418.629 104.547 418.287 103.683 417.605L104.243 416.197C105.107 416.837 106.093 417.157 107.203 417.157C107.683 417.157 108.051 417.077 108.307 416.917C108.573 416.757 108.707 416.533 108.707 416.245C108.707 415.999 108.616 415.807 108.435 415.669C108.253 415.519 107.944 415.391 107.507 415.285L106.163 414.981C104.691 414.661 103.955 413.909 103.955 412.725C103.955 412.234 104.093 411.802 104.371 411.429C104.648 411.045 105.037 410.746 105.539 410.533C106.04 410.319 106.621 410.213 107.283 410.213C107.859 410.213 108.413 410.303 108.947 410.485C109.48 410.655 109.949 410.906 110.355 411.237L109.763 412.597C108.952 411.999 108.12 411.701 107.267 411.701C106.808 411.701 106.451 411.786 106.195 411.957C105.939 412.127 105.811 412.362 105.811 412.661C105.811 412.895 105.885 413.082 106.035 413.221C106.195 413.359 106.461 413.477 106.835 413.573L108.211 413.877C109.011 414.058 109.592 414.341 109.955 414.725C110.328 415.098 110.515 415.589 110.515 416.197C110.515 416.943 110.216 417.535 109.619 417.973C109.021 418.41 108.205 418.629 107.171 418.629ZM115.57 418.629C114.749 418.629 114.024 418.458 113.394 418.117C112.776 417.775 112.296 417.29 111.954 416.661C111.624 416.021 111.458 415.274 111.458 414.421C111.458 413.567 111.624 412.826 111.954 412.197C112.296 411.557 112.776 411.066 113.394 410.725C114.024 410.383 114.749 410.213 115.57 410.213C116.381 410.213 117.096 410.383 117.714 410.725C118.333 411.066 118.808 411.557 119.138 412.197C119.48 412.826 119.65 413.567 119.65 414.421C119.65 415.274 119.48 416.021 119.138 416.661C118.808 417.29 118.333 417.775 117.714 418.117C117.096 418.458 116.381 418.629 115.57 418.629ZM115.554 417.061C116.237 417.061 116.754 416.842 117.106 416.405C117.469 415.957 117.65 415.295 117.65 414.421C117.65 413.557 117.469 412.901 117.106 412.453C116.744 411.994 116.232 411.765 115.57 411.765C114.898 411.765 114.381 411.994 114.018 412.453C113.656 412.901 113.474 413.557 113.474 414.421C113.474 415.295 113.65 415.957 114.002 416.405C114.365 416.842 114.882 417.061 115.554 417.061ZM125.679 410.213C127.61 410.213 128.575 411.322 128.575 413.541V418.501H126.575V413.637C126.575 412.997 126.452 412.533 126.207 412.245C125.962 411.946 125.583 411.797 125.071 411.797C124.463 411.797 123.972 411.994 123.599 412.389C123.226 412.773 123.039 413.285 123.039 413.925V418.501H121.055V412.709C121.055 411.855 121.012 411.093 120.927 410.421H122.799L122.943 411.749C123.22 411.258 123.594 410.879 124.063 410.613C124.543 410.346 125.082 410.213 125.679 410.213ZM138.104 410.421V418.501H136.136V417.205C135.89 417.653 135.538 418.005 135.08 418.261C134.621 418.506 134.098 418.629 133.512 418.629C132.808 418.629 132.184 418.458 131.64 418.117C131.096 417.775 130.674 417.29 130.376 416.661C130.077 416.031 129.928 415.301 129.928 414.469C129.928 413.637 130.077 412.901 130.376 412.261C130.685 411.61 131.112 411.109 131.656 410.757C132.2 410.394 132.818 410.213 133.512 410.213C134.098 410.213 134.621 410.341 135.08 410.597C135.538 410.842 135.89 411.189 136.136 411.637V410.421H138.104ZM134.056 417.061C134.717 417.061 135.229 416.831 135.592 416.373C135.954 415.914 136.136 415.269 136.136 414.437C136.136 413.583 135.954 412.927 135.592 412.469C135.229 412.01 134.712 411.781 134.04 411.781C133.378 411.781 132.861 412.021 132.488 412.501C132.125 412.97 131.944 413.626 131.944 414.469C131.944 415.301 132.125 415.941 132.488 416.389C132.861 416.837 133.384 417.061 134.056 417.061ZM139.962 418.501V406.725H141.946V418.501H139.962Z" fill="#938FA3"/>
<rect x="164.77" y="406.001" width="37" height="13" rx="6.5" fill="#9D9BF4"/>
<path d="M219.858 418.645C218.983 418.645 218.162 418.527 217.394 418.293C216.637 418.058 215.991 417.722 215.458 417.285L216.162 415.781C216.717 416.197 217.293 416.506 217.89 416.709C218.498 416.901 219.159 416.997 219.874 416.997C220.663 416.997 221.271 416.858 221.698 416.581C222.135 416.303 222.354 415.914 222.354 415.413C222.354 414.986 222.151 414.661 221.746 414.437C221.351 414.202 220.695 413.983 219.778 413.781C218.349 413.471 217.309 413.071 216.658 412.581C216.007 412.09 215.682 411.375 215.682 410.437C215.682 409.765 215.863 409.167 216.226 408.645C216.589 408.122 217.101 407.711 217.762 407.413C218.434 407.114 219.207 406.965 220.082 406.965C220.882 406.965 221.639 407.087 222.354 407.333C223.079 407.567 223.671 407.898 224.13 408.325L223.442 409.829C222.429 409.018 221.309 408.613 220.082 408.613C219.346 408.613 218.765 408.767 218.338 409.077C217.911 409.375 217.698 409.786 217.698 410.309C217.698 410.757 217.885 411.098 218.258 411.333C218.642 411.567 219.293 411.786 220.21 411.989C221.159 412.213 221.933 412.458 222.53 412.725C223.127 412.981 223.586 413.317 223.906 413.733C224.226 414.138 224.386 414.65 224.386 415.269C224.386 415.951 224.205 416.549 223.842 417.061C223.479 417.562 222.957 417.951 222.274 418.229C221.591 418.506 220.786 418.645 219.858 418.645ZM230.459 410.213C232.39 410.213 233.355 411.322 233.355 413.541V418.501H231.355V413.637C231.355 412.997 231.232 412.533 230.987 412.245C230.742 411.946 230.363 411.797 229.851 411.797C229.243 411.797 228.752 411.994 228.379 412.389C228.006 412.773 227.819 413.285 227.819 413.925V418.501H225.835V406.725H227.819V411.589C228.096 411.151 228.464 410.815 228.923 410.581C229.382 410.335 229.894 410.213 230.459 410.213ZM238.82 418.629C237.998 418.629 237.273 418.458 236.644 418.117C236.025 417.775 235.545 417.29 235.204 416.661C234.873 416.021 234.708 415.274 234.708 414.421C234.708 413.567 234.873 412.826 235.204 412.197C235.545 411.557 236.025 411.066 236.644 410.725C237.273 410.383 237.998 410.213 238.82 410.213C239.63 410.213 240.345 410.383 240.964 410.725C241.582 411.066 242.057 411.557 242.388 412.197C242.729 412.826 242.9 413.567 242.9 414.421C242.9 415.274 242.729 416.021 242.388 416.661C242.057 417.29 241.582 417.775 240.964 418.117C240.345 418.458 239.63 418.629 238.82 418.629ZM238.804 417.061C239.486 417.061 240.004 416.842 240.356 416.405C240.718 415.957 240.9 415.295 240.9 414.421C240.9 413.557 240.718 412.901 240.356 412.453C239.993 411.994 239.481 411.765 238.82 411.765C238.148 411.765 237.63 411.994 237.268 412.453C236.905 412.901 236.724 413.557 236.724 414.421C236.724 415.295 236.9 415.957 237.252 416.405C237.614 416.842 238.132 417.061 238.804 417.061ZM248.912 410.213C249.606 410.213 250.219 410.394 250.752 410.757C251.296 411.109 251.718 411.61 252.016 412.261C252.326 412.901 252.48 413.637 252.48 414.469C252.48 415.301 252.331 416.031 252.032 416.661C251.734 417.29 251.312 417.775 250.768 418.117C250.235 418.458 249.616 418.629 248.912 418.629C248.326 418.629 247.803 418.506 247.344 418.261C246.886 418.005 246.534 417.653 246.288 417.205V421.957H244.304V412.709C244.304 411.855 244.262 411.093 244.176 410.421H246.048L246.208 411.813C246.422 411.311 246.768 410.922 247.248 410.645C247.728 410.357 248.283 410.213 248.912 410.213ZM248.368 417.061C249.04 417.061 249.558 416.837 249.92 416.389C250.283 415.941 250.464 415.301 250.464 414.469C250.464 413.626 250.283 412.97 249.92 412.501C249.558 412.021 249.046 411.781 248.384 411.781C247.702 411.781 247.179 412.01 246.816 412.469C246.454 412.927 246.272 413.583 246.272 414.437C246.272 415.279 246.454 415.93 246.816 416.389C247.179 416.837 247.696 417.061 248.368 417.061ZM258.514 410.213C259.208 410.213 259.821 410.394 260.354 410.757C260.898 411.109 261.32 411.61 261.618 412.261C261.928 412.901 262.082 413.637 262.082 414.469C262.082 415.301 261.933 416.031 261.634 416.661C261.336 417.29 260.914 417.775 260.37 418.117C259.837 418.458 259.218 418.629 258.514 418.629C257.928 418.629 257.405 418.506 256.946 418.261C256.488 418.005 256.136 417.653 255.89 417.205V421.957H253.906V412.709C253.906 411.855 253.864 411.093 253.778 410.421H255.65L255.81 411.813C256.024 411.311 256.37 410.922 256.85 410.645C257.33 410.357 257.885 410.213 258.514 410.213ZM257.97 417.061C258.642 417.061 259.16 416.837 259.522 416.389C259.885 415.941 260.066 415.301 260.066 414.469C260.066 413.626 259.885 412.97 259.522 412.501C259.16 412.021 258.648 411.781 257.986 411.781C257.304 411.781 256.781 412.01 256.418 412.469C256.056 412.927 255.874 413.583 255.874 414.437C255.874 415.279 256.056 415.93 256.418 416.389C256.781 416.837 257.298 417.061 257.97 417.061ZM263.508 418.501V410.421H265.492V418.501H263.508ZM263.38 406.757H265.604V408.725H263.38V406.757ZM271.984 410.213C273.915 410.213 274.88 411.322 274.88 413.541V418.501H272.88V413.637C272.88 412.997 272.757 412.533 272.512 412.245C272.267 411.946 271.888 411.797 271.376 411.797C270.768 411.797 270.277 411.994 269.904 412.389C269.531 412.773 269.344 413.285 269.344 413.925V418.501H267.36V412.709C267.36 411.855 267.317 411.093 267.232 410.421H269.104L269.248 411.749C269.525 411.258 269.899 410.879 270.368 410.613C270.848 410.346 271.387 410.213 271.984 410.213ZM284.489 410.421V418.245C284.489 419.503 284.142 420.458 283.449 421.109C282.755 421.759 281.737 422.085 280.393 422.085C279.145 422.085 278.046 421.823 277.097 421.301L277.417 419.781C278.398 420.293 279.374 420.549 280.345 420.549C281.785 420.549 282.505 419.834 282.505 418.405V416.805C282.259 417.242 281.902 417.599 281.433 417.877C280.963 418.143 280.435 418.277 279.849 418.277C279.145 418.277 278.515 418.111 277.961 417.781C277.417 417.439 276.99 416.965 276.681 416.357C276.382 415.738 276.233 415.034 276.233 414.245C276.233 413.455 276.382 412.757 276.681 412.149C276.99 411.53 277.417 411.055 277.961 410.725C278.515 410.383 279.145 410.213 279.849 410.213C280.446 410.213 280.974 410.341 281.433 410.597C281.902 410.842 282.259 411.189 282.505 411.637V410.421H284.489ZM280.377 416.709C281.038 416.709 281.555 416.49 281.929 416.053C282.313 415.615 282.505 415.013 282.505 414.245C282.505 413.477 282.318 412.874 281.945 412.437C281.571 411.999 281.049 411.781 280.377 411.781C279.715 411.781 279.193 411.999 278.809 412.437C278.435 412.874 278.249 413.477 278.249 414.245C278.249 415.013 278.435 415.615 278.809 416.053C279.193 416.49 279.715 416.709 280.377 416.709Z" fill="#938FA3"/>
<rect x="307.77" y="406.001" width="37" height="13" rx="6.5" fill="#4FD18B"/>
<path d="M359.002 407.109H363.946C365.173 407.109 366.127 407.407 366.81 408.005C367.493 408.591 367.834 409.397 367.834 410.421C367.834 411.445 367.487 412.255 366.794 412.853C366.111 413.45 365.162 413.749 363.946 413.749H361.066V418.501H359.002V407.109ZM363.706 412.149C364.421 412.149 364.959 412.005 365.322 411.717C365.695 411.418 365.882 410.991 365.882 410.437C365.882 409.871 365.701 409.445 365.338 409.157C364.975 408.858 364.431 408.709 363.706 408.709H361.066V412.149H363.706ZM373.818 410.213C375.749 410.213 376.714 411.322 376.714 413.541V418.501H374.714V413.637C374.714 412.997 374.592 412.533 374.346 412.245C374.101 411.946 373.722 411.797 373.21 411.797C372.602 411.797 372.112 411.994 371.738 412.389C371.365 412.773 371.178 413.285 371.178 413.925V418.501H369.194V406.725H371.178V411.589C371.456 411.151 371.824 410.815 372.282 410.581C372.741 410.335 373.253 410.213 373.818 410.213ZM382.179 418.629C381.358 418.629 380.632 418.458 380.003 418.117C379.384 417.775 378.904 417.29 378.563 416.661C378.232 416.021 378.067 415.274 378.067 414.421C378.067 413.567 378.232 412.826 378.563 412.197C378.904 411.557 379.384 411.066 380.003 410.725C380.632 410.383 381.358 410.213 382.179 410.213C382.99 410.213 383.704 410.383 384.323 410.725C384.942 411.066 385.416 411.557 385.747 412.197C386.088 412.826 386.259 413.567 386.259 414.421C386.259 415.274 386.088 416.021 385.747 416.661C385.416 417.29 384.942 417.775 384.323 418.117C383.704 418.458 382.99 418.629 382.179 418.629ZM382.163 417.061C382.846 417.061 383.363 416.842 383.715 416.405C384.078 415.957 384.259 415.295 384.259 414.421C384.259 413.557 384.078 412.901 383.715 412.453C383.352 411.994 382.84 411.765 382.179 411.765C381.507 411.765 380.99 411.994 380.627 412.453C380.264 412.901 380.083 413.557 380.083 414.421C380.083 415.295 380.259 415.957 380.611 416.405C380.974 416.842 381.491 417.061 382.163 417.061ZM392.288 410.213C394.218 410.213 395.184 411.322 395.184 413.541V418.501H393.184V413.637C393.184 412.997 393.061 412.533 392.816 412.245C392.57 411.946 392.192 411.797 391.68 411.797C391.072 411.797 390.581 411.994 390.208 412.389C389.834 412.773 389.648 413.285 389.648 413.925V418.501H387.664V412.709C387.664 411.855 387.621 411.093 387.536 410.421H389.408L389.552 411.749C389.829 411.258 390.202 410.879 390.672 410.613C391.152 410.346 391.69 410.213 392.288 410.213ZM404.056 414.565H398.488C398.531 415.429 398.744 416.069 399.128 416.485C399.523 416.89 400.104 417.093 400.872 417.093C401.758 417.093 402.579 416.805 403.336 416.229L403.912 417.605C403.528 417.914 403.054 418.165 402.488 418.357C401.934 418.538 401.368 418.629 400.792 418.629C399.47 418.629 398.43 418.255 397.672 417.509C396.915 416.762 396.536 415.738 396.536 414.437C396.536 413.615 396.702 412.885 397.032 412.245C397.363 411.605 397.827 411.109 398.424 410.757C399.022 410.394 399.699 410.213 400.456 410.213C401.566 410.213 402.44 410.575 403.08 411.301C403.731 412.015 404.056 413.002 404.056 414.261V414.565ZM400.504 411.653C399.971 411.653 399.534 411.813 399.192 412.133C398.862 412.442 398.648 412.895 398.552 413.493H402.312C402.248 412.885 402.062 412.426 401.752 412.117C401.454 411.807 401.038 411.653 400.504 411.653Z" fill="#938FA3"/>
<rect x="426.77" y="406.001" width="37" height="13" rx="6.5" fill="#141197"/>
<path d="M483.058 418.645C481.959 418.645 480.999 418.41 480.178 417.941C479.367 417.461 478.738 416.783 478.29 415.909C477.853 415.023 477.634 413.983 477.634 412.789C477.634 411.605 477.853 410.575 478.29 409.701C478.727 408.815 479.351 408.138 480.162 407.669C480.983 407.199 481.949 406.965 483.058 406.965C484.167 406.965 485.127 407.199 485.938 407.669C486.759 408.138 487.383 408.815 487.81 409.701C488.247 410.575 488.466 411.605 488.466 412.789C488.466 413.983 488.247 415.023 487.81 415.909C487.373 416.783 486.749 417.461 485.938 417.941C485.127 418.41 484.167 418.645 483.058 418.645ZM483.058 416.997C484.114 416.997 484.935 416.634 485.522 415.909C486.109 415.183 486.402 414.143 486.402 412.789C486.402 411.445 486.109 410.415 485.522 409.701C484.935 408.975 484.114 408.613 483.058 408.613C482.002 408.613 481.181 408.97 480.594 409.685C480.007 410.399 479.714 411.434 479.714 412.789C479.714 414.143 480.007 415.183 480.594 415.909C481.181 416.634 482.002 416.997 483.058 416.997ZM492.66 411.925V415.541C492.66 416.49 493.103 416.965 493.988 416.965C494.233 416.965 494.5 416.922 494.788 416.837V418.421C494.436 418.549 494.009 418.613 493.508 418.613C492.591 418.613 491.887 418.357 491.396 417.845C490.905 417.333 490.66 416.597 490.66 415.637V411.925H489.108V410.421H490.66V408.453L492.66 407.781V410.421H494.804V411.925H492.66ZM500.483 410.213C502.413 410.213 503.379 411.322 503.379 413.541V418.501H501.379V413.637C501.379 412.997 501.256 412.533 501.011 412.245C500.765 411.946 500.387 411.797 499.875 411.797C499.267 411.797 498.776 411.994 498.403 412.389C498.029 412.773 497.843 413.285 497.843 413.925V418.501H495.859V406.725H497.843V411.589C498.12 411.151 498.488 410.815 498.947 410.581C499.405 410.335 499.917 410.213 500.483 410.213ZM512.251 414.565H506.683C506.726 415.429 506.939 416.069 507.323 416.485C507.718 416.89 508.299 417.093 509.067 417.093C509.953 417.093 510.774 416.805 511.531 416.229L512.107 417.605C511.723 417.914 511.249 418.165 510.683 418.357C510.129 418.538 509.563 418.629 508.987 418.629C507.665 418.629 506.625 418.255 505.867 417.509C505.11 416.762 504.731 415.738 504.731 414.437C504.731 413.615 504.897 412.885 505.227 412.245C505.558 411.605 506.022 411.109 506.619 410.757C507.217 410.394 507.894 410.213 508.651 410.213C509.761 410.213 510.635 410.575 511.275 411.301C511.926 412.015 512.251 413.002 512.251 414.261V414.565ZM508.699 411.653C508.166 411.653 507.729 411.813 507.387 412.133C507.057 412.442 506.843 412.895 506.747 413.493H510.507C510.443 412.885 510.257 412.426 509.947 412.117C509.649 411.807 509.233 411.653 508.699 411.653ZM517.977 410.229C518.286 410.229 518.553 410.271 518.777 410.357L518.761 412.181C518.42 412.042 518.068 411.973 517.705 411.973C517.022 411.973 516.5 412.17 516.137 412.565C515.785 412.959 515.609 413.482 515.609 414.133V418.501H513.625V412.709C513.625 411.855 513.582 411.093 513.497 410.421H515.369L515.529 411.845C515.732 411.322 516.052 410.922 516.489 410.645C516.926 410.367 517.422 410.229 517.977 410.229Z" fill="#938FA3"/>
<path d="M274.54 358.5C239.835 358.5 206.525 344.832 181.823 320.455C157.12 296.077 143.012 262.952 142.552 228.25L168.949 227.9C169.317 255.662 180.604 282.162 200.366 301.664C220.128 321.166 246.776 332.1 274.54 332.1V358.5Z" fill="#141197"/>
<path d="M208.656 112.385C228.664 100.833 251.357 94.7449 274.46 94.7309C297.564 94.7169 320.265 100.778 340.287 112.305C360.309 123.832 376.948 140.422 388.536 160.409C400.124 180.396 406.253 203.078 406.309 226.181L379.955 226.245C379.91 207.763 375.007 189.617 365.737 173.627C356.466 157.637 343.155 144.366 327.137 135.144C311.12 125.922 292.959 121.074 274.476 121.085C255.994 121.096 237.839 125.966 221.832 135.208L208.656 112.385Z" fill="#4C49ED"/>
<path d="M406.533 227.888C406.17 262.431 392.279 295.456 367.843 319.874C343.406 344.292 310.371 358.157 275.827 358.494L275.57 332.095C303.205 331.826 329.633 320.733 349.182 301.199C368.731 281.665 379.844 255.245 380.134 227.61L406.533 227.888Z" fill="#4FD18B"/>
<path d="M142.771 226.5C142.771 203.59 148.744 181.076 160.101 161.179C171.458 141.282 187.806 124.69 207.533 113.04L220.934 135.732C205.153 145.052 192.074 158.326 182.989 174.243C173.903 190.161 169.125 208.172 169.125 226.5H142.771Z" fill="#9D9BF4"/>
<path d="M210.395 238.591V197.682H213.016V238.591H210.395ZM216.707 211.585C216.6 210.413 216.126 209.502 215.285 208.852C214.454 208.191 213.266 207.861 211.721 207.861C210.698 207.861 209.846 207.994 209.164 208.261C208.483 208.527 207.971 208.895 207.63 209.363C207.289 209.821 207.114 210.349 207.103 210.945C207.082 211.435 207.178 211.867 207.391 212.24C207.614 212.613 207.934 212.943 208.349 213.23C208.776 213.507 209.287 213.752 209.883 213.966C210.48 214.179 211.151 214.365 211.897 214.525L214.709 215.164C216.329 215.516 217.756 215.984 218.992 216.57C220.239 217.156 221.283 217.854 222.124 218.664C222.977 219.473 223.621 220.406 224.058 221.46C224.495 222.515 224.718 223.697 224.729 225.008C224.718 227.075 224.196 228.848 223.163 230.329C222.13 231.81 220.643 232.945 218.705 233.733C216.776 234.521 214.448 234.915 211.721 234.915C208.983 234.915 206.597 234.505 204.562 233.685C202.527 232.865 200.945 231.618 199.816 229.946C198.687 228.273 198.106 226.158 198.074 223.602H205.649C205.713 224.656 205.995 225.535 206.496 226.238C206.996 226.941 207.684 227.474 208.557 227.836C209.441 228.199 210.464 228.38 211.625 228.38C212.691 228.38 213.596 228.236 214.342 227.948C215.098 227.661 215.679 227.261 216.084 226.75C216.489 226.238 216.696 225.652 216.707 224.992C216.696 224.374 216.505 223.847 216.132 223.41C215.759 222.962 215.184 222.579 214.406 222.259C213.639 221.929 212.659 221.625 211.466 221.348L208.046 220.549C205.212 219.9 202.98 218.85 201.35 217.401C199.72 215.942 198.91 213.971 198.921 211.489C198.91 209.464 199.454 207.691 200.551 206.167C201.648 204.644 203.167 203.456 205.105 202.604C207.044 201.751 209.255 201.325 211.737 201.325C214.273 201.325 216.473 201.757 218.337 202.62C220.212 203.472 221.666 204.67 222.7 206.215C223.733 207.76 224.26 209.55 224.282 211.585H216.707ZM253.461 201.773V234.5H245.567V209.156H245.375L238.056 213.63V206.79L246.126 201.773H253.461ZM273.145 234.947C270.652 234.947 268.441 234.521 266.513 233.669C264.595 232.806 263.083 231.618 261.975 230.105C260.867 228.593 260.302 226.851 260.281 224.88H268.239C268.271 225.594 268.5 226.228 268.926 226.782C269.352 227.325 269.933 227.751 270.668 228.06C271.403 228.369 272.239 228.523 273.177 228.523C274.114 228.523 274.94 228.358 275.654 228.028C276.378 227.687 276.943 227.224 277.348 226.638C277.752 226.041 277.949 225.359 277.939 224.592C277.949 223.825 277.731 223.143 277.284 222.547C276.836 221.95 276.202 221.487 275.382 221.157C274.572 220.826 273.614 220.661 272.506 220.661H269.326V215.036H272.506C273.475 215.036 274.327 214.876 275.062 214.557C275.808 214.237 276.389 213.79 276.804 213.214C277.22 212.629 277.422 211.957 277.411 211.201C277.422 210.466 277.246 209.821 276.884 209.267C276.533 208.703 276.037 208.266 275.398 207.957C274.769 207.648 274.04 207.494 273.209 207.494C272.335 207.494 271.541 207.648 270.828 207.957C270.125 208.266 269.565 208.703 269.15 209.267C268.734 209.832 268.516 210.487 268.495 211.233H260.936C260.957 209.283 261.501 207.568 262.566 206.087C263.631 204.596 265.08 203.429 266.913 202.588C268.756 201.746 270.854 201.325 273.209 201.325C275.552 201.325 277.614 201.735 279.393 202.556C281.172 203.376 282.557 204.495 283.548 205.912C284.539 207.318 285.034 208.911 285.034 210.69C285.045 212.533 284.443 214.051 283.228 215.244C282.024 216.437 280.474 217.172 278.578 217.449V217.705C281.114 218.003 283.026 218.824 284.315 220.166C285.615 221.508 286.259 223.186 286.248 225.2C286.248 227.096 285.689 228.779 284.571 230.249C283.463 231.709 281.918 232.859 279.936 233.701C277.965 234.532 275.702 234.947 273.145 234.947ZM303.495 234.947C300.949 234.947 298.674 234.543 296.671 233.733C294.679 232.913 293.113 231.805 291.973 230.409C290.844 229.003 290.279 227.415 290.279 225.647C290.279 224.294 290.604 223.053 291.254 221.924C291.904 220.794 292.783 219.857 293.891 219.111C295.01 218.355 296.256 217.87 297.63 217.657V217.401C295.83 217.071 294.354 216.235 293.204 214.892C292.064 213.55 291.494 211.979 291.494 210.178C291.494 208.474 292.011 206.956 293.044 205.624C294.088 204.292 295.51 203.243 297.311 202.476C299.122 201.709 301.183 201.325 303.495 201.325C305.807 201.325 307.863 201.709 309.663 202.476C311.474 203.243 312.897 204.292 313.93 205.624C314.974 206.956 315.496 208.474 315.496 210.178C315.496 211.989 314.915 213.566 313.754 214.908C312.604 216.24 311.139 217.071 309.36 217.401V217.657C310.723 217.87 311.959 218.355 313.067 219.111C314.186 219.857 315.07 220.794 315.72 221.924C316.38 223.053 316.711 224.294 316.711 225.647C316.711 227.415 316.141 229.003 315.001 230.409C313.861 231.805 312.295 232.913 310.303 233.733C308.321 234.543 306.052 234.947 303.495 234.947ZM303.495 229.338C304.464 229.338 305.317 229.157 306.052 228.795C306.787 228.422 307.362 227.906 307.778 227.245C308.204 226.585 308.417 225.839 308.417 225.008C308.417 224.156 308.204 223.399 307.778 222.739C307.352 222.078 306.766 221.561 306.02 221.189C305.285 220.805 304.443 220.613 303.495 220.613C302.558 220.613 301.716 220.805 300.97 221.189C300.224 221.561 299.638 222.078 299.212 222.739C298.786 223.399 298.573 224.156 298.573 225.008C298.573 225.839 298.781 226.585 299.196 227.245C299.622 227.895 300.203 228.406 300.938 228.779C301.684 229.152 302.536 229.338 303.495 229.338ZM303.495 215.036C304.326 215.036 305.061 214.866 305.7 214.525C306.35 214.184 306.856 213.71 307.218 213.103C307.591 212.495 307.778 211.808 307.778 211.041C307.778 210.274 307.591 209.598 307.218 209.012C306.856 208.426 306.355 207.968 305.716 207.637C305.077 207.297 304.337 207.126 303.495 207.126C302.664 207.126 301.924 207.297 301.274 207.637C300.624 207.968 300.118 208.426 299.756 209.012C299.393 209.598 299.212 210.274 299.212 211.041C299.212 211.808 299.393 212.495 299.756 213.103C300.129 213.699 300.64 214.173 301.29 214.525C301.94 214.866 302.675 215.036 303.495 215.036Z" fill="#111111"/>
<path d="M321.609 234.696C321.124 234.696 320.707 234.525 320.361 234.183C320.019 233.841 319.851 233.427 319.855 232.941C319.851 232.465 320.019 232.058 320.361 231.72C320.707 231.378 321.124 231.207 321.609 231.207C322.068 231.207 322.473 231.378 322.824 231.72C323.179 232.058 323.359 232.465 323.364 232.941C323.359 233.265 323.274 233.56 323.107 233.825C322.945 234.091 322.732 234.302 322.466 234.46C322.205 234.617 321.92 234.696 321.609 234.696ZM330.637 234.837C329.432 234.837 328.392 234.552 327.52 233.98C326.647 233.405 325.975 232.579 325.502 231.504C325.03 230.425 324.796 229.127 324.801 227.611C324.805 226.095 325.041 224.809 325.509 223.752C325.982 222.69 326.652 221.883 327.52 221.33C328.392 220.772 329.432 220.493 330.637 220.493C331.843 220.493 332.882 220.772 333.754 221.33C334.631 221.883 335.306 222.69 335.778 223.752C336.251 224.813 336.485 226.1 336.48 227.611C336.48 229.132 336.244 230.431 335.772 231.511C335.299 232.591 334.627 233.416 333.754 233.987C332.886 234.554 331.847 234.837 330.637 234.837ZM330.637 232.105C331.357 232.105 331.939 231.738 332.385 231.005C332.83 230.267 333.05 229.136 333.046 227.611C333.046 226.613 332.945 225.789 332.742 225.142C332.54 224.489 332.259 224.004 331.899 223.684C331.539 223.365 331.118 223.205 330.637 223.205C329.922 223.205 329.344 223.567 328.903 224.292C328.462 225.011 328.24 226.118 328.235 227.611C328.231 228.623 328.327 229.462 328.525 230.128C328.728 230.794 329.011 231.291 329.375 231.619C329.74 231.943 330.16 232.105 330.637 232.105ZM344.108 234.837C342.902 234.837 341.863 234.552 340.991 233.98C340.118 233.405 339.445 232.579 338.973 231.504C338.501 230.425 338.267 229.127 338.271 227.611C338.276 226.095 338.512 224.809 338.98 223.752C339.452 222.69 340.122 221.883 340.991 221.33C341.863 220.772 342.902 220.493 344.108 220.493C345.313 220.493 346.352 220.772 347.225 221.33C348.102 221.883 348.777 222.69 349.249 223.752C349.721 224.813 349.955 226.1 349.951 227.611C349.951 229.132 349.715 230.431 349.242 231.511C348.77 232.591 348.098 233.416 347.225 233.987C346.357 234.554 345.318 234.837 344.108 234.837ZM344.108 232.105C344.827 232.105 345.41 231.738 345.855 231.005C346.301 230.267 346.521 229.136 346.516 227.611C346.516 226.613 346.415 225.789 346.213 225.142C346.01 224.489 345.729 224.004 345.369 223.684C345.01 223.365 344.589 223.205 344.108 223.205C343.393 223.205 342.815 223.567 342.374 224.292C341.933 225.011 341.71 226.118 341.706 227.611C341.701 228.623 341.798 229.462 341.996 230.128C342.198 230.794 342.482 231.291 342.846 231.619C343.21 231.943 343.631 232.105 344.108 232.105Z" fill="#AFADFE"/>
<path opacity="0.5" d="M200.404 257.608C199.764 257.608 199.132 257.524 198.508 257.356C197.884 257.188 197.376 256.96 196.984 256.672L197.692 255.076C198.108 255.34 198.548 255.544 199.012 255.688C199.484 255.824 199.956 255.892 200.428 255.892C200.908 255.892 201.276 255.828 201.532 255.7C201.788 255.564 201.916 255.376 201.916 255.136C201.916 254.92 201.8 254.744 201.568 254.608C201.336 254.464 200.9 254.324 200.26 254.188C199.452 254.028 198.824 253.832 198.376 253.6C197.928 253.36 197.612 253.08 197.428 252.76C197.252 252.44 197.164 252.052 197.164 251.596C197.164 251.076 197.312 250.608 197.608 250.192C197.904 249.768 198.32 249.44 198.856 249.208C199.392 248.968 200.004 248.848 200.692 248.848C201.308 248.848 201.904 248.936 202.48 249.112C203.064 249.28 203.52 249.504 203.848 249.784L203.152 251.38C202.776 251.116 202.38 250.916 201.964 250.78C201.548 250.636 201.132 250.564 200.716 250.564C200.308 250.564 199.98 250.644 199.732 250.804C199.484 250.956 199.36 251.164 199.36 251.428C199.36 251.572 199.404 251.692 199.492 251.788C199.58 251.884 199.744 251.98 199.984 252.076C200.224 252.164 200.584 252.26 201.064 252.364C201.84 252.532 202.448 252.736 202.888 252.976C203.336 253.208 203.652 253.484 203.836 253.804C204.02 254.116 204.112 254.492 204.112 254.932C204.112 255.764 203.788 256.42 203.14 256.9C202.492 257.372 201.58 257.608 200.404 257.608ZM207.411 248.956H211.479C212.455 248.956 213.211 249.192 213.747 249.664C214.283 250.128 214.551 250.76 214.551 251.56C214.551 252.352 214.279 252.984 213.735 253.456C213.191 253.928 212.439 254.164 211.479 254.164H209.667V257.5H207.411V248.956ZM211.179 252.484C212.027 252.484 212.451 252.184 212.451 251.584C212.451 251.28 212.347 251.052 212.139 250.9C211.939 250.74 211.619 250.66 211.179 250.66H209.667V252.484H211.179ZM217.665 257.5V248.956H223.761V250.684H219.861V252.292H223.509V254.02H219.861V255.772H223.761V257.5H217.665ZM232.468 248.956H234.592V257.5H232.924L229.048 252.652V257.5H226.948V248.956H228.592L232.468 253.78V248.956ZM238.175 248.956H241.667C242.611 248.956 243.423 249.128 244.103 249.472C244.791 249.808 245.315 250.296 245.675 250.936C246.043 251.576 246.227 252.336 246.227 253.216C246.227 254.104 246.047 254.872 245.687 255.52C245.327 256.16 244.803 256.652 244.115 256.996C243.435 257.332 242.619 257.5 241.667 257.5H238.175V248.956ZM241.511 255.7C242.343 255.7 242.963 255.496 243.371 255.088C243.787 254.672 243.995 254.048 243.995 253.216C243.995 251.576 243.167 250.756 241.511 250.756H240.431V255.7H241.511ZM257.031 257.5V250.78H254.487V248.956H261.855V250.78H259.311V257.5H257.031ZM270.467 248.956H272.675V257.5H270.467V254.044H267.011V257.5H264.803V248.956H267.011V252.28H270.467V248.956ZM276.253 257.5V248.956H278.509V257.5H276.253ZM285.186 257.608C284.546 257.608 283.914 257.524 283.29 257.356C282.666 257.188 282.158 256.96 281.766 256.672L282.474 255.076C282.89 255.34 283.33 255.544 283.794 255.688C284.266 255.824 284.738 255.892 285.21 255.892C285.69 255.892 286.058 255.828 286.314 255.7C286.57 255.564 286.698 255.376 286.698 255.136C286.698 254.92 286.582 254.744 286.35 254.608C286.118 254.464 285.682 254.324 285.042 254.188C284.234 254.028 283.606 253.832 283.158 253.6C282.71 253.36 282.394 253.08 282.21 252.76C282.034 252.44 281.946 252.052 281.946 251.596C281.946 251.076 282.094 250.608 282.39 250.192C282.686 249.768 283.102 249.44 283.638 249.208C284.174 248.968 284.786 248.848 285.474 248.848C286.09 248.848 286.686 248.936 287.262 249.112C287.846 249.28 288.302 249.504 288.63 249.784L287.934 251.38C287.558 251.116 287.162 250.916 286.746 250.78C286.33 250.636 285.914 250.564 285.498 250.564C285.09 250.564 284.762 250.644 284.514 250.804C284.266 250.956 284.142 251.164 284.142 251.428C284.142 251.572 284.186 251.692 284.274 251.788C284.362 251.884 284.526 251.98 284.766 252.076C285.006 252.164 285.366 252.26 285.846 252.364C286.622 252.532 287.23 252.736 287.67 252.976C288.118 253.208 288.434 253.484 288.618 253.804C288.802 254.116 288.894 254.492 288.894 254.932C288.894 255.764 288.57 256.42 287.922 256.9C287.274 257.372 286.362 257.608 285.186 257.608ZM304.613 248.956H306.365V257.5H304.397L304.385 253.588L302.765 257.5H301.337L299.705 253.636V257.5H297.749V248.956H299.513L302.069 254.788L304.613 248.956ZM314.04 257.608C313.168 257.608 312.408 257.432 311.76 257.08C311.112 256.72 310.612 256.208 310.26 255.544C309.916 254.88 309.744 254.104 309.744 253.216C309.744 252.328 309.92 251.556 310.272 250.9C310.624 250.244 311.12 249.74 311.76 249.388C312.408 249.028 313.168 248.848 314.04 248.848C314.912 248.848 315.668 249.028 316.308 249.388C316.956 249.74 317.452 250.244 317.796 250.9C318.14 251.556 318.312 252.328 318.312 253.216C318.312 254.104 318.14 254.88 317.796 255.544C317.452 256.208 316.956 256.72 316.308 257.08C315.668 257.432 314.912 257.608 314.04 257.608ZM314.04 255.892C314.68 255.892 315.18 255.664 315.54 255.208C315.908 254.752 316.092 254.088 316.092 253.216C316.092 252.352 315.908 251.696 315.54 251.248C315.18 250.792 314.68 250.564 314.04 250.564C313.4 250.564 312.9 250.788 312.54 251.236C312.18 251.684 312 252.344 312 253.216C312 254.096 312.18 254.764 312.54 255.22C312.9 255.668 313.4 255.892 314.04 255.892ZM327.188 248.956H329.312V257.5H327.644L323.768 252.652V257.5H321.668V248.956H323.312L327.188 253.78V248.956ZM334.815 257.5V250.78H332.271V248.956H339.639V250.78H337.095V257.5H334.815ZM348.252 248.956H350.46V257.5H348.252V254.044H344.796V257.5H342.588V248.956H344.796V252.28H348.252V248.956Z" fill="#AFADFE"/>
</svg>
