<svg width="624" height="344" viewBox="0 0 624 344" fill="none" xmlns="http://www.w3.org/2000/svg">
<g filter="url(#filter0_d_2_10)">
<g clip-path="url(#clip0_2_10)">
<rect x="30" y="25" width="547.46" height="267.392" rx="20" fill="white"/>
<rect x="342" y="4" width="300" height="304" rx="150" fill="#4C49ED"/>
<path d="M404.855 165.091V124.182H407.475V165.091H404.855ZM411.167 138.085C411.06 136.913 410.586 136.002 409.745 135.352C408.914 134.691 407.726 134.361 406.181 134.361C405.158 134.361 404.306 134.494 403.624 134.761C402.942 135.027 402.431 135.395 402.09 135.863C401.749 136.321 401.574 136.849 401.563 137.445C401.542 137.935 401.637 138.367 401.85 138.74C402.074 139.113 402.394 139.443 402.809 139.73C403.235 140.007 403.747 140.252 404.343 140.466C404.94 140.679 405.611 140.865 406.357 141.025L409.169 141.664C410.789 142.016 412.216 142.484 413.452 143.07C414.699 143.656 415.743 144.354 416.584 145.164C417.436 145.973 418.081 146.906 418.518 147.96C418.955 149.015 419.178 150.197 419.189 151.508C419.178 153.575 418.656 155.348 417.623 156.829C416.589 158.31 415.103 159.445 413.164 160.233C411.236 161.021 408.908 161.415 406.181 161.415C403.443 161.415 401.057 161.005 399.022 160.185C396.987 159.365 395.405 158.118 394.276 156.446C393.147 154.773 392.566 152.658 392.534 150.102H400.109C400.173 151.156 400.455 152.035 400.956 152.738C401.456 153.441 402.143 153.974 403.017 154.336C403.901 154.699 404.924 154.88 406.085 154.88C407.151 154.88 408.056 154.736 408.802 154.448C409.558 154.161 410.139 153.761 410.544 153.25C410.949 152.738 411.156 152.152 411.167 151.492C411.156 150.874 410.964 150.347 410.592 149.91C410.219 149.462 409.643 149.079 408.866 148.759C408.099 148.429 407.119 148.125 405.925 147.848L402.506 147.049C399.672 146.4 397.44 145.35 395.81 143.901C394.18 142.442 393.37 140.471 393.381 137.989C393.37 135.964 393.914 134.191 395.011 132.667C396.108 131.144 397.626 129.956 399.565 129.104C401.504 128.251 403.715 127.825 406.197 127.825C408.733 127.825 410.933 128.257 412.797 129.12C414.672 129.972 416.126 131.17 417.159 132.715C418.193 134.26 418.72 136.05 418.741 138.085H411.167ZM432.788 161V155.311L444.725 144.86C445.62 144.05 446.382 143.31 447.01 142.639C447.639 141.957 448.118 141.275 448.449 140.593C448.779 139.901 448.944 139.15 448.944 138.34C448.944 137.435 448.747 136.662 448.353 136.023C447.958 135.373 447.415 134.873 446.723 134.521C446.03 134.169 445.237 133.994 444.342 133.994C443.436 133.994 442.642 134.18 441.961 134.553C441.279 134.915 440.746 135.442 440.363 136.135C439.99 136.827 439.803 137.669 439.803 138.66H432.309C432.309 136.433 432.809 134.51 433.811 132.891C434.812 131.272 436.218 130.025 438.029 129.152C439.851 128.267 441.966 127.825 444.374 127.825C446.856 127.825 449.013 128.241 450.846 129.072C452.678 129.903 454.095 131.064 455.096 132.555C456.108 134.036 456.614 135.757 456.614 137.717C456.614 138.963 456.364 140.199 455.863 141.424C455.363 142.65 454.462 144.002 453.163 145.483C451.874 146.964 450.041 148.738 447.665 150.805L443.75 154.416V154.624H457.014V161H432.788ZM475.019 161.799C472.164 161.799 469.703 161.123 467.637 159.77C465.57 158.406 463.977 156.451 462.859 153.905C461.74 151.348 461.186 148.275 461.197 144.684C461.207 141.094 461.767 138.047 462.875 135.544C463.993 133.029 465.581 131.117 467.637 129.807C469.703 128.486 472.164 127.825 475.019 127.825C477.875 127.825 480.335 128.486 482.402 129.807C484.48 131.117 486.078 133.029 487.196 135.544C488.315 138.058 488.869 141.105 488.858 144.684C488.858 148.285 488.299 151.364 487.18 153.921C486.062 156.478 484.469 158.433 482.402 159.786C480.346 161.128 477.885 161.799 475.019 161.799ZM475.019 155.327C476.724 155.327 478.104 154.459 479.158 152.722C480.213 150.975 480.735 148.296 480.724 144.684C480.724 142.319 480.485 140.37 480.005 138.836C479.526 137.291 478.86 136.14 478.008 135.384C477.155 134.627 476.159 134.249 475.019 134.249C473.326 134.249 471.957 135.107 470.913 136.822C469.869 138.527 469.341 141.147 469.331 144.684C469.32 147.081 469.549 149.068 470.018 150.645C470.497 152.222 471.168 153.399 472.031 154.176C472.894 154.944 473.89 155.327 475.019 155.327ZM506.924 161.799C504.069 161.799 501.608 161.123 499.541 159.77C497.474 158.406 495.881 156.451 494.763 153.905C493.644 151.348 493.09 148.275 493.101 144.684C493.112 141.094 493.671 138.047 494.779 135.544C495.897 133.029 497.485 131.117 499.541 129.807C501.608 128.486 504.069 127.825 506.924 127.825C509.779 127.825 512.24 128.486 514.307 129.807C516.384 131.117 517.982 133.029 519.101 135.544C520.219 138.058 520.773 141.105 520.763 144.684C520.763 148.285 520.203 151.364 519.085 153.921C517.966 156.478 516.373 158.433 514.307 159.786C512.25 161.128 509.79 161.799 506.924 161.799ZM506.924 155.327C508.628 155.327 510.008 154.459 511.063 152.722C512.117 150.975 512.639 148.296 512.629 144.684C512.629 142.319 512.389 140.37 511.91 138.836C511.43 137.291 510.764 136.14 509.912 135.384C509.06 134.627 508.064 134.249 506.924 134.249C505.23 134.249 503.861 135.107 502.817 136.822C501.773 138.527 501.245 141.147 501.235 144.684C501.224 147.081 501.453 149.068 501.922 150.645C502.401 152.222 503.073 153.399 503.935 154.176C504.798 154.944 505.794 155.327 506.924 155.327Z" fill="white"/>
<path d="M525.781 161.196C525.295 161.196 524.879 161.025 524.533 160.683C524.191 160.341 524.022 159.927 524.027 159.441C524.022 158.965 524.191 158.558 524.533 158.22C524.879 157.878 525.295 157.707 525.781 157.707C526.24 157.707 526.645 157.878 526.996 158.22C527.351 158.558 527.531 158.965 527.535 159.441C527.531 159.765 527.445 160.06 527.279 160.325C527.117 160.591 526.903 160.802 526.638 160.96C526.377 161.117 526.092 161.196 525.781 161.196ZM534.922 161.189C533.914 161.189 533.019 161.007 532.237 160.642C531.454 160.278 530.835 159.777 530.381 159.138C529.931 158.499 529.697 157.766 529.679 156.938H532.918C532.945 157.446 533.152 157.856 533.539 158.166C533.926 158.472 534.387 158.625 534.922 158.625C535.34 158.625 535.711 158.533 536.035 158.348C536.359 158.164 536.613 157.905 536.798 157.572C536.982 157.235 537.072 156.848 537.067 156.412C537.072 155.967 536.98 155.578 536.791 155.245C536.606 154.912 536.35 154.653 536.022 154.469C535.698 154.28 535.324 154.185 534.902 154.185C534.501 154.181 534.121 154.269 533.761 154.449C533.406 154.628 533.136 154.874 532.952 155.184L530.003 154.631L530.604 147.182H539.469V149.874H533.35L533.033 153.133H533.114C533.343 152.75 533.712 152.436 534.22 152.188C534.733 151.936 535.315 151.81 535.968 151.81C536.795 151.81 537.533 152.004 538.181 152.391C538.833 152.773 539.346 153.304 539.719 153.983C540.097 154.662 540.286 155.44 540.286 156.317C540.286 157.267 540.061 158.108 539.611 158.841C539.166 159.574 538.541 160.15 537.735 160.568C536.935 160.982 535.997 161.189 534.922 161.189ZM547.517 161.189C546.442 161.189 545.482 161.018 544.636 160.676C543.795 160.33 543.134 159.862 542.652 159.273C542.176 158.679 541.937 158.009 541.937 157.262C541.937 156.691 542.074 156.167 542.349 155.69C542.623 155.213 542.994 154.817 543.462 154.502C543.934 154.183 544.461 153.978 545.041 153.888V153.781C544.281 153.641 543.658 153.288 543.172 152.721C542.691 152.154 542.45 151.491 542.45 150.731C542.45 150.011 542.668 149.37 543.104 148.808C543.545 148.246 544.146 147.803 544.906 147.479C545.671 147.155 546.541 146.993 547.517 146.993C548.493 146.993 549.361 147.155 550.122 147.479C550.886 147.803 551.487 148.246 551.923 148.808C552.364 149.37 552.584 150.011 552.584 150.731C552.584 151.496 552.339 152.161 551.849 152.728C551.363 153.29 550.745 153.641 549.993 153.781V153.888C550.569 153.978 551.091 154.183 551.559 154.502C552.031 154.817 552.404 155.213 552.679 155.69C552.958 156.167 553.097 156.691 553.097 157.262C553.097 158.009 552.856 158.679 552.375 159.273C551.894 159.862 551.233 160.33 550.391 160.676C549.555 161.018 548.597 161.189 547.517 161.189ZM547.517 158.821C547.926 158.821 548.286 158.744 548.597 158.591C548.907 158.434 549.15 158.216 549.325 157.937C549.505 157.658 549.595 157.343 549.595 156.992C549.595 156.632 549.505 156.313 549.325 156.034C549.145 155.755 548.898 155.537 548.583 155.38C548.273 155.218 547.917 155.137 547.517 155.137C547.121 155.137 546.766 155.218 546.451 155.38C546.136 155.537 545.889 155.755 545.709 156.034C545.529 156.313 545.439 156.632 545.439 156.992C545.439 157.343 545.527 157.658 545.702 157.937C545.882 158.211 546.127 158.427 546.438 158.585C546.752 158.742 547.112 158.821 547.517 158.821ZM547.517 152.782C547.868 152.782 548.178 152.71 548.448 152.566C548.723 152.422 548.936 152.222 549.089 151.966C549.247 151.709 549.325 151.419 549.325 151.095C549.325 150.771 549.247 150.486 549.089 150.238C548.936 149.991 548.725 149.797 548.455 149.658C548.185 149.514 547.872 149.442 547.517 149.442C547.166 149.442 546.854 149.514 546.579 149.658C546.305 149.797 546.091 149.991 545.938 150.238C545.785 150.486 545.709 150.771 545.709 151.095C545.709 151.419 545.785 151.709 545.938 151.966C546.096 152.217 546.312 152.418 546.586 152.566C546.86 152.71 547.171 152.782 547.517 152.782Z" fill="white" fill-opacity="0.31"/>
<path opacity="0.5" d="M402.304 179.456H404.44L401.38 188H399.592L397.804 182.924L395.98 188H394.192L391.144 179.456H393.436L395.188 184.844L397.096 179.456H398.632L400.468 184.94L402.304 179.456ZM413.027 188L412.271 186.236H408.479L407.723 188H405.467L409.463 179.456H411.239L415.247 188H413.027ZM409.211 184.544H411.539L410.375 181.844L409.211 184.544ZM417.774 188V179.456H420.03V186.176H423.642V188H417.774ZM426.763 188V179.456H429.019V186.176H432.631V188H426.763ZM435.752 188V179.456H441.848V181.184H437.948V182.792H441.596V184.52H437.948V186.272H441.848V188H435.752ZM447.154 188V181.28H444.61V179.456H451.978V181.28H449.434V188H447.154ZM457.799 188.108C457.159 188.108 456.527 188.024 455.903 187.856C455.279 187.688 454.771 187.46 454.379 187.172L455.087 185.576C455.503 185.84 455.943 186.044 456.407 186.188C456.879 186.324 457.351 186.392 457.823 186.392C458.303 186.392 458.671 186.328 458.927 186.2C459.183 186.064 459.311 185.876 459.311 185.636C459.311 185.42 459.195 185.244 458.963 185.108C458.731 184.964 458.295 184.824 457.655 184.688C456.847 184.528 456.219 184.332 455.771 184.1C455.323 183.86 455.007 183.58 454.823 183.26C454.647 182.94 454.559 182.552 454.559 182.096C454.559 181.576 454.707 181.108 455.003 180.692C455.299 180.268 455.715 179.94 456.251 179.708C456.787 179.468 457.399 179.348 458.087 179.348C458.703 179.348 459.299 179.436 459.875 179.612C460.459 179.78 460.915 180.004 461.243 180.284L460.547 181.88C460.171 181.616 459.775 181.416 459.359 181.28C458.943 181.136 458.527 181.064 458.111 181.064C457.703 181.064 457.375 181.144 457.127 181.304C456.879 181.456 456.755 181.664 456.755 181.928C456.755 182.072 456.799 182.192 456.887 182.288C456.975 182.384 457.139 182.48 457.379 182.576C457.619 182.664 457.979 182.76 458.459 182.864C459.235 183.032 459.843 183.236 460.283 183.476C460.731 183.708 461.047 183.984 461.231 184.304C461.415 184.616 461.507 184.992 461.507 185.432C461.507 186.264 461.183 186.92 460.535 187.4C459.887 187.872 458.975 188.108 457.799 188.108ZM476.842 188L476.086 186.236H472.294L471.538 188H469.282L473.278 179.456H475.054L479.062 188H476.842ZM473.026 184.544H475.354L474.19 181.844L473.026 184.544ZM488.489 179.456H490.241V188H488.273L488.261 184.088L486.641 188H485.213L483.581 184.136V188H481.625V179.456H483.389L485.945 185.288L488.489 179.456ZM497.916 188.108C497.044 188.108 496.284 187.932 495.636 187.58C494.988 187.22 494.488 186.708 494.136 186.044C493.792 185.38 493.62 184.604 493.62 183.716C493.62 182.828 493.796 182.056 494.148 181.4C494.5 180.744 494.996 180.24 495.636 179.888C496.284 179.528 497.044 179.348 497.916 179.348C498.788 179.348 499.544 179.528 500.184 179.888C500.832 180.24 501.328 180.744 501.672 181.4C502.016 182.056 502.188 182.828 502.188 183.716C502.188 184.604 502.016 185.38 501.672 186.044C501.328 186.708 500.832 187.22 500.184 187.58C499.544 187.932 498.788 188.108 497.916 188.108ZM497.916 186.392C498.556 186.392 499.056 186.164 499.416 185.708C499.784 185.252 499.968 184.588 499.968 183.716C499.968 182.852 499.784 182.196 499.416 181.748C499.056 181.292 498.556 181.064 497.916 181.064C497.276 181.064 496.776 181.288 496.416 181.736C496.056 182.184 495.876 182.844 495.876 183.716C495.876 184.596 496.056 185.264 496.416 185.72C496.776 186.168 497.276 186.392 497.916 186.392ZM509.3 188.108C508.052 188.108 507.108 187.796 506.468 187.172C505.828 186.54 505.508 185.616 505.508 184.4V179.456H507.704V184.484C507.704 185.1 507.84 185.572 508.112 185.9C508.392 186.228 508.788 186.392 509.3 186.392C509.804 186.392 510.192 186.228 510.464 185.9C510.736 185.564 510.872 185.092 510.872 184.484V179.456H513.092V184.4C513.092 185.6 512.764 186.52 512.108 187.16C511.46 187.792 510.524 188.108 509.3 188.108ZM522.127 179.456H524.251V188H522.583L518.707 183.152V188H516.607V179.456H518.251L522.127 184.28V179.456ZM529.755 188V181.28H527.211V179.456H534.579V181.28H532.035V188H529.755Z" fill="white"/>
<path d="M71.6 113V99H66.3V95.2H81.65V99H76.35V113H71.6ZM87.6416 113.2C86.2249 113.2 84.9916 112.933 83.9416 112.4C82.8916 111.867 82.0833 111.1 81.5166 110.1C80.9499 109.1 80.6666 107.925 80.6666 106.575C80.6666 105.225 80.9499 104.05 81.5166 103.05C82.0833 102.05 82.8916 101.283 83.9416 100.75C84.9916 100.217 86.2249 99.95 87.6416 99.95C89.0416 99.95 90.2583 100.225 91.2916 100.775C92.3416 101.308 93.1499 102.075 93.7166 103.075C94.2833 104.058 94.5666 105.225 94.5666 106.575C94.5666 107.925 94.2833 109.1 93.7166 110.1C93.1499 111.083 92.3416 111.85 91.2916 112.4C90.2583 112.933 89.0416 113.2 87.6416 113.2ZM87.6416 109.825C89.2749 109.825 90.0916 108.742 90.0916 106.575C90.0916 105.475 89.8833 104.667 89.4666 104.15C89.0666 103.617 88.4583 103.35 87.6416 103.35C86.8083 103.35 86.1833 103.617 85.7666 104.15C85.3499 104.667 85.1416 105.475 85.1416 106.575C85.1416 107.692 85.3499 108.517 85.7666 109.05C86.1833 109.567 86.8083 109.825 87.6416 109.825ZM104.049 109.55C104.349 109.55 104.749 109.5 105.249 109.4V112.825C104.633 113.075 103.849 113.2 102.899 113.2C101.183 113.2 99.8742 112.717 98.9742 111.75C98.0909 110.783 97.6492 109.442 97.6492 107.725V103.625H95.2742V100.3H97.6492V97.425L102.174 95.975V100.3H105.224V103.625H102.174V107.725C102.174 108.325 102.349 108.783 102.699 109.1C103.066 109.4 103.516 109.55 104.049 109.55ZM120.325 100.3V113H115.875V111.275C115.508 111.875 114.975 112.35 114.275 112.7C113.575 113.033 112.808 113.2 111.975 113.2C110.891 113.2 109.925 112.933 109.075 112.4C108.225 111.867 107.558 111.108 107.075 110.125C106.608 109.125 106.375 107.975 106.375 106.675C106.375 105.358 106.616 104.192 107.1 103.175C107.583 102.158 108.25 101.367 109.1 100.8C109.95 100.233 110.908 99.95 111.975 99.95C112.808 99.95 113.566 100.133 114.25 100.5C114.95 100.85 115.491 101.325 115.875 101.925V100.3H120.325ZM113.375 109.825C114.175 109.825 114.791 109.55 115.225 109C115.658 108.45 115.875 107.658 115.875 106.625C115.875 105.575 115.658 104.775 115.225 104.225C114.791 103.658 114.175 103.375 113.375 103.375C112.591 103.375 111.975 103.667 111.525 104.25C111.075 104.817 110.85 105.625 110.85 106.675C110.85 107.692 111.066 108.475 111.5 109.025C111.933 109.558 112.558 109.825 113.375 109.825ZM123.014 113V94.6H127.539V113H123.014ZM149.717 103.775C150.767 104.075 151.575 104.608 152.142 105.375C152.708 106.125 152.992 107.042 152.992 108.125C152.992 109.108 152.733 109.967 152.217 110.7C151.7 111.433 150.958 112 149.992 112.4C149.042 112.8 147.917 113 146.617 113H137.742V95.2H146.392C148.258 95.2 149.742 95.6167 150.842 96.45C151.942 97.2833 152.492 98.4083 152.492 99.825C152.492 100.742 152.25 101.55 151.767 102.25C151.283 102.95 150.6 103.458 149.717 103.775ZM142.317 102.175H145.592C146.458 102.175 147.092 102.042 147.492 101.775C147.892 101.508 148.092 101.083 148.092 100.5C148.092 99.9 147.883 99.4583 147.467 99.175C147.067 98.8917 146.442 98.75 145.592 98.75H142.317V102.175ZM146.067 109.45C146.967 109.45 147.608 109.308 147.992 109.025C148.392 108.742 148.592 108.267 148.592 107.6C148.592 106.917 148.4 106.433 148.017 106.15C147.633 105.867 146.983 105.725 146.067 105.725H142.317V109.45H146.067ZM168.42 100.3V113H163.97V111.275C163.604 111.875 163.07 112.35 162.37 112.7C161.67 113.033 160.904 113.2 160.07 113.2C158.987 113.2 158.02 112.933 157.17 112.4C156.32 111.867 155.654 111.108 155.17 110.125C154.704 109.125 154.47 107.975 154.47 106.675C154.47 105.358 154.712 104.192 155.195 103.175C155.679 102.158 156.345 101.367 157.195 100.8C158.045 100.233 159.004 99.95 160.07 99.95C160.904 99.95 161.662 100.133 162.345 100.5C163.045 100.85 163.587 101.325 163.97 101.925V100.3H168.42ZM161.47 109.825C162.27 109.825 162.887 109.55 163.32 109C163.754 108.45 163.97 107.658 163.97 106.625C163.97 105.575 163.754 104.775 163.32 104.225C162.887 103.658 162.27 103.375 161.47 103.375C160.687 103.375 160.07 103.667 159.62 104.25C159.17 104.817 158.945 105.625 158.945 106.675C158.945 107.692 159.162 108.475 159.595 109.025C160.029 109.558 160.654 109.825 161.47 109.825ZM171.11 113V94.6H175.635V113H171.11ZM178.336 113V94.6H182.861V113H178.336ZM198.938 100.3V113H194.488V111.275C194.121 111.875 193.588 112.35 192.888 112.7C192.188 113.033 191.421 113.2 190.588 113.2C189.505 113.2 188.538 112.933 187.688 112.4C186.838 111.867 186.171 111.108 185.688 110.125C185.221 109.125 184.988 107.975 184.988 106.675C184.988 105.358 185.23 104.192 185.713 103.175C186.196 102.158 186.863 101.367 187.713 100.8C188.563 100.233 189.521 99.95 190.588 99.95C191.421 99.95 192.18 100.133 192.863 100.5C193.563 100.85 194.105 101.325 194.488 101.925V100.3H198.938ZM191.988 109.825C192.788 109.825 193.405 109.55 193.838 109C194.271 108.45 194.488 107.658 194.488 106.625C194.488 105.575 194.271 104.775 193.838 104.225C193.405 103.658 192.788 103.375 191.988 103.375C191.205 103.375 190.588 103.667 190.138 104.25C189.688 104.817 189.463 105.625 189.463 106.675C189.463 107.692 189.68 108.475 190.113 109.025C190.546 109.558 191.171 109.825 191.988 109.825ZM210.127 99.95C211.627 99.95 212.744 100.408 213.477 101.325C214.227 102.225 214.602 103.592 214.602 105.425V113H210.077V105.625C210.077 104.842 209.944 104.283 209.677 103.95C209.411 103.6 208.994 103.425 208.427 103.425C207.744 103.425 207.194 103.658 206.777 104.125C206.361 104.575 206.152 105.175 206.152 105.925V113H201.627V103.95C201.627 102.583 201.561 101.367 201.427 100.3H205.677L205.902 102.175C206.386 101.458 206.986 100.908 207.702 100.525C208.419 100.142 209.227 99.95 210.127 99.95ZM223.528 113.2C221.378 113.2 219.695 112.617 218.478 111.45C217.261 110.283 216.653 108.692 216.653 106.675C216.653 105.342 216.945 104.167 217.528 103.15C218.128 102.133 218.961 101.35 220.028 100.8C221.095 100.233 222.328 99.95 223.728 99.95C224.661 99.95 225.578 100.092 226.478 100.375C227.378 100.642 228.095 101.008 228.628 101.475L227.478 104.6C227.028 104.233 226.503 103.942 225.903 103.725C225.303 103.508 224.728 103.4 224.178 103.4C223.245 103.4 222.528 103.667 222.028 104.2C221.528 104.733 221.278 105.525 221.278 106.575C221.278 107.642 221.528 108.45 222.028 109C222.528 109.533 223.253 109.8 224.203 109.8C224.753 109.8 225.32 109.692 225.903 109.475C226.503 109.258 227.028 108.967 227.478 108.6L228.628 111.675C228.078 112.158 227.345 112.533 226.428 112.8C225.528 113.067 224.561 113.2 223.528 113.2ZM241.819 107.1H233.844C233.927 108.083 234.211 108.792 234.694 109.225C235.177 109.658 235.886 109.875 236.819 109.875C237.452 109.875 238.086 109.775 238.719 109.575C239.352 109.358 239.927 109.067 240.444 108.7L241.594 111.7C240.961 112.167 240.194 112.533 239.294 112.8C238.394 113.067 237.494 113.2 236.594 113.2C235.144 113.2 233.886 112.933 232.819 112.4C231.752 111.867 230.936 111.108 230.369 110.125C229.802 109.125 229.519 107.95 229.519 106.6C229.519 105.317 229.786 104.175 230.319 103.175C230.869 102.158 231.619 101.367 232.569 100.8C233.536 100.233 234.636 99.95 235.869 99.95C237.069 99.95 238.119 100.217 239.019 100.75C239.919 101.283 240.611 102.05 241.094 103.05C241.577 104.033 241.819 105.183 241.819 106.5V107.1ZM235.994 103.05C234.877 103.05 234.177 103.7 233.894 105H237.944C237.777 103.7 237.127 103.05 235.994 103.05Z" fill="black"/>
<path d="M72.2482 155.167V143.34H75.5398V155.167H72.2482ZM67.9766 150.903V147.612H79.8033V150.903H67.9766ZM93.8128 158.091V137.182H95.1523V158.091H93.8128ZM97.039 144.288C96.9845 143.689 96.7422 143.223 96.3121 142.891C95.8873 142.553 95.2802 142.385 94.4907 142.385C93.968 142.385 93.5323 142.453 93.1839 142.589C92.8354 142.725 92.574 142.913 92.3998 143.152C92.2255 143.386 92.1357 143.656 92.1302 143.961C92.1193 144.211 92.1684 144.432 92.2773 144.623C92.3916 144.813 92.555 144.982 92.7673 145.129C92.9851 145.27 93.2465 145.396 93.5514 145.505C93.8563 145.614 94.1994 145.709 94.5805 145.79L96.018 146.117C96.8457 146.297 97.5753 146.536 98.2069 146.836C98.844 147.135 99.3776 147.492 99.8078 147.906C100.243 148.32 100.573 148.796 100.796 149.335C101.019 149.874 101.134 150.479 101.139 151.148C101.134 152.205 100.867 153.111 100.339 153.868C99.8105 154.625 99.0509 155.205 98.0599 155.608C97.0744 156.011 95.8846 156.212 94.4907 156.212C93.0913 156.212 91.8716 156.003 90.8316 155.583C89.7916 155.164 88.983 154.527 88.4058 153.672C87.8286 152.817 87.5319 151.737 87.5155 150.43H91.387C91.4197 150.969 91.564 151.418 91.8199 151.777C92.0758 152.137 92.427 152.409 92.8735 152.594C93.3254 152.779 93.8482 152.872 94.4417 152.872C94.9862 152.872 95.449 152.798 95.8302 152.651C96.2168 152.504 96.5135 152.3 96.7204 152.039C96.9274 151.777 97.0335 151.478 97.039 151.14C97.0335 150.824 96.9355 150.555 96.7449 150.332C96.5544 150.103 96.2603 149.907 95.8628 149.744C95.4708 149.575 94.9698 149.42 94.36 149.278L92.6121 148.87C91.1637 148.538 90.023 148.001 89.1899 147.261C88.3568 146.515 87.943 145.507 87.9484 144.239C87.943 143.204 88.2207 142.297 88.7815 141.519C89.3424 140.74 90.1183 140.133 91.1093 139.697C92.1003 139.262 93.2301 139.044 94.4988 139.044C95.7948 139.044 96.9192 139.265 97.8721 139.706C98.8304 140.141 99.5737 140.754 100.102 141.543C100.63 142.333 100.9 143.248 100.91 144.288H97.039ZM103.148 156V153.092L109.25 147.751C109.707 147.337 110.096 146.958 110.418 146.615C110.739 146.267 110.984 145.918 111.153 145.57C111.321 145.216 111.406 144.832 111.406 144.418C111.406 143.955 111.305 143.561 111.104 143.234C110.902 142.902 110.624 142.646 110.271 142.466C109.917 142.287 109.511 142.197 109.054 142.197C108.591 142.197 108.185 142.292 107.837 142.483C107.488 142.668 107.216 142.937 107.02 143.291C106.829 143.645 106.734 144.075 106.734 144.582H102.903C102.903 143.444 103.159 142.461 103.671 141.633C104.183 140.806 104.902 140.168 105.827 139.722C106.758 139.27 107.839 139.044 109.07 139.044C110.339 139.044 111.441 139.256 112.378 139.681C113.314 140.106 114.039 140.699 114.55 141.462C115.068 142.219 115.326 143.098 115.326 144.1C115.326 144.737 115.198 145.368 114.942 145.995C114.686 146.621 114.226 147.312 113.562 148.069C112.903 148.826 111.967 149.733 110.752 150.789L108.751 152.635V152.741H115.53V156H103.148ZM124.349 156.229C123.048 156.229 121.886 156.022 120.862 155.608C119.844 155.189 119.043 154.622 118.461 153.909C117.883 153.19 117.595 152.379 117.595 151.475C117.595 150.784 117.761 150.149 118.093 149.572C118.425 148.995 118.874 148.516 119.441 148.135C120.012 147.748 120.65 147.5 121.352 147.391V147.261C120.432 147.092 119.678 146.664 119.089 145.978C118.507 145.292 118.216 144.489 118.216 143.569C118.216 142.698 118.48 141.922 119.008 141.241C119.541 140.56 120.268 140.024 121.189 139.632C122.114 139.24 123.168 139.044 124.349 139.044C125.531 139.044 126.582 139.24 127.502 139.632C128.428 140.024 129.155 140.56 129.683 141.241C130.217 141.922 130.483 142.698 130.483 143.569C130.483 144.495 130.187 145.3 129.593 145.987C129.005 146.667 128.256 147.092 127.347 147.261V147.391C128.044 147.5 128.676 147.748 129.242 148.135C129.814 148.516 130.266 148.995 130.598 149.572C130.935 150.149 131.104 150.784 131.104 151.475C131.104 152.379 130.813 153.19 130.23 153.909C129.647 154.622 128.847 155.189 127.829 155.608C126.816 156.022 125.656 156.229 124.349 156.229ZM124.349 153.362C124.845 153.362 125.281 153.269 125.656 153.084C126.032 152.894 126.326 152.629 126.538 152.292C126.756 151.954 126.865 151.573 126.865 151.148C126.865 150.713 126.756 150.326 126.538 149.989C126.321 149.651 126.021 149.387 125.64 149.196C125.264 149 124.834 148.902 124.349 148.902C123.87 148.902 123.44 149 123.059 149.196C122.678 149.387 122.378 149.651 122.161 149.989C121.943 150.326 121.834 150.713 121.834 151.148C121.834 151.573 121.94 151.954 122.152 152.292C122.37 152.624 122.667 152.885 123.043 153.076C123.424 153.267 123.859 153.362 124.349 153.362ZM124.349 146.052C124.774 146.052 125.15 145.965 125.477 145.79C125.809 145.616 126.067 145.374 126.252 145.064C126.443 144.753 126.538 144.402 126.538 144.01C126.538 143.618 126.443 143.272 126.252 142.973C126.067 142.673 125.811 142.439 125.485 142.27C125.158 142.096 124.78 142.009 124.349 142.009C123.925 142.009 123.546 142.096 123.214 142.27C122.882 142.439 122.623 142.673 122.438 142.973C122.253 143.272 122.161 143.618 122.161 144.01C122.161 144.402 122.253 144.753 122.438 145.064C122.629 145.368 122.89 145.611 123.222 145.79C123.554 145.965 123.93 146.052 124.349 146.052ZM136.995 153.713L136.921 154.62C136.856 155.371 136.723 156.103 136.521 156.817C136.325 157.536 136.116 158.181 135.892 158.752C135.669 159.324 135.492 159.768 135.361 160.084H132.846C132.933 159.768 133.05 159.324 133.197 158.752C133.349 158.181 133.491 157.536 133.622 156.817C133.752 156.098 133.826 155.368 133.842 154.628L133.859 153.713H136.995ZM146.365 156.229C145.146 156.229 144.062 156.008 143.115 155.567C142.167 155.126 141.418 154.519 140.868 153.746C140.324 152.973 140.041 152.085 140.019 151.083H143.939C143.972 151.698 144.223 152.194 144.691 152.57C145.159 152.94 145.717 153.125 146.365 153.125C146.872 153.125 147.321 153.013 147.713 152.79C148.105 152.567 148.413 152.254 148.636 151.851C148.859 151.442 148.968 150.974 148.963 150.446C148.968 149.907 148.856 149.436 148.628 149.033C148.404 148.63 148.094 148.317 147.697 148.094C147.305 147.865 146.853 147.751 146.341 147.751C145.856 147.745 145.396 147.851 144.96 148.069C144.53 148.287 144.204 148.584 143.98 148.96L140.411 148.29L141.138 139.273H151.87V142.532H144.462L144.078 146.477H144.176C144.454 146.014 144.901 145.633 145.516 145.333C146.137 145.028 146.842 144.876 147.631 144.876C148.633 144.876 149.526 145.11 150.31 145.578C151.1 146.041 151.72 146.683 152.172 147.506C152.63 148.328 152.858 149.27 152.858 150.332C152.858 151.481 152.586 152.499 152.042 153.386C151.503 154.274 150.746 154.971 149.771 155.477C148.802 155.978 147.667 156.229 146.365 156.229ZM161.481 156.229C160.262 156.229 159.178 156.008 158.231 155.567C157.283 155.126 156.535 154.519 155.985 153.746C155.44 152.973 155.157 152.085 155.135 151.083H159.056C159.088 151.698 159.339 152.194 159.807 152.57C160.275 152.94 160.833 153.125 161.481 153.125C161.988 153.125 162.437 153.013 162.829 152.79C163.221 152.567 163.529 152.254 163.752 151.851C163.975 151.442 164.084 150.974 164.079 150.446C164.084 149.907 163.973 149.436 163.744 149.033C163.521 148.63 163.21 148.317 162.813 148.094C162.421 147.865 161.969 147.751 161.457 147.751C160.972 147.745 160.512 147.851 160.077 148.069C159.646 148.287 159.32 148.584 159.097 148.96L155.527 148.29L156.254 139.273H166.986V142.532H159.578L159.195 146.477H159.293C159.57 146.014 160.017 145.633 160.632 145.333C161.253 145.028 161.958 144.876 162.747 144.876C163.749 144.876 164.642 145.11 165.426 145.578C166.216 146.041 166.837 146.683 167.289 147.506C167.746 148.328 167.975 149.27 167.975 150.332C167.975 151.481 167.702 152.499 167.158 153.386C166.619 154.274 165.862 154.971 164.887 155.477C163.918 155.978 162.783 156.229 161.481 156.229Z" fill="#4FD18B"/>
<path d="M67.232 179.644V168.252H69.296V177.948H74.624V179.644H67.232ZM83.7222 171.564V179.644H81.7543V178.348C81.5089 178.796 81.1569 179.148 80.6983 179.404C80.2396 179.649 79.7169 179.772 79.1302 179.772C78.4263 179.772 77.8023 179.601 77.2582 179.26C76.7143 178.919 76.2929 178.433 75.9943 177.804C75.6956 177.175 75.5463 176.444 75.5463 175.612C75.5463 174.78 75.6956 174.044 75.9943 173.404C76.3036 172.753 76.7303 172.252 77.2743 171.9C77.8183 171.537 78.4369 171.356 79.1302 171.356C79.7169 171.356 80.2396 171.484 80.6983 171.74C81.1569 171.985 81.5089 172.332 81.7543 172.78V171.564H83.7222ZM79.6743 178.204C80.3356 178.204 80.8476 177.975 81.2103 177.516C81.5729 177.057 81.7543 176.412 81.7543 175.58C81.7543 174.727 81.5729 174.071 81.2103 173.612C80.8476 173.153 80.3303 172.924 79.6583 172.924C78.9969 172.924 78.4796 173.164 78.1063 173.644C77.7436 174.113 77.5623 174.769 77.5623 175.612C77.5623 176.444 77.7436 177.084 78.1063 177.532C78.4796 177.98 79.0023 178.204 79.6743 178.204ZM88.8605 179.772C87.3992 179.772 86.2365 179.431 85.3725 178.748L85.9325 177.34C86.7965 177.98 87.7832 178.3 88.8925 178.3C89.3725 178.3 89.7405 178.22 89.9965 178.06C90.2632 177.9 90.3965 177.676 90.3965 177.388C90.3965 177.143 90.3058 176.951 90.1245 176.812C89.9432 176.663 89.6338 176.535 89.1965 176.428L87.8525 176.124C86.3805 175.804 85.6445 175.052 85.6445 173.868C85.6445 173.377 85.7832 172.945 86.0605 172.572C86.3378 172.188 86.7272 171.889 87.2285 171.676C87.7298 171.463 88.3112 171.356 88.9725 171.356C89.5485 171.356 90.1032 171.447 90.6365 171.628C91.1698 171.799 91.6392 172.049 92.0445 172.38L91.4525 173.74C90.6418 173.143 89.8098 172.844 88.9565 172.844C88.4978 172.844 88.1405 172.929 87.8845 173.1C87.6285 173.271 87.5005 173.505 87.5005 173.804C87.5005 174.039 87.5752 174.225 87.7245 174.364C87.8845 174.503 88.1512 174.62 88.5245 174.716L89.9005 175.02C90.7005 175.201 91.2818 175.484 91.6445 175.868C92.0178 176.241 92.2045 176.732 92.2045 177.34C92.2045 178.087 91.9058 178.679 91.3085 179.116C90.7112 179.553 89.8952 179.772 88.8605 179.772ZM96.382 173.068V176.684C96.382 177.633 96.8247 178.108 97.71 178.108C97.9553 178.108 98.222 178.065 98.51 177.98V179.564C98.158 179.692 97.7313 179.756 97.23 179.756C96.3127 179.756 95.6087 179.5 95.118 178.988C94.6273 178.476 94.382 177.74 94.382 176.78V173.068H92.83V171.564H94.382V169.596L96.382 168.924V171.564H98.526V173.068H96.382ZM107.107 179.644V169.948H103.395V168.252H112.915V169.948H109.187V179.644H107.107ZM117.284 171.372C117.593 171.372 117.86 171.415 118.084 171.5L118.068 173.324C117.726 173.185 117.374 173.116 117.012 173.116C116.329 173.116 115.806 173.313 115.444 173.708C115.092 174.103 114.916 174.625 114.916 175.276V179.644H112.932V173.852C112.932 172.999 112.889 172.236 112.804 171.564H114.676L114.836 172.988C115.038 172.465 115.358 172.065 115.796 171.788C116.233 171.511 116.729 171.372 117.284 171.372ZM126.769 171.564V179.644H124.801V178.348C124.556 178.796 124.204 179.148 123.745 179.404C123.286 179.649 122.764 179.772 122.177 179.772C121.473 179.772 120.849 179.601 120.305 179.26C119.761 178.919 119.34 178.433 119.041 177.804C118.742 177.175 118.593 176.444 118.593 175.612C118.593 174.78 118.742 174.044 119.041 173.404C119.35 172.753 119.777 172.252 120.321 171.9C120.865 171.537 121.484 171.356 122.177 171.356C122.764 171.356 123.286 171.484 123.745 171.74C124.204 171.985 124.556 172.332 124.801 172.78V171.564H126.769ZM122.721 178.204C123.382 178.204 123.894 177.975 124.257 177.516C124.62 177.057 124.801 176.412 124.801 175.58C124.801 174.727 124.62 174.071 124.257 173.612C123.894 173.153 123.377 172.924 122.705 172.924C122.044 172.924 121.526 173.164 121.153 173.644C120.79 174.113 120.609 174.769 120.609 175.612C120.609 176.444 120.79 177.084 121.153 177.532C121.526 177.98 122.049 178.204 122.721 178.204ZM133.571 171.356C135.502 171.356 136.467 172.465 136.467 174.684V179.644H134.467V174.78C134.467 174.14 134.345 173.676 134.099 173.388C133.854 173.089 133.475 172.94 132.963 172.94C132.355 172.94 131.865 173.137 131.491 173.532C131.118 173.916 130.931 174.428 130.931 175.068V179.644H128.947V173.852C128.947 172.999 128.905 172.236 128.819 171.564H130.691L130.835 172.892C131.113 172.401 131.486 172.023 131.955 171.756C132.435 171.489 132.974 171.356 133.571 171.356ZM141.548 179.772C140.087 179.772 138.924 179.431 138.06 178.748L138.62 177.34C139.484 177.98 140.471 178.3 141.58 178.3C142.06 178.3 142.428 178.22 142.684 178.06C142.951 177.9 143.084 177.676 143.084 177.388C143.084 177.143 142.993 176.951 142.812 176.812C142.631 176.663 142.321 176.535 141.884 176.428L140.54 176.124C139.068 175.804 138.332 175.052 138.332 173.868C138.332 173.377 138.471 172.945 138.748 172.572C139.025 172.188 139.415 171.889 139.916 171.676C140.417 171.463 140.999 171.356 141.66 171.356C142.236 171.356 142.791 171.447 143.324 171.628C143.857 171.799 144.327 172.049 144.732 172.38L144.14 173.74C143.329 173.143 142.497 172.844 141.644 172.844C141.185 172.844 140.828 172.929 140.572 173.1C140.316 173.271 140.188 173.505 140.188 173.804C140.188 174.039 140.263 174.225 140.412 174.364C140.572 174.503 140.839 174.62 141.212 174.716L142.588 175.02C143.388 175.201 143.969 175.484 144.332 175.868C144.705 176.241 144.892 176.732 144.892 177.34C144.892 178.087 144.593 178.679 143.996 179.116C143.399 179.553 142.583 179.772 141.548 179.772ZM154.332 171.564V179.644H152.364V178.348C152.118 178.796 151.766 179.148 151.308 179.404C150.849 179.649 150.326 179.772 149.74 179.772C149.036 179.772 148.412 179.601 147.868 179.26C147.324 178.919 146.902 178.433 146.604 177.804C146.305 177.175 146.156 176.444 146.156 175.612C146.156 174.78 146.305 174.044 146.604 173.404C146.913 172.753 147.34 172.252 147.884 171.9C148.428 171.537 149.046 171.356 149.74 171.356C150.326 171.356 150.849 171.484 151.308 171.74C151.766 171.985 152.118 172.332 152.364 172.78V171.564H154.332ZM150.284 178.204C150.945 178.204 151.457 177.975 151.82 177.516C152.182 177.057 152.364 176.412 152.364 175.58C152.364 174.727 152.182 174.071 151.82 173.612C151.457 173.153 150.94 172.924 150.268 172.924C149.606 172.924 149.089 173.164 148.716 173.644C148.353 174.113 148.172 174.769 148.172 175.612C148.172 176.444 148.353 177.084 148.716 177.532C149.089 177.98 149.612 178.204 150.284 178.204ZM160.174 179.772C159.331 179.772 158.601 179.601 157.982 179.26C157.363 178.919 156.889 178.439 156.558 177.82C156.227 177.191 156.062 176.455 156.062 175.612C156.062 174.769 156.233 174.028 156.574 173.388C156.926 172.748 157.417 172.252 158.046 171.9C158.686 171.537 159.422 171.356 160.254 171.356C160.83 171.356 161.385 171.447 161.918 171.628C162.462 171.809 162.894 172.06 163.214 172.38L162.654 173.788C162.313 173.511 161.95 173.303 161.566 173.164C161.182 173.015 160.803 172.94 160.43 172.94C159.705 172.94 159.139 173.169 158.734 173.628C158.329 174.076 158.126 174.727 158.126 175.58C158.126 176.433 158.323 177.084 158.718 177.532C159.123 177.98 159.694 178.204 160.43 178.204C160.803 178.204 161.182 178.129 161.566 177.98C161.95 177.831 162.313 177.617 162.654 177.34L163.214 178.748C162.873 179.068 162.43 179.319 161.886 179.5C161.342 179.681 160.771 179.772 160.174 179.772ZM167.148 173.068V176.684C167.148 177.633 167.59 178.108 168.476 178.108C168.721 178.108 168.988 178.065 169.276 177.98V179.564C168.924 179.692 168.497 179.756 167.996 179.756C167.078 179.756 166.374 179.5 165.884 178.988C165.393 178.476 165.148 177.74 165.148 176.78V173.068H163.596V171.564H165.148V169.596L167.148 168.924V171.564H169.292V173.068H167.148ZM170.666 179.644V171.564H172.65V179.644H170.666ZM170.538 167.9H172.762V169.868H170.538V167.9ZM178.502 179.772C177.681 179.772 176.955 179.601 176.326 179.26C175.707 178.919 175.227 178.433 174.886 177.804C174.555 177.164 174.39 176.417 174.39 175.564C174.39 174.711 174.555 173.969 174.886 173.34C175.227 172.7 175.707 172.209 176.326 171.868C176.955 171.527 177.681 171.356 178.502 171.356C179.313 171.356 180.027 171.527 180.646 171.868C181.265 172.209 181.739 172.7 182.07 173.34C182.411 173.969 182.582 174.711 182.582 175.564C182.582 176.417 182.411 177.164 182.07 177.804C181.739 178.433 181.265 178.919 180.646 179.26C180.027 179.601 179.313 179.772 178.502 179.772ZM178.486 178.204C179.169 178.204 179.686 177.985 180.038 177.548C180.401 177.1 180.582 176.439 180.582 175.564C180.582 174.7 180.401 174.044 180.038 173.596C179.675 173.137 179.163 172.908 178.502 172.908C177.83 172.908 177.313 173.137 176.95 173.596C176.587 174.044 176.406 174.7 176.406 175.564C176.406 176.439 176.582 177.1 176.934 177.548C177.297 177.985 177.814 178.204 178.486 178.204ZM188.931 171.356C190.861 171.356 191.827 172.465 191.827 174.684V179.644H189.827V174.78C189.827 174.14 189.704 173.676 189.459 173.388C189.213 173.089 188.835 172.94 188.323 172.94C187.715 172.94 187.224 173.137 186.851 173.532C186.477 173.916 186.291 174.428 186.291 175.068V179.644H184.307V173.852C184.307 172.999 184.264 172.236 184.179 171.564H186.051L186.195 172.892C186.472 172.401 186.845 172.023 187.315 171.756C187.795 171.489 188.333 171.356 188.931 171.356Z" fill="#A1A0BD"/>
<rect x="66" y="197.171" width="120.886" height="48.1714" rx="24.0857" fill="#4C49ED"/>
<path d="M103.261 224.343V217.063H100.505V215.087H108.487V217.063H105.731V224.343H103.261ZM113.89 224.46C112.945 224.46 112.122 224.269 111.42 223.888C110.718 223.498 110.176 222.943 109.795 222.224C109.422 221.505 109.236 220.664 109.236 219.702C109.236 218.74 109.427 217.904 109.808 217.193C110.189 216.482 110.727 215.936 111.42 215.555C112.122 215.165 112.945 214.97 113.89 214.97C114.835 214.97 115.654 215.165 116.347 215.555C117.049 215.936 117.586 216.482 117.959 217.193C118.332 217.904 118.518 218.74 118.518 219.702C118.518 220.664 118.332 221.505 117.959 222.224C117.586 222.943 117.049 223.498 116.347 223.888C115.654 224.269 114.835 224.46 113.89 224.46ZM113.89 222.601C114.583 222.601 115.125 222.354 115.515 221.86C115.914 221.366 116.113 220.647 116.113 219.702C116.113 218.766 115.914 218.055 115.515 217.57C115.125 217.076 114.583 216.829 113.89 216.829C113.197 216.829 112.655 217.072 112.265 217.557C111.875 218.042 111.68 218.757 111.68 219.702C111.68 220.655 111.875 221.379 112.265 221.873C112.655 222.358 113.197 222.601 113.89 222.601ZM120.464 215.087H124.871C125.928 215.087 126.747 215.343 127.328 215.854C127.909 216.357 128.199 217.041 128.199 217.908C128.199 218.766 127.904 219.451 127.315 219.962C126.726 220.473 125.911 220.729 124.871 220.729H122.908V224.343H120.464V215.087ZM124.546 218.909C125.465 218.909 125.924 218.584 125.924 217.934C125.924 217.605 125.811 217.358 125.586 217.193C125.369 217.02 125.023 216.933 124.546 216.933H122.908V218.909H124.546ZM138.243 224.46C136.891 224.46 135.868 224.122 135.175 223.446C134.482 222.761 134.135 221.76 134.135 220.443V215.087H136.514V220.534C136.514 221.201 136.661 221.713 136.956 222.068C137.259 222.423 137.688 222.601 138.243 222.601C138.789 222.601 139.209 222.423 139.504 222.068C139.799 221.704 139.946 221.193 139.946 220.534V215.087H142.351V220.443C142.351 221.743 141.996 222.74 141.285 223.433C140.583 224.118 139.569 224.46 138.243 224.46ZM144.469 215.087H148.876C149.934 215.087 150.753 215.343 151.333 215.854C151.914 216.357 152.204 217.041 152.204 217.908C152.204 218.766 151.91 219.451 151.32 219.962C150.731 220.473 149.916 220.729 148.876 220.729H146.913V224.343H144.469V215.087ZM148.551 218.909C149.47 218.909 149.929 218.584 149.929 217.934C149.929 217.605 149.817 217.358 149.591 217.193C149.375 217.02 149.028 216.933 148.551 216.933H146.913V218.909H148.551Z" fill="white"/>
<path d="M222.574 217.001H224.888L221.573 226.257H219.636L217.699 220.758L215.723 226.257H213.786L210.484 217.001H212.967L214.865 222.838L216.932 217.001H218.596L220.585 222.942L222.574 217.001ZM226.394 226.257V217.001H228.838V226.257H226.394ZM233.107 226.257V218.977H230.351V217.001H238.333V218.977H235.577V226.257H233.107ZM245.973 217.001H248.365V226.257H245.973V222.513H242.229V226.257H239.837V217.001H242.229V220.602H245.973V217.001ZM250.551 217.001H254.334C255.357 217.001 256.237 217.187 256.973 217.56C257.719 217.924 258.286 218.453 258.676 219.146C259.075 219.839 259.274 220.663 259.274 221.616C259.274 222.578 259.079 223.41 258.689 224.112C258.299 224.805 257.732 225.338 256.986 225.711C256.25 226.075 255.366 226.257 254.334 226.257H250.551V217.001ZM254.165 224.307C255.067 224.307 255.738 224.086 256.18 223.644C256.631 223.193 256.856 222.517 256.856 221.616C256.856 219.839 255.959 218.951 254.165 218.951H252.995V224.307H254.165ZM269.275 226.257H266.688L265.492 223.176C265.353 222.829 265.028 222.656 264.517 222.656H263.633V226.257H261.228V217.001H265.531C266.649 217.001 267.489 217.244 268.053 217.729C268.616 218.206 268.898 218.89 268.898 219.783C268.898 220.407 268.729 220.949 268.391 221.408C268.061 221.859 267.593 222.179 266.987 222.37C267.247 222.422 267.481 222.543 267.689 222.734C267.897 222.925 268.061 223.18 268.183 223.501L269.275 226.257ZM265.141 220.836C265.661 220.836 266.038 220.758 266.272 220.602C266.506 220.437 266.623 220.186 266.623 219.848C266.623 219.493 266.506 219.237 266.272 219.081C266.046 218.925 265.669 218.847 265.141 218.847H263.607V220.836H265.141ZM277.947 226.257L277.128 224.346H273.02L272.201 226.257H269.757L274.086 217.001H276.01L280.352 226.257H277.947ZM273.813 222.513H276.335L275.074 219.588L273.813 222.513ZM291.861 217.001H294.175L290.86 226.257H288.923L286.986 220.758L285.01 226.257H283.073L279.771 217.001H282.254L284.152 222.838L286.219 217.001H287.883L289.872 222.942L291.861 217.001Z" fill="#4C49ED"/>
<rect x="192.329" y="197.614" width="120" height="47.2857" rx="23.6429" stroke="#4C49ED" stroke-width="0.885714"/>
</g>
</g>
<defs>
<filter id="filter0_d_2_10" x="0" y="0" width="623.46" height="343.392" filterUnits="userSpaceOnUse" color-interpolation-filters="sRGB">
<feFlood flood-opacity="0" result="BackgroundImageFix"/>
<feColorMatrix in="SourceAlpha" type="matrix" values="0 0 0 0 0 0 0 0 0 0 0 0 0 0 0 0 0 0 127 0" result="hardAlpha"/>
<feMorphology radius="6" operator="erode" in="SourceAlpha" result="effect1_dropShadow_2_10"/>
<feOffset dx="8" dy="13"/>
<feGaussianBlur stdDeviation="22"/>
<feComposite in2="hardAlpha" operator="out"/>
<feColorMatrix type="matrix" values="0 0 0 0 0.873452 0 0 0 0 0.857917 0 0 0 0 0.966667 0 0 0 1 0"/>
<feBlend mode="normal" in2="BackgroundImageFix" result="effect1_dropShadow_2_10"/>
<feBlend mode="normal" in="SourceGraphic" in2="effect1_dropShadow_2_10" result="shape"/>
</filter>
<clipPath id="clip0_2_10">
<rect x="30" y="25" width="547.46" height="267.392" rx="20" fill="white"/>
</clipPath>
</defs>
</svg>
