<svg width="259" height="144" viewBox="0 0 259 144" fill="none" xmlns="http://www.w3.org/2000/svg">
<rect x="0.25" y="0.431854" width="258.75" height="143.068" rx="11" fill="white"/>
<path d="M33.186 30.5759C31.618 30.5759 30.4287 30.1759 29.618 29.3759C28.818 28.5652 28.418 27.3812 28.418 25.8239V19.0399H30.45V25.9359C30.45 26.9172 30.6793 27.6639 31.138 28.1759C31.5967 28.6772 32.2793 28.9279 33.186 28.9279C34.0713 28.9279 34.7433 28.6719 35.202 28.1599C35.6713 27.6479 35.906 26.9065 35.906 25.9359V19.0399H37.938V25.8239C37.938 27.3705 37.5327 28.5492 36.722 29.3599C35.9113 30.1705 34.7327 30.5759 33.186 30.5759ZM44.7898 22.1439C45.4831 22.1439 46.0964 22.3252 46.6298 22.6879C47.1738 23.0399 47.5951 23.5412 47.8938 24.1919C48.2031 24.8319 48.3578 25.5679 48.3578 26.3999C48.3578 27.2319 48.2084 27.9625 47.9097 28.5919C47.6111 29.2212 47.1898 29.7065 46.6458 30.0479C46.1124 30.3892 45.4938 30.5599 44.7898 30.5599C44.2031 30.5599 43.6804 30.4372 43.2218 30.1919C42.7631 29.9359 42.4111 29.5839 42.1658 29.1359V33.8879H40.1818V24.6399C40.1818 23.7865 40.1391 23.0239 40.0538 22.3519H41.9258L42.0858 23.7439C42.2991 23.2425 42.6458 22.8532 43.1258 22.5759C43.6058 22.2879 44.1604 22.1439 44.7898 22.1439ZM44.2458 28.9919C44.9178 28.9919 45.4351 28.7679 45.7978 28.3199C46.1604 27.8719 46.3418 27.2319 46.3418 26.3999C46.3418 25.5572 46.1604 24.9012 45.7978 24.4319C45.4351 23.9519 44.9231 23.7119 44.2618 23.7119C43.5791 23.7119 43.0564 23.9412 42.6938 24.3999C42.3311 24.8585 42.1498 25.5145 42.1498 26.3679C42.1498 27.2105 42.3311 27.8612 42.6938 28.3199C43.0564 28.7679 43.5738 28.9919 44.2458 28.9919ZM53.7676 30.5599C52.925 30.5599 52.1943 30.3892 51.5756 30.0479C50.957 29.7065 50.4823 29.2265 50.1516 28.6079C49.821 27.9785 49.6556 27.2425 49.6556 26.3999C49.6556 25.5572 49.8263 24.8159 50.1676 24.1759C50.5196 23.5359 51.0103 23.0399 51.6396 22.6879C52.2796 22.3252 53.0156 22.1439 53.8476 22.1439C54.4236 22.1439 54.9783 22.2345 55.5116 22.4159C56.0556 22.5972 56.4876 22.8479 56.8076 23.1679L56.2476 24.5759C55.9063 24.2985 55.5436 24.0905 55.1596 23.9519C54.7756 23.8025 54.397 23.7279 54.0236 23.7279C53.2983 23.7279 52.733 23.9572 52.3276 24.4159C51.9223 24.8639 51.7196 25.5145 51.7196 26.3679C51.7196 27.2212 51.917 27.8719 52.3116 28.3199C52.717 28.7679 53.2876 28.9919 54.0236 28.9919C54.397 28.9919 54.7756 28.9172 55.1596 28.7679C55.5436 28.6185 55.9063 28.4052 56.2476 28.1279L56.8076 29.5359C56.4663 29.8559 56.0236 30.1065 55.4796 30.2879C54.9356 30.4692 54.365 30.5599 53.7676 30.5599ZM61.8145 30.5599C60.9932 30.5599 60.2678 30.3892 59.6385 30.0479C59.0198 29.7065 58.5398 29.2212 58.1985 28.5919C57.8678 27.9519 57.7025 27.2052 57.7025 26.3519C57.7025 25.4985 57.8678 24.7572 58.1985 24.1279C58.5398 23.4879 59.0198 22.9972 59.6385 22.6559C60.2678 22.3145 60.9932 22.1439 61.8145 22.1439C62.6252 22.1439 63.3398 22.3145 63.9585 22.6559C64.5772 22.9972 65.0518 23.4879 65.3825 24.1279C65.7238 24.7572 65.8945 25.4985 65.8945 26.3519C65.8945 27.2052 65.7238 27.9519 65.3825 28.5919C65.0518 29.2212 64.5772 29.7065 63.9585 30.0479C63.3398 30.3892 62.6252 30.5599 61.8145 30.5599ZM61.7985 28.9919C62.4812 28.9919 62.9985 28.7732 63.3505 28.3359C63.7132 27.8879 63.8945 27.2265 63.8945 26.3519C63.8945 25.4879 63.7132 24.8319 63.3505 24.3839C62.9878 23.9252 62.4758 23.6959 61.8145 23.6959C61.1425 23.6959 60.6252 23.9252 60.2625 24.3839C59.8998 24.8319 59.7185 25.4879 59.7185 26.3519C59.7185 27.2265 59.8945 27.8879 60.2465 28.3359C60.6092 28.7732 61.1265 28.9919 61.7985 28.9919ZM77.1553 22.1439C78.0726 22.1439 78.7553 22.4212 79.2033 22.9759C79.6513 23.5199 79.8753 24.3519 79.8753 25.4719V30.4319H77.8753V25.5359C77.8753 24.8959 77.7686 24.4372 77.5553 24.1599C77.3526 23.8719 77.0113 23.7279 76.5312 23.7279C75.9766 23.7279 75.5393 23.9252 75.2193 24.3199C74.9099 24.7039 74.7552 25.2372 74.7552 25.9199V30.4319H72.7553V25.5359C72.7553 24.9065 72.6433 24.4479 72.4193 24.1599C72.2059 23.8719 71.8646 23.7279 71.3953 23.7279C70.8406 23.7279 70.4033 23.9252 70.0833 24.3199C69.7633 24.7039 69.6033 25.2372 69.6033 25.9199V30.4319H67.6193V24.6399C67.6193 23.7865 67.5766 23.0239 67.4913 22.3519H69.3633L69.5073 23.6319C69.7419 23.1519 70.0779 22.7839 70.5153 22.5279C70.9633 22.2719 71.4753 22.1439 72.0513 22.1439C73.2886 22.1439 74.0939 22.6559 74.4673 23.6799C74.7233 23.1999 75.0859 22.8265 75.5553 22.5599C76.0353 22.2825 76.5686 22.1439 77.1553 22.1439ZM82.0099 30.4319V22.3519H83.9939V30.4319H82.0099ZM81.8819 18.6879H84.1059V20.6559H81.8819V18.6879ZM90.8058 22.1439C92.7364 22.1439 93.7018 23.2532 93.7018 25.4719V30.4319H91.7018V25.5679C91.7018 24.9279 91.5791 24.4639 91.3338 24.1759C91.0884 23.8772 90.7098 23.7279 90.1978 23.7279C89.5898 23.7279 89.0991 23.9252 88.7258 24.3199C88.3524 24.7039 88.1658 25.2159 88.1658 25.8559V30.4319H86.1818V24.6399C86.1818 23.7865 86.1391 23.0239 86.0538 22.3519H87.9258L88.0698 23.6799C88.3471 23.1892 88.7204 22.8105 89.1898 22.5439C89.6698 22.2772 90.2084 22.1439 90.8058 22.1439ZM103.63 22.3519V30.1759C103.63 31.4345 103.284 32.3892 102.59 33.0399C101.897 33.6905 100.878 34.0159 99.5344 34.0159C98.2864 34.0159 97.1877 33.7545 96.2384 33.2319L96.5584 31.7119C97.5397 32.2239 98.5157 32.4799 99.4864 32.4799C100.926 32.4799 101.646 31.7652 101.646 30.3359V28.7359C101.401 29.1732 101.044 29.5305 100.574 29.8079C100.105 30.0745 99.577 30.2079 98.9904 30.2079C98.2864 30.2079 97.657 30.0425 97.1024 29.7119C96.5584 29.3705 96.1317 28.8959 95.8224 28.2879C95.5237 27.6692 95.3744 26.9652 95.3744 26.1759C95.3744 25.3865 95.5237 24.6879 95.8224 24.0799C96.1317 23.4612 96.5584 22.9865 97.1024 22.6559C97.657 22.3145 98.2864 22.1439 98.9904 22.1439C99.5877 22.1439 100.116 22.2719 100.574 22.5279C101.044 22.7732 101.401 23.1199 101.646 23.5679V22.3519H103.63ZM99.5184 28.6399C100.18 28.6399 100.697 28.4212 101.07 27.9839C101.454 27.5465 101.646 26.9439 101.646 26.1759C101.646 25.4079 101.46 24.8052 101.086 24.3679C100.713 23.9305 100.19 23.7119 99.5184 23.7119C98.857 23.7119 98.3344 23.9305 97.9504 24.3679C97.577 24.8052 97.3904 25.4079 97.3904 26.1759C97.3904 26.9439 97.577 27.5465 97.9504 27.9839C98.3344 28.4212 98.857 28.6399 99.5184 28.6399Z" fill="#A1A0BD"/>
<path d="M36.1786 79.6023V53.2387H37.8675V79.6023H36.1786ZM40.2464 62.1982C40.1778 61.443 39.8723 60.856 39.3299 60.4372C38.7944 60.0115 38.0289 59.7987 37.0334 59.7987C36.3743 59.7987 35.825 59.8845 35.3857 60.0561C34.9463 60.2278 34.6167 60.4646 34.397 60.7667C34.1773 61.0619 34.064 61.4018 34.0572 61.7863C34.0434 62.1021 34.1052 62.3801 34.2425 62.6204C34.3867 62.8607 34.5927 63.0735 34.8604 63.2589C35.1351 63.4374 35.4646 63.5953 35.8491 63.7326C36.2335 63.8699 36.6661 63.9901 37.1467 64.0931L38.9592 64.505C40.0027 64.7316 40.9227 65.0337 41.7191 65.4113C42.5224 65.7889 43.1952 66.2386 43.7376 66.7603C44.2868 67.2821 44.7022 67.8828 44.9837 68.5625C45.2652 69.2422 45.4093 70.0043 45.4162 70.8488C45.4093 72.1807 45.0729 73.3238 44.407 74.2781C43.741 75.2324 42.7833 75.9636 41.5337 76.4716C40.2911 76.9797 38.791 77.2337 37.0334 77.2337C35.2689 77.2337 33.7311 76.9694 32.4197 76.4407C31.1084 75.9121 30.0889 75.1088 29.3612 74.0309C28.6334 72.953 28.2592 71.5902 28.2386 69.9425H33.12C33.1612 70.6222 33.3432 71.1886 33.6658 71.6417C33.9885 72.0948 34.4313 72.4381 34.9943 72.6716C35.5642 72.905 36.2232 73.0217 36.9716 73.0217C37.6581 73.0217 38.2417 72.929 38.7223 72.7436C39.2098 72.5583 39.5839 72.3008 39.8448 71.9713C40.1057 71.6417 40.2396 71.2641 40.2464 70.8385C40.2396 70.4403 40.116 70.1004 39.8757 69.8189C39.6354 69.5306 39.2647 69.2834 38.7635 69.0774C38.2692 68.8646 37.6375 68.6689 36.8686 68.4904L34.6648 67.9755C32.8385 67.5567 31.4002 66.8805 30.3498 65.9468C29.2994 65.0062 28.7776 63.7361 28.7844 62.1364C28.7776 60.8319 29.1277 59.6888 29.8349 58.7071C30.542 57.7253 31.5204 56.9598 32.7699 56.4105C34.0194 55.8613 35.444 55.5867 37.0437 55.5867C38.6777 55.5867 40.0954 55.8647 41.2969 56.4208C42.5052 56.9701 43.4424 57.7425 44.1083 58.738C44.7743 59.7335 45.1141 60.8869 45.1278 62.1982H40.2464ZM54.18 76.9659V73.2997L61.8729 66.5647C62.4496 66.0429 62.9405 65.5657 63.3455 65.1332C63.7506 64.6938 64.0595 64.2544 64.2724 63.815C64.4852 63.3688 64.5916 62.8847 64.5916 62.363C64.5916 61.7794 64.4646 61.2816 64.2106 60.8697C63.9566 60.4509 63.6064 60.1282 63.1602 59.9017C62.7139 59.6751 62.2024 59.5618 61.6257 59.5618C61.0421 59.5618 60.5307 59.682 60.0913 59.9223C59.6519 60.1557 59.3086 60.4955 59.0614 60.9418C58.8211 61.3881 58.701 61.9304 58.701 62.5689H53.8711C53.8711 61.134 54.1938 59.8948 54.8391 58.8512C55.4845 57.8077 56.3907 57.0044 57.5579 56.4414C58.7319 55.8716 60.0947 55.5867 61.6463 55.5867C63.246 55.5867 64.6362 55.8544 65.8171 56.3899C66.998 56.9255 67.9111 57.6738 68.5565 58.635C69.2087 59.5893 69.5348 60.6981 69.5348 61.9613C69.5348 62.7646 69.3735 63.561 69.0508 64.3505C68.7281 65.1401 68.148 66.012 67.3104 66.9663C66.4796 67.9206 65.2988 69.0637 63.7678 70.3956L61.2447 72.723V72.8569H69.7923V76.9659H54.18ZM81.3959 77.4809C79.5559 77.4809 77.97 77.0449 76.6381 76.173C75.3061 75.2942 74.2797 74.0344 73.5589 72.3935C72.838 70.7458 72.481 68.7651 72.4878 66.4514C72.4947 64.1377 72.8551 62.1742 73.5692 60.5608C74.29 58.9405 75.313 57.7081 76.6381 56.8637C77.97 56.0123 79.5559 55.5867 81.3959 55.5867C83.2358 55.5867 84.8218 56.0123 86.1537 56.8637C87.4925 57.7081 88.5223 58.9405 89.2432 60.5608C89.964 62.181 90.3211 64.1446 90.3142 66.4514C90.3142 68.7719 89.9537 70.7561 89.2329 72.4038C88.512 74.0515 87.4856 75.3113 86.1537 76.1833C84.8286 77.0483 83.2427 77.4809 81.3959 77.4809ZM81.3959 73.31C82.4943 73.31 83.3834 72.7505 84.0631 71.6314C84.7428 70.5055 85.0792 68.7788 85.0724 66.4514C85.0724 64.9272 84.9179 63.6708 84.6089 62.6822C84.3 61.6867 83.8709 60.9452 83.3216 60.4578C82.7724 59.9703 82.1305 59.7266 81.3959 59.7266C80.3042 59.7266 79.422 60.2793 78.7492 61.3846C78.0764 62.4831 77.7365 64.172 77.7297 66.4514C77.7228 67.9961 77.8704 69.2765 78.1725 70.2926C78.4814 71.3087 78.914 72.0674 79.4701 72.5686C80.0262 73.0629 80.6681 73.31 81.3959 73.31ZM102.986 55.875V76.9659H97.8989V60.6328H97.7753L93.0587 63.5164V59.1087L98.2593 55.875H102.986Z" fill="black"/>
<path d="M108.995 77.1616C108.509 77.1616 108.093 76.9907 107.747 76.6488C107.405 76.307 107.236 75.8931 107.241 75.4073C107.236 74.9305 107.405 74.5235 107.747 74.1861C108.093 73.8443 108.509 73.6733 108.995 73.6733C109.454 73.6733 109.859 73.8443 110.21 74.1861C110.565 74.5235 110.745 74.9305 110.749 75.4073C110.745 75.7312 110.659 76.0258 110.493 76.2912C110.331 76.5566 110.117 76.768 109.852 76.9255C109.591 77.0829 109.305 77.1616 108.995 77.1616ZM112.733 74.6719V72.0675L118.394 63.1478H120.708V66.6833H119.365L116.053 71.9326V72.0405H124.25V74.6719H112.733ZM119.406 76.9659V73.8757L119.473 72.7355V63.1478H122.597V76.9659H119.406ZM131.399 77.1549C130.324 77.1549 129.364 76.9839 128.518 76.6421C127.677 76.2957 127.016 75.8279 126.534 75.2387C126.057 74.6449 125.819 73.9747 125.819 73.228C125.819 72.6568 125.956 72.1327 126.231 71.6559C126.505 71.1791 126.876 70.7833 127.344 70.4684C127.816 70.1491 128.343 69.9444 128.923 69.8544V69.7465C128.163 69.607 127.54 69.2539 127.054 68.6872C126.573 68.1204 126.332 67.4569 126.332 66.6968C126.332 65.9771 126.55 65.3361 126.986 64.7738C127.427 64.2116 128.028 63.7685 128.788 63.4446C129.552 63.1208 130.423 62.9588 131.399 62.9588C132.375 62.9588 133.243 63.1208 134.003 63.4446C134.768 63.7685 135.369 64.2116 135.805 64.7738C136.246 65.3361 136.466 65.9771 136.466 66.6968C136.466 67.4614 136.221 68.1272 135.731 68.6939C135.245 69.2562 134.626 69.607 133.875 69.7465V69.8544C134.451 69.9444 134.973 70.1491 135.441 70.4684C135.913 70.7833 136.286 71.1791 136.561 71.6559C136.839 72.1327 136.979 72.6568 136.979 73.228C136.979 73.9747 136.738 74.6449 136.257 75.2387C135.776 75.8279 135.114 76.2957 134.273 76.6421C133.437 76.9839 132.479 77.1549 131.399 77.1549ZM131.399 74.7866C131.808 74.7866 132.168 74.7101 132.479 74.5572C132.789 74.3998 133.032 74.1816 133.207 73.9027C133.387 73.6238 133.477 73.309 133.477 72.9581C133.477 72.5983 133.387 72.2789 133.207 72C133.027 71.7212 132.78 71.503 132.465 71.3456C132.155 71.1836 131.799 71.1027 131.399 71.1027C131.003 71.1027 130.648 71.1836 130.333 71.3456C130.018 71.503 129.771 71.7212 129.591 72C129.411 72.2789 129.321 72.5983 129.321 72.9581C129.321 73.309 129.409 73.6238 129.584 73.9027C129.764 74.1771 130.009 74.393 130.319 74.5505C130.634 74.7079 130.994 74.7866 131.399 74.7866ZM131.399 68.7479C131.75 68.7479 132.06 68.6759 132.33 68.532C132.604 68.3881 132.818 68.1879 132.971 67.9315C133.128 67.6751 133.207 67.385 133.207 67.0611C133.207 66.7372 133.128 66.4516 132.971 66.2042C132.818 65.9568 132.607 65.7634 132.337 65.624C132.067 65.48 131.754 65.4081 131.399 65.4081C131.048 65.4081 130.735 65.48 130.461 65.624C130.187 65.7634 129.973 65.9568 129.82 66.2042C129.667 66.4516 129.591 66.7372 129.591 67.0611C129.591 67.385 129.667 67.6751 129.82 67.9315C129.978 68.1834 130.193 68.3836 130.468 68.532C130.742 68.6759 131.053 68.7479 131.399 68.7479Z" fill="#AFADFE"/>
<path d="M36.2784 110.273L38.5497 117.142H38.6392L40.9062 110.273H42.6449L39.5682 119H37.6165L34.544 110.273H36.2784ZM43.7262 119V112.455H45.2688V119H43.7262ZM44.5018 111.526C44.2575 111.526 44.0472 111.445 43.8711 111.283C43.695 111.118 43.6069 110.92 43.6069 110.69C43.6069 110.457 43.695 110.26 43.8711 110.098C44.0472 109.933 44.2575 109.851 44.5018 109.851C44.7489 109.851 44.9592 109.933 45.1325 110.098C45.3086 110.26 45.3967 110.457 45.3967 110.69C45.3967 110.92 45.3086 111.118 45.1325 111.283C44.9592 111.445 44.7489 111.526 44.5018 111.526ZM49.7528 119.128C49.0966 119.128 48.5298 118.992 48.0526 118.719C47.5781 118.443 47.2131 118.054 46.9574 117.551C46.7017 117.045 46.5739 116.45 46.5739 115.766C46.5739 115.092 46.7017 114.501 46.9574 113.993C47.2159 113.482 47.5767 113.084 48.0398 112.8C48.5028 112.513 49.0469 112.369 49.6719 112.369C50.0753 112.369 50.456 112.435 50.8139 112.565C51.1747 112.693 51.4929 112.892 51.7685 113.162C52.0469 113.432 52.2656 113.776 52.4247 114.193C52.5838 114.608 52.6634 115.102 52.6634 115.676V116.149H47.2983V115.109H51.1847C51.1818 114.814 51.1179 114.551 50.9929 114.321C50.8679 114.088 50.6932 113.905 50.4688 113.771C50.2472 113.638 49.9886 113.571 49.6932 113.571C49.3778 113.571 49.1009 113.648 48.8622 113.801C48.6236 113.952 48.4375 114.151 48.304 114.398C48.1733 114.642 48.1065 114.911 48.1037 115.203V116.111C48.1037 116.492 48.1733 116.818 48.3125 117.091C48.4517 117.361 48.6463 117.568 48.8963 117.713C49.1463 117.855 49.4389 117.926 49.7741 117.926C49.9986 117.926 50.2017 117.895 50.3835 117.832C50.5653 117.767 50.723 117.672 50.8565 117.547C50.9901 117.422 51.0909 117.267 51.1591 117.082L52.5994 117.244C52.5085 117.625 52.3352 117.957 52.0795 118.242C51.8267 118.523 51.5028 118.742 51.108 118.898C50.7131 119.051 50.2614 119.128 49.7528 119.128ZM55.2841 119L53.4347 112.455H55.0071L56.1577 117.057H56.2173L57.3935 112.455H58.9489L60.125 117.031H60.1889L61.3224 112.455H62.8991L61.0455 119H59.4389L58.2116 114.577H58.1222L56.8949 119H55.2841ZM69.9783 119H67.021V110.273H70.038C70.9045 110.273 71.6488 110.447 72.271 110.797C72.896 111.143 73.3761 111.642 73.7113 112.293C74.0465 112.943 74.2141 113.722 74.2141 114.628C74.2141 115.537 74.0451 116.318 73.707 116.972C73.3718 117.625 72.8874 118.126 72.2539 118.476C71.6232 118.825 70.8647 119 69.9783 119ZM68.6019 117.632H69.9016C70.5096 117.632 71.0167 117.521 71.4229 117.3C71.8292 117.075 72.1346 116.742 72.3391 116.298C72.5437 115.852 72.646 115.295 72.646 114.628C72.646 113.96 72.5437 113.406 72.3391 112.966C72.1346 112.523 71.832 112.192 71.4315 111.973C71.0337 111.751 70.5394 111.641 69.9485 111.641H68.6019V117.632ZM78.5458 119.128C77.8896 119.128 77.3228 118.992 76.8455 118.719C76.3711 118.443 76.006 118.054 75.7504 117.551C75.4947 117.045 75.3668 116.45 75.3668 115.766C75.3668 115.092 75.4947 114.501 75.7504 113.993C76.0089 113.482 76.3697 113.084 76.8327 112.8C77.2958 112.513 77.8398 112.369 78.4648 112.369C78.8683 112.369 79.2489 112.435 79.6069 112.565C79.9677 112.693 80.2859 112.892 80.5614 113.162C80.8398 113.432 81.0586 113.776 81.2177 114.193C81.3768 114.608 81.4563 115.102 81.4563 115.676V116.149H76.0913V115.109H79.9776C79.9748 114.814 79.9109 114.551 79.7859 114.321C79.6609 114.088 79.4862 113.905 79.2617 113.771C79.0401 113.638 78.7816 113.571 78.4862 113.571C78.1708 113.571 77.8938 113.648 77.6552 113.801C77.4165 113.952 77.2305 114.151 77.0969 114.398C76.9663 114.642 76.8995 114.911 76.8967 115.203V116.111C76.8967 116.492 76.9663 116.818 77.1055 117.091C77.2447 117.361 77.4393 117.568 77.6893 117.713C77.9393 117.855 78.2319 117.926 78.5671 117.926C78.7915 117.926 78.9947 117.895 79.1765 117.832C79.3583 117.767 79.516 117.672 79.6495 117.547C79.783 117.422 79.8839 117.267 79.9521 117.082L81.3924 117.244C81.3015 117.625 81.1282 117.957 80.8725 118.242C80.6197 118.523 80.2958 118.742 79.9009 118.898C79.506 119.051 79.0543 119.128 78.5458 119.128ZM86.0298 112.455V113.648H82.267V112.455H86.0298ZM83.196 110.886H84.7386V117.031C84.7386 117.239 84.7699 117.398 84.8324 117.509C84.8977 117.617 84.983 117.69 85.0881 117.73C85.1932 117.77 85.3097 117.79 85.4375 117.79C85.5341 117.79 85.6222 117.783 85.7017 117.768C85.7841 117.754 85.8466 117.742 85.8892 117.73L86.1491 118.936C86.0668 118.965 85.9489 118.996 85.7955 119.03C85.6449 119.064 85.4602 119.084 85.2415 119.09C84.8551 119.101 84.5071 119.043 84.1974 118.915C83.8878 118.784 83.642 118.582 83.4602 118.31C83.2813 118.037 83.1932 117.696 83.196 117.287V110.886ZM89.2035 119.132C88.7887 119.132 88.4151 119.058 88.0827 118.911C87.7532 118.76 87.4918 118.538 87.2987 118.246C87.1083 117.953 87.0131 117.592 87.0131 117.163C87.0131 116.794 87.0813 116.489 87.2177 116.247C87.354 116.006 87.5401 115.813 87.7759 115.668C88.0117 115.523 88.2773 115.413 88.5728 115.34C88.8711 115.263 89.1793 115.207 89.4975 115.173C89.881 115.134 90.1921 115.098 90.4308 115.067C90.6694 115.033 90.8427 114.982 90.9506 114.913C91.0614 114.842 91.1168 114.733 91.1168 114.585V114.56C91.1168 114.239 91.0217 113.99 90.8313 113.814C90.641 113.638 90.3668 113.55 90.0089 113.55C89.631 113.55 89.3313 113.632 89.1097 113.797C88.891 113.962 88.7433 114.156 88.6665 114.381L87.2262 114.176C87.3398 113.778 87.5273 113.446 87.7887 113.179C88.0501 112.909 88.3697 112.707 88.7475 112.574C89.1254 112.438 89.543 112.369 90.0004 112.369C90.3157 112.369 90.6296 112.406 90.9421 112.48C91.2546 112.554 91.5401 112.676 91.7987 112.847C92.0572 113.014 92.2646 113.243 92.4208 113.533C92.5799 113.822 92.6594 114.185 92.6594 114.619V119H91.1765V118.101H91.1254C91.0316 118.283 90.8995 118.453 90.729 118.612C90.5614 118.768 90.3498 118.895 90.0941 118.992C89.8413 119.085 89.5444 119.132 89.2035 119.132ZM89.604 117.999C89.9137 117.999 90.1822 117.938 90.4094 117.815C90.6367 117.69 90.8114 117.526 90.9336 117.321C91.0586 117.117 91.1211 116.893 91.1211 116.652V115.881C91.0728 115.92 90.9904 115.957 90.8739 115.992C90.7603 116.026 90.6325 116.055 90.4904 116.081C90.3484 116.107 90.2077 116.129 90.0685 116.149C89.9293 116.169 89.8086 116.186 89.7063 116.2C89.4762 116.232 89.2702 116.283 89.0884 116.354C88.9066 116.425 88.7631 116.524 88.658 116.652C88.5529 116.777 88.5004 116.939 88.5004 117.138C88.5004 117.422 88.604 117.636 88.8114 117.781C89.0188 117.926 89.283 117.999 89.604 117.999ZM94.2106 119V112.455H95.7532V119H94.2106ZM94.9862 111.526C94.7418 111.526 94.5316 111.445 94.3555 111.283C94.1793 111.118 94.0913 110.92 94.0913 110.69C94.0913 110.457 94.1793 110.26 94.3555 110.098C94.5316 109.933 94.7418 109.851 94.9862 109.851C95.2333 109.851 95.4435 109.933 95.6168 110.098C95.793 110.26 95.881 110.457 95.881 110.69C95.881 110.92 95.793 111.118 95.6168 111.283C95.4435 111.445 95.2333 111.526 94.9862 111.526ZM98.8821 110.273V119H97.3395V110.273H98.8821ZM105.642 114.185L104.235 114.338C104.196 114.196 104.126 114.063 104.027 113.938C103.93 113.813 103.799 113.712 103.635 113.635C103.47 113.558 103.268 113.52 103.029 113.52C102.708 113.52 102.439 113.59 102.22 113.729C102.004 113.868 101.897 114.048 101.9 114.27C101.897 114.46 101.967 114.615 102.109 114.734C102.254 114.854 102.493 114.952 102.825 115.028L103.941 115.267C104.561 115.401 105.021 115.612 105.322 115.902C105.626 116.192 105.779 116.571 105.782 117.04C105.779 117.452 105.659 117.815 105.42 118.131C105.184 118.443 104.856 118.688 104.436 118.864C104.015 119.04 103.532 119.128 102.987 119.128C102.186 119.128 101.541 118.96 101.052 118.625C100.564 118.287 100.272 117.817 100.179 117.215L101.683 117.07C101.751 117.365 101.896 117.588 102.118 117.739C102.339 117.889 102.627 117.965 102.983 117.965C103.349 117.965 103.643 117.889 103.865 117.739C104.089 117.588 104.201 117.402 104.201 117.18C104.201 116.993 104.129 116.838 103.984 116.716C103.842 116.594 103.62 116.5 103.319 116.435L102.203 116.2C101.575 116.07 101.11 115.849 100.809 115.54C100.508 115.227 100.359 114.832 100.362 114.355C100.359 113.952 100.468 113.602 100.69 113.307C100.914 113.009 101.225 112.778 101.623 112.617C102.024 112.452 102.485 112.369 103.008 112.369C103.775 112.369 104.379 112.533 104.819 112.859C105.262 113.186 105.537 113.628 105.642 114.185Z" fill="#4C49ED"/>
<rect x="27.75" y="99" width="86" height="31" rx="15.5" stroke="#4C49ED"/>
</svg>
