<svg width="206" height="54" viewBox="0 0 206 54" fill="none" xmlns="http://www.w3.org/2000/svg">
<rect width="206" height="53.6" rx="6" fill="#E4E3FF"/>
<path d="M29.5 18.55C29.5 17.9533 29.7371 17.381 30.159 16.959C30.581 16.537 31.1533 16.3 31.75 16.3H36.25C36.8467 16.3 37.419 16.537 37.841 16.959C38.2629 17.381 38.5 17.9533 38.5 18.55V23.05C38.5 23.6467 38.2629 24.219 37.841 24.641C37.419 25.0629 36.8467 25.3 36.25 25.3H31.75C31.1533 25.3 30.581 25.0629 30.159 24.641C29.7371 24.219 29.5 23.6467 29.5 23.05V18.55ZM41.5 18.55C41.5 17.9533 41.7371 17.381 42.159 16.959C42.581 16.537 43.1533 16.3 43.75 16.3H48.25C48.8467 16.3 49.419 16.537 49.841 16.959C50.2629 17.381 50.5 17.9533 50.5 18.55V23.05C50.5 23.6467 50.2629 24.219 49.841 24.641C49.419 25.0629 48.8467 25.3 48.25 25.3H43.75C43.1533 25.3 42.581 25.0629 42.159 24.641C41.7371 24.219 41.5 23.6467 41.5 23.05V18.55ZM29.5 30.55C29.5 29.9533 29.7371 29.381 30.159 28.959C30.581 28.537 31.1533 28.3 31.75 28.3H36.25C36.8467 28.3 37.419 28.537 37.841 28.959C38.2629 29.381 38.5 29.9533 38.5 30.55V35.05C38.5 35.6467 38.2629 36.219 37.841 36.641C37.419 37.0629 36.8467 37.3 36.25 37.3H31.75C31.1533 37.3 30.581 37.0629 30.159 36.641C29.7371 36.219 29.5 35.6467 29.5 35.05V30.55ZM41.5 30.55C41.5 29.9533 41.7371 29.381 42.159 28.959C42.581 28.537 43.1533 28.3 43.75 28.3H48.25C48.8467 28.3 49.419 28.537 49.841 28.959C50.2629 29.381 50.5 29.9533 50.5 30.55V35.05C50.5 35.6467 50.2629 36.219 49.841 36.641C49.419 37.0629 48.8467 37.3 48.25 37.3H43.75C43.1533 37.3 42.581 37.0629 42.159 36.641C41.7371 36.219 41.5 35.6467 41.5 35.05V30.55Z" fill="#4C49ED"/>
<path d="M69.207 20.896H73.882C75.208 20.896 76.347 21.134 77.299 21.61C78.251 22.086 78.9763 22.7773 79.475 23.684C79.985 24.5907 80.24 25.673 80.24 26.931C80.24 28.2003 79.9907 29.2883 79.492 30.195C78.9933 31.1017 78.268 31.7987 77.316 32.286C76.364 32.762 75.2193 33 73.882 33H69.207V20.896ZM73.712 30.858C76.296 30.858 77.588 29.549 77.588 26.931C77.588 24.3357 76.296 23.038 73.712 23.038H71.859V30.858H73.712ZM90.7882 24.381V33H88.2552V31.725C87.9946 32.167 87.6262 32.5127 87.1502 32.762C86.6742 33.0113 86.1359 33.136 85.5352 33.136C84.7872 33.136 84.1242 32.9547 83.5462 32.592C82.9796 32.2293 82.5319 31.7137 82.2032 31.045C81.8859 30.365 81.7272 29.583 81.7272 28.699C81.7272 27.815 81.8859 27.0273 82.2032 26.336C82.5319 25.6447 82.9852 25.112 83.5632 24.738C84.1412 24.3527 84.7986 24.16 85.5352 24.16C86.1359 24.16 86.6742 24.2903 87.1502 24.551C87.6262 24.8117 87.9946 25.163 88.2552 25.605V24.381H90.7882ZM86.2832 31.181C86.9179 31.181 87.4052 30.9657 87.7452 30.535C88.0852 30.1043 88.2552 29.481 88.2552 28.665C88.2552 27.849 88.0852 27.2257 87.7452 26.795C87.4052 26.353 86.9179 26.132 86.2832 26.132C85.6486 26.132 85.1556 26.3587 84.8042 26.812C84.4529 27.2653 84.2772 27.8943 84.2772 28.699C84.2772 29.5037 84.4472 30.1213 84.7872 30.552C85.1386 30.9713 85.6372 31.181 86.2832 31.181ZM96.1582 33.136C94.5262 33.136 93.2399 32.7847 92.2992 32.082L92.9792 30.297C93.4326 30.6257 93.9369 30.8807 94.4922 31.062C95.0476 31.232 95.6142 31.317 96.1922 31.317C96.6342 31.317 96.9742 31.249 97.2122 31.113C97.4502 30.977 97.5692 30.7787 97.5692 30.518C97.5692 30.3027 97.4842 30.1327 97.3142 30.008C97.1442 29.8833 96.8439 29.7757 96.4132 29.685L95.0022 29.362C94.1749 29.1807 93.5629 28.8917 93.1662 28.495C92.7809 28.0983 92.5882 27.5713 92.5882 26.914C92.5882 26.3813 92.7412 25.9053 93.0472 25.486C93.3646 25.0667 93.8009 24.7437 94.3562 24.517C94.9116 24.279 95.5519 24.16 96.2772 24.16C96.8892 24.16 97.4899 24.2563 98.0792 24.449C98.6686 24.6303 99.1956 24.891 99.6602 25.231L98.9462 26.948C98.5042 26.642 98.0509 26.4097 97.5862 26.251C97.1329 26.0923 96.6909 26.013 96.2602 26.013C95.8409 26.013 95.5122 26.0867 95.2742 26.234C95.0362 26.3813 94.9172 26.5853 94.9172 26.846C94.9172 27.0387 94.9852 27.1973 95.1212 27.322C95.2686 27.4353 95.5236 27.5317 95.8862 27.611L97.3312 27.934C98.2152 28.138 98.8556 28.444 99.2522 28.852C99.6489 29.26 99.8472 29.804 99.8472 30.484C99.8472 31.3 99.5186 31.946 98.8612 32.422C98.2039 32.898 97.3029 33.136 96.1582 33.136ZM106.731 24.16C108.771 24.16 109.791 25.367 109.791 27.781V33H107.224V27.9C107.224 27.2993 107.111 26.863 106.884 26.591C106.669 26.3077 106.323 26.166 105.847 26.166C105.28 26.166 104.827 26.3473 104.487 26.71C104.147 27.0727 103.977 27.56 103.977 28.172V33H101.41V20.488H103.977V25.554C104.283 25.1007 104.674 24.755 105.15 24.517C105.626 24.279 106.153 24.16 106.731 24.16ZM117.106 24.16C117.854 24.16 118.517 24.347 119.095 24.721C119.673 25.0837 120.12 25.605 120.438 26.285C120.755 26.9537 120.914 27.73 120.914 28.614C120.914 29.498 120.749 30.2857 120.421 30.977C120.103 31.657 119.656 32.1897 119.078 32.575C118.5 32.949 117.842 33.136 117.106 33.136C116.505 33.136 115.961 33.0113 115.474 32.762C114.998 32.5013 114.635 32.15 114.386 31.708V33H111.836V20.488H114.403V25.588C114.652 25.146 115.015 24.8003 115.491 24.551C115.978 24.2903 116.516 24.16 117.106 24.16ZM116.375 31.181C117.009 31.181 117.497 30.96 117.837 30.518C118.177 30.076 118.347 29.4413 118.347 28.614C118.347 27.8207 118.177 27.2087 117.837 26.778C117.497 26.3473 117.009 26.132 116.375 26.132C115.74 26.132 115.247 26.353 114.896 26.795C114.556 27.2257 114.386 27.8433 114.386 28.648C114.386 29.464 114.556 30.093 114.896 30.535C115.247 30.9657 115.74 31.181 116.375 31.181ZM126.674 33.136C125.756 33.136 124.952 32.9547 124.26 32.592C123.58 32.2293 123.053 31.708 122.679 31.028C122.317 30.348 122.135 29.5547 122.135 28.648C122.135 27.7413 122.317 26.948 122.679 26.268C123.053 25.588 123.58 25.0667 124.26 24.704C124.952 24.3413 125.756 24.16 126.674 24.16C127.581 24.16 128.374 24.3413 129.054 24.704C129.734 25.0667 130.256 25.588 130.618 26.268C130.992 26.948 131.179 27.7413 131.179 28.648C131.179 29.5547 130.992 30.348 130.618 31.028C130.256 31.708 129.734 32.2293 129.054 32.592C128.374 32.9547 127.581 33.136 126.674 33.136ZM126.674 31.181C127.309 31.181 127.791 30.9713 128.119 30.552C128.459 30.1327 128.629 29.498 128.629 28.648C128.629 27.8093 128.459 27.1803 128.119 26.761C127.791 26.3303 127.309 26.115 126.674 26.115C126.028 26.115 125.535 26.3303 125.195 26.761C124.855 27.1803 124.685 27.8093 124.685 28.648C124.685 30.3367 125.348 31.181 126.674 31.181ZM141.456 24.381V33H138.923V31.725C138.663 32.167 138.294 32.5127 137.818 32.762C137.342 33.0113 136.804 33.136 136.203 33.136C135.455 33.136 134.792 32.9547 134.214 32.592C133.648 32.2293 133.2 31.7137 132.871 31.045C132.554 30.365 132.395 29.583 132.395 28.699C132.395 27.815 132.554 27.0273 132.871 26.336C133.2 25.6447 133.653 25.112 134.231 24.738C134.809 24.3527 135.467 24.16 136.203 24.16C136.804 24.16 137.342 24.2903 137.818 24.551C138.294 24.8117 138.663 25.163 138.923 25.605V24.381H141.456ZM136.951 31.181C137.586 31.181 138.073 30.9657 138.413 30.535C138.753 30.1043 138.923 29.481 138.923 28.665C138.923 27.849 138.753 27.2257 138.413 26.795C138.073 26.353 137.586 26.132 136.951 26.132C136.317 26.132 135.824 26.3587 135.472 26.812C135.121 27.2653 134.945 27.8943 134.945 28.699C134.945 29.5037 135.115 30.1213 135.455 30.552C135.807 30.9713 136.305 31.181 136.951 31.181ZM148.543 24.177C148.906 24.177 149.212 24.2337 149.461 24.347L149.444 26.693C149.025 26.5003 148.606 26.404 148.186 26.404C147.506 26.404 146.985 26.591 146.622 26.965C146.271 27.3277 146.095 27.8377 146.095 28.495V33H143.528V26.846C143.528 25.928 143.483 25.1063 143.392 24.381H145.806L145.976 25.86C146.192 25.316 146.526 24.9023 146.979 24.619C147.444 24.3243 147.965 24.177 148.543 24.177ZM158.971 20.488V33H156.438V31.725C156.177 32.167 155.809 32.5127 155.333 32.762C154.857 33.0113 154.319 33.136 153.718 33.136C152.981 33.136 152.324 32.949 151.746 32.575C151.168 32.1897 150.715 31.657 150.386 30.977C150.069 30.2857 149.91 29.498 149.91 28.614C149.91 27.73 150.069 26.9537 150.386 26.285C150.715 25.605 151.162 25.0837 151.729 24.721C152.307 24.347 152.97 24.16 153.718 24.16C154.296 24.16 154.823 24.2847 155.299 24.534C155.775 24.772 156.143 25.1063 156.404 25.537V20.488H158.971ZM154.466 31.181C155.101 31.181 155.588 30.9657 155.928 30.535C156.268 30.093 156.438 29.464 156.438 28.648C156.438 27.8433 156.262 27.2257 155.911 26.795C155.571 26.353 155.089 26.132 154.466 26.132C153.831 26.132 153.338 26.3473 152.987 26.778C152.636 27.2087 152.46 27.8207 152.46 28.614C152.46 29.43 152.636 30.0647 152.987 30.518C153.338 30.96 153.831 31.181 154.466 31.181Z" fill="#4C49ED"/>
</svg>
