<svg width="206" height="55" viewBox="0 0 206 55" fill="none" xmlns="http://www.w3.org/2000/svg">
<g clip-path="url(#clip0_17_13)">
<path d="M46 15.4H34C33.2044 15.4 32.4413 15.7161 31.8787 16.2787C31.3161 16.8413 31 17.6044 31 18.4V36.4C31 37.1957 31.3161 37.9587 31.8787 38.5213C32.4413 39.0839 33.2044 39.4 34 39.4H46C46.7956 39.4 47.5587 39.0839 48.1213 38.5213C48.6839 37.9587 49 37.1957 49 36.4V18.4C49 17.6044 48.6839 16.8413 48.1213 16.2787C47.5587 15.7161 46.7956 15.4 46 15.4V15.4ZM35.5 21.4H44.5C44.6989 21.4 44.8897 21.479 45.0303 21.6197C45.171 21.7603 45.25 21.9511 45.25 22.15C45.25 22.3489 45.171 22.5397 45.0303 22.6803C44.8897 22.821 44.6989 22.9 44.5 22.9H35.5C35.3011 22.9 35.1103 22.821 34.9697 22.6803C34.829 22.5397 34.75 22.3489 34.75 22.15C34.75 21.9511 34.829 21.7603 34.9697 21.6197C35.1103 21.479 35.3011 21.4 35.5 21.4ZM34.75 25.15C34.75 24.9511 34.829 24.7603 34.9697 24.6197C35.1103 24.479 35.3011 24.4 35.5 24.4H44.5C44.6989 24.4 44.8897 24.479 45.0303 24.6197C45.171 24.7603 45.25 24.9511 45.25 25.15C45.25 25.3489 45.171 25.5397 45.0303 25.6803C44.8897 25.821 44.6989 25.9 44.5 25.9H35.5C35.3011 25.9 35.1103 25.821 34.9697 25.6803C34.829 25.5397 34.75 25.3489 34.75 25.15ZM35.5 27.4H44.5C44.6989 27.4 44.8897 27.479 45.0303 27.6197C45.171 27.7603 45.25 27.9511 45.25 28.15C45.25 28.3489 45.171 28.5397 45.0303 28.6803C44.8897 28.821 44.6989 28.9 44.5 28.9H35.5C35.3011 28.9 35.1103 28.821 34.9697 28.6803C34.829 28.5397 34.75 28.3489 34.75 28.15C34.75 27.9511 34.829 27.7603 34.9697 27.6197C35.1103 27.479 35.3011 27.4 35.5 27.4ZM35.5 30.4H40C40.1989 30.4 40.3897 30.479 40.5303 30.6197C40.671 30.7603 40.75 30.9511 40.75 31.15C40.75 31.3489 40.671 31.5397 40.5303 31.6803C40.3897 31.821 40.1989 31.9 40 31.9H35.5C35.3011 31.9 35.1103 31.821 34.9697 31.6803C34.829 31.5397 34.75 31.3489 34.75 31.15C34.75 30.9511 34.829 30.7603 34.9697 30.6197C35.1103 30.479 35.3011 30.4 35.5 30.4Z" fill="#A4A3C1"/>
</g>
<path d="M69.224 33.6V21.615H71.876V33.6H69.224ZM74.1341 33.6V27.225C74.1341 26.8623 74.1227 26.494 74.1001 26.12C74.0774 25.7347 74.0434 25.355 73.9981 24.981H76.4631L76.6501 26.579H76.4461C76.7294 26.0123 77.1317 25.576 77.6531 25.27C78.1744 24.964 78.7807 24.811 79.4721 24.811C80.4807 24.811 81.2344 25.1057 81.7331 25.695C82.2431 26.273 82.4981 27.174 82.4981 28.398V33.6H79.9311V28.517C79.9311 27.8937 79.8177 27.4517 79.5911 27.191C79.3644 26.9303 79.0244 26.8 78.5711 26.8C78.0044 26.8 77.5511 26.9813 77.2111 27.344C76.8711 27.6953 76.7011 28.1713 76.7011 28.772V33.6H74.1341ZM86.9759 33.6L83.2529 24.981H85.9559L88.4209 31.237H87.8599L90.4099 24.981H92.9429L89.1859 33.6H86.9759ZM97.7209 33.787C96.8029 33.787 96.0039 33.6057 95.3239 33.243C94.6552 32.869 94.1339 32.3477 93.7599 31.679C93.3972 31.0103 93.2159 30.2113 93.2159 29.282C93.2159 28.364 93.3972 27.5707 93.7599 26.902C94.1339 26.2333 94.6552 25.7177 95.3239 25.355C96.0039 24.9923 96.8029 24.811 97.7209 24.811C98.6389 24.811 99.4379 24.9923 100.118 25.355C100.798 25.7177 101.319 26.2333 101.682 26.902C102.056 27.5707 102.243 28.364 102.243 29.282C102.243 30.2113 102.056 31.0103 101.682 31.679C101.319 32.3477 100.798 32.869 100.118 33.243C99.4379 33.6057 98.6389 33.787 97.7209 33.787ZM97.7209 31.849C98.3102 31.849 98.7749 31.6393 99.1149 31.22C99.4662 30.8007 99.6419 30.1547 99.6419 29.282C99.6419 28.4093 99.4662 27.769 99.1149 27.361C98.7749 26.953 98.3102 26.749 97.7209 26.749C97.1316 26.749 96.6612 26.953 96.3099 27.361C95.9699 27.769 95.7999 28.4093 95.7999 29.282C95.7999 30.1547 95.9699 30.8007 96.3099 31.22C96.6612 31.6393 97.1316 31.849 97.7209 31.849ZM103.901 33.6V24.981H106.468V33.6H103.901ZM103.799 23.57V21.173H106.553V23.57H103.799ZM112.714 33.787C111.796 33.787 110.991 33.6057 110.3 33.243C109.608 32.8803 109.076 32.359 108.702 31.679C108.328 30.999 108.141 30.1943 108.141 29.265C108.141 28.3243 108.328 27.5253 108.702 26.868C109.087 26.1993 109.62 25.6893 110.3 25.338C110.991 24.9867 111.796 24.811 112.714 24.811C113.292 24.811 113.853 24.896 114.397 25.066C114.952 25.236 115.405 25.474 115.757 25.78L115.009 27.548C114.725 27.2873 114.397 27.0947 114.023 26.97C113.66 26.834 113.309 26.766 112.969 26.766C112.277 26.766 111.739 26.9813 111.354 27.412C110.968 27.8427 110.776 28.466 110.776 29.282C110.776 30.098 110.968 30.7213 111.354 31.152C111.739 31.5827 112.277 31.798 112.969 31.798C113.297 31.798 113.643 31.7357 114.006 31.611C114.38 31.4863 114.714 31.2993 115.009 31.05L115.757 32.801C115.394 33.107 114.935 33.3507 114.38 33.532C113.836 33.702 113.28 33.787 112.714 33.787ZM121.384 33.787C119.888 33.787 118.721 33.3847 117.882 32.58C117.043 31.7753 116.624 30.6817 116.624 29.299C116.624 28.4037 116.8 27.6217 117.151 26.953C117.514 26.2843 118.012 25.763 118.647 25.389C119.293 25.0037 120.047 24.811 120.908 24.811C121.758 24.811 122.466 24.9923 123.033 25.355C123.611 25.7177 124.042 26.2277 124.325 26.885C124.62 27.531 124.767 28.2847 124.767 29.146V29.741H118.732V28.466H122.897L122.608 28.704C122.608 27.99 122.461 27.4517 122.166 27.089C121.883 26.715 121.469 26.528 120.925 26.528C120.324 26.528 119.86 26.749 119.531 27.191C119.214 27.633 119.055 28.2677 119.055 29.095V29.367C119.055 30.2057 119.259 30.829 119.667 31.237C120.086 31.645 120.687 31.849 121.469 31.849C121.934 31.849 122.37 31.7923 122.778 31.679C123.197 31.5543 123.594 31.3617 123.968 31.101L124.682 32.801C124.251 33.1183 123.753 33.362 123.186 33.532C122.631 33.702 122.03 33.787 121.384 33.787Z" fill="#A4A3C1"/>
<defs>
<clipPath id="clip0_17_13">
<rect width="24" height="24" fill="white" transform="translate(28 15.4)"/>
</clipPath>
</defs>
</svg>
