<svg width="202" height="48" viewBox="0 0 202 48" fill="none" xmlns="http://www.w3.org/2000/svg">
<path fill-rule="evenodd" clip-rule="evenodd" d="M46 21C46 21.1989 45.921 21.3897 45.7803 21.5303C45.6397 21.671 45.4489 21.75 45.25 21.75H36.5605L39.781 24.969C39.8507 25.0387 39.906 25.1215 39.9438 25.2126C39.9815 25.3037 40.0009 25.4014 40.0009 25.5C40.0009 25.5986 39.9815 25.6963 39.9438 25.7874C39.906 25.8785 39.8507 25.9613 39.781 26.031C39.7113 26.1007 39.6285 26.156 39.5374 26.1938C39.4463 26.2315 39.3486 26.2509 39.25 26.2509C39.1514 26.2509 39.0537 26.2315 38.9626 26.1938C38.8715 26.156 38.7887 26.1007 38.719 26.031L34.219 21.531C34.1492 21.4613 34.0937 21.3786 34.0559 21.2875C34.0181 21.1963 33.9987 21.0987 33.9987 21C33.9987 20.9014 34.0181 20.8037 34.0559 20.7126C34.0937 20.6214 34.1492 20.5387 34.219 20.469L38.719 15.969C38.8598 15.8282 39.0508 15.7491 39.25 15.7491C39.4492 15.7491 39.6402 15.8282 39.781 15.969C39.9218 16.1098 40.0009 16.3008 40.0009 16.5C40.0009 16.6992 39.9218 16.8902 39.781 17.031L36.5605 20.25H45.25C45.4489 20.25 45.6397 20.329 45.7803 20.4697C45.921 20.6103 46 20.8011 46 21Z" fill="#A4A3C1"/>
<path d="M69.207 30V17.896H71.859V27.841H77.265V30H69.207ZM82.7467 30.136C81.8287 30.136 81.024 29.9547 80.3327 29.592C79.6527 29.2293 79.1257 28.708 78.7517 28.028C78.389 27.348 78.2077 26.5547 78.2077 25.648C78.2077 24.7413 78.389 23.948 78.7517 23.268C79.1257 22.588 79.6527 22.0667 80.3327 21.704C81.024 21.3413 81.8287 21.16 82.7467 21.16C83.6534 21.16 84.4467 21.3413 85.1267 21.704C85.8067 22.0667 86.328 22.588 86.6907 23.268C87.0647 23.948 87.2517 24.7413 87.2517 25.648C87.2517 26.5547 87.0647 27.348 86.6907 28.028C86.328 28.708 85.8067 29.2293 85.1267 29.592C84.4467 29.9547 83.6534 30.136 82.7467 30.136ZM82.7467 28.181C83.3814 28.181 83.863 27.9713 84.1917 27.552C84.5317 27.1327 84.7017 26.498 84.7017 25.648C84.7017 24.8093 84.5317 24.1803 84.1917 23.761C83.863 23.3303 83.3814 23.115 82.7467 23.115C82.1007 23.115 81.6077 23.3303 81.2677 23.761C80.9277 24.1803 80.7577 24.8093 80.7577 25.648C80.7577 27.3367 81.4207 28.181 82.7467 28.181ZM97.6135 21.381V29.609C97.6135 30.9803 97.2168 32.023 96.4235 32.737C95.6301 33.451 94.4741 33.808 92.9555 33.808C91.5841 33.808 90.3941 33.5417 89.3855 33.009L89.7765 31.105C90.8191 31.6263 91.8505 31.887 92.8705 31.887C93.6071 31.887 94.1568 31.7113 94.5195 31.36C94.8821 31.02 95.0635 30.4987 95.0635 29.796V28.3C94.7915 28.7193 94.4118 29.0707 93.9245 29.354C93.4371 29.626 92.8988 29.762 92.3095 29.762C91.5615 29.762 90.8985 29.5863 90.3205 29.235C89.7425 28.8723 89.2891 28.368 88.9605 27.722C88.6318 27.0647 88.4675 26.311 88.4675 25.461C88.4675 24.611 88.6318 23.863 88.9605 23.217C89.2891 22.5597 89.7425 22.0553 90.3205 21.704C90.8985 21.3413 91.5615 21.16 92.3095 21.16C92.9101 21.16 93.4541 21.2903 93.9415 21.551C94.4288 21.8117 94.8028 22.163 95.0635 22.605V21.381H97.6135ZM93.0575 27.807C93.6808 27.807 94.1681 27.603 94.5195 27.195C94.8821 26.7757 95.0635 26.1977 95.0635 25.461C95.0635 24.7357 94.8878 24.169 94.5365 23.761C94.1851 23.3417 93.6921 23.132 93.0575 23.132C92.4228 23.132 91.9241 23.3417 91.5615 23.761C91.1988 24.169 91.0175 24.7357 91.0175 25.461C91.0175 26.1863 91.1988 26.7587 91.5615 27.178C91.9241 27.5973 92.4228 27.807 93.0575 27.807ZM110.177 30.153C108.976 30.153 107.927 29.9037 107.032 29.405C106.148 28.895 105.462 28.1697 104.975 27.229C104.499 26.2883 104.261 25.189 104.261 23.931C104.261 22.673 104.499 21.5793 104.975 20.65C105.462 19.7207 106.148 19.0067 107.032 18.508C107.927 17.998 108.976 17.743 110.177 17.743C111.378 17.743 112.421 17.998 113.305 18.508C114.189 19.0067 114.869 19.7207 115.345 20.65C115.821 21.5793 116.059 22.673 116.059 23.931C116.059 25.189 115.821 26.2883 115.345 27.229C114.869 28.1697 114.189 28.895 113.305 29.405C112.421 29.9037 111.378 30.153 110.177 30.153ZM110.177 28.079C111.197 28.079 111.99 27.722 112.557 27.008C113.135 26.294 113.424 25.2683 113.424 23.931C113.424 22.5937 113.135 21.5737 112.557 20.871C111.99 20.1683 111.197 19.817 110.177 19.817C109.157 19.817 108.358 20.1683 107.78 20.871C107.213 21.5737 106.93 22.5937 106.93 23.931C106.93 25.2797 107.213 26.311 107.78 27.025C108.358 27.7277 109.157 28.079 110.177 28.079ZM126.19 21.381V30H123.691V28.742C123.419 29.1953 123.062 29.541 122.62 29.779C122.178 30.017 121.679 30.136 121.124 30.136C120.047 30.136 119.242 29.8357 118.71 29.235C118.177 28.6343 117.911 27.7277 117.911 26.515V21.381H120.478V26.566C120.478 27.6087 120.925 28.13 121.821 28.13C122.353 28.13 122.784 27.9487 123.113 27.586C123.441 27.2233 123.606 26.7473 123.606 26.158V21.381H126.19ZM131.501 23.302V26.651C131.501 27.127 131.626 27.4783 131.875 27.705C132.125 27.9203 132.448 28.028 132.844 28.028C133.094 28.028 133.377 27.9883 133.694 27.909V29.898C133.286 30.0567 132.793 30.136 132.215 30.136C131.15 30.136 130.334 29.8357 129.767 29.235C129.212 28.6343 128.934 27.79 128.934 26.702V23.302H127.302V21.381H128.934V19.358L131.501 18.525V21.381H133.694V23.302H131.501Z" fill="#CCCBD8"/>
</svg>
