<svg width="157" height="77" viewBox="0 0 157 77" fill="none" xmlns="http://www.w3.org/2000/svg">
<rect width="157" height="77" rx="9" fill="white"/>
<path d="M49.75 44.125C49.75 45.015 49.4861 45.885 48.9916 46.6251C48.4971 47.3651 47.7943 47.9419 46.9721 48.2825C46.1498 48.6231 45.245 48.7122 44.3721 48.5385C43.4992 48.3649 42.6974 47.9363 42.068 47.307C41.4387 46.6776 41.0101 45.8758 40.8365 45.0029C40.6628 44.13 40.7519 43.2252 41.0925 42.4029C41.4331 41.5807 42.0099 40.8779 42.7499 40.3834C43.49 39.8889 44.36 39.625 45.25 39.625C46.4435 39.625 47.5881 40.0991 48.432 40.943C49.2759 41.7869 49.75 42.9315 49.75 44.125ZM48.625 28.375H29.5C28.9033 28.375 28.331 28.6121 27.909 29.034C27.4871 29.456 27.25 30.0283 27.25 30.625V46.375C27.25 46.9717 27.4871 47.544 27.909 47.966C28.331 48.3879 28.9033 48.625 29.5 48.625H40.2325C39.0753 47.3425 38.4547 45.6646 38.499 43.9377C38.5433 42.2109 39.249 40.567 40.4705 39.3455C41.692 38.124 43.3359 37.4183 45.0627 37.374C46.7896 37.3297 48.4675 37.9503 49.75 39.1075V34C49.75 33.7016 49.6315 33.4155 49.4205 33.2045C49.2095 32.9935 48.9234 32.875 48.625 32.875H30.625C30.3266 32.875 30.0405 32.7565 29.8295 32.5455C29.6185 32.3345 29.5 32.0484 29.5 31.75C29.5 31.4516 29.6185 31.1655 29.8295 30.9545C30.0405 30.7435 30.3266 30.625 30.625 30.625H49.75V29.5C49.75 29.2016 49.6315 28.9155 49.4205 28.7045C49.2095 28.4935 48.9234 28.375 48.625 28.375Z" fill="#4C49ED"/>
<path d="M60.344 46.5V31.548H70.781V34.635H64.229V37.365H70.361V40.431H64.229V46.5H60.344ZM72.3977 46.5V35.832H76.1987V46.5H72.3977ZM72.2927 30.603H76.2617V34.026H72.2927V30.603ZM85.608 35.538C86.868 35.538 87.806 35.923 88.422 36.693C89.052 37.449 89.367 38.597 89.367 40.137V46.5H85.566V40.305C85.566 39.647 85.454 39.178 85.23 38.898C85.006 38.604 84.656 38.457 84.18 38.457C83.606 38.457 83.144 38.653 82.794 39.045C82.444 39.423 82.269 39.927 82.269 40.557V46.5H78.468V38.898C78.468 37.75 78.412 36.728 78.3 35.832H81.87L82.059 37.407C82.465 36.805 82.969 36.343 83.571 36.021C84.173 35.699 84.852 35.538 85.608 35.538Z" fill="black"/>
<path d="M102.807 35.832V46.5H99.0695V45.051C98.7615 45.555 98.3135 45.954 97.7255 46.248C97.1375 46.528 96.4935 46.668 95.7935 46.668C94.8835 46.668 94.0715 46.444 93.3575 45.996C92.6435 45.548 92.0835 44.911 91.6775 44.085C91.2855 43.245 91.0895 42.279 91.0895 41.187C91.0895 40.081 91.2925 39.101 91.6985 38.247C92.1045 37.393 92.6645 36.728 93.3785 36.252C94.0925 35.776 94.8975 35.538 95.7935 35.538C96.4935 35.538 97.1305 35.692 97.7045 36C98.2925 36.294 98.7475 36.693 99.0695 37.197V35.832H102.807ZM96.9695 43.833C97.6415 43.833 98.1595 43.602 98.5235 43.14C98.8875 42.678 99.0695 42.013 99.0695 41.145C99.0695 40.263 98.8875 39.591 98.5235 39.129C98.1595 38.653 97.6415 38.415 96.9695 38.415C96.3115 38.415 95.7935 38.66 95.4155 39.15C95.0375 39.626 94.8485 40.305 94.8485 41.187C94.8485 42.041 95.0305 42.699 95.3945 43.161C95.7585 43.609 96.2835 43.833 96.9695 43.833ZM112.102 35.538C113.012 35.538 113.824 35.776 114.538 36.252C115.252 36.728 115.812 37.393 116.218 38.247C116.624 39.101 116.827 40.081 116.827 41.187C116.827 42.279 116.624 43.245 116.218 44.085C115.826 44.911 115.273 45.548 114.559 45.996C113.845 46.444 113.026 46.668 112.102 46.668C111.402 46.668 110.765 46.535 110.191 46.269C109.617 45.989 109.176 45.604 108.868 45.114V51.036H105.067V38.898C105.067 37.75 105.011 36.728 104.899 35.832H108.469L108.679 37.491C108.945 36.903 109.386 36.434 110.002 36.084C110.618 35.72 111.318 35.538 112.102 35.538ZM110.947 43.833C111.633 43.833 112.151 43.609 112.501 43.161C112.851 42.713 113.026 42.055 113.026 41.187C113.026 40.305 112.844 39.626 112.48 39.15C112.13 38.66 111.619 38.415 110.947 38.415C110.261 38.415 109.736 38.646 109.372 39.108C109.008 39.57 108.826 40.249 108.826 41.145C108.826 42.013 109.008 42.678 109.372 43.14C109.736 43.602 110.261 43.833 110.947 43.833ZM125.637 35.538C126.547 35.538 127.359 35.776 128.073 36.252C128.787 36.728 129.347 37.393 129.753 38.247C130.159 39.101 130.362 40.081 130.362 41.187C130.362 42.279 130.159 43.245 129.753 44.085C129.361 44.911 128.808 45.548 128.094 45.996C127.38 46.444 126.561 46.668 125.637 46.668C124.937 46.668 124.3 46.535 123.726 46.269C123.152 45.989 122.711 45.604 122.403 45.114V51.036H118.602V38.898C118.602 37.75 118.546 36.728 118.434 35.832H122.004L122.214 37.491C122.48 36.903 122.921 36.434 123.537 36.084C124.153 35.72 124.853 35.538 125.637 35.538ZM124.482 43.833C125.168 43.833 125.686 43.609 126.036 43.161C126.386 42.713 126.561 42.055 126.561 41.187C126.561 40.305 126.379 39.626 126.015 39.15C125.665 38.66 125.154 38.415 124.482 38.415C123.796 38.415 123.271 38.646 122.907 39.108C122.543 39.57 122.361 40.249 122.361 41.145C122.361 42.013 122.543 42.678 122.907 43.14C123.271 43.602 123.796 43.833 124.482 43.833Z" fill="#4C49ED"/>
</svg>
