<svg width="206" height="55" viewBox="0 0 206 55" fill="none" xmlns="http://www.w3.org/2000/svg">
<path d="M29.5 32.1C29.5 31.7022 29.658 31.3206 29.9393 31.0393C30.2206 30.758 30.6022 30.6 31 30.6H34C34.3978 30.6 34.7794 30.758 35.0607 31.0393C35.342 31.3206 35.5 31.7022 35.5 32.1V36.6C35.5 36.9978 35.342 37.3793 35.0607 37.6606C34.7794 37.942 34.3978 38.1 34 38.1H31C30.6022 38.1 30.2206 37.942 29.9393 37.6606C29.658 37.3793 29.5 36.9978 29.5 36.6V32.1ZM37 26.1C37 25.7022 37.158 25.3206 37.4393 25.0393C37.7206 24.758 38.1022 24.6 38.5 24.6H41.5C41.8978 24.6 42.2794 24.758 42.5607 25.0393C42.842 25.3206 43 25.7022 43 26.1V36.6C43 36.9978 42.842 37.3793 42.5607 37.6606C42.2794 37.942 41.8978 38.1 41.5 38.1H38.5C38.1022 38.1 37.7206 37.942 37.4393 37.6606C37.158 37.3793 37 36.9978 37 36.6V26.1ZM44.5 18.6C44.5 18.2022 44.658 17.8206 44.9393 17.5393C45.2206 17.258 45.6022 17.1 46 17.1H49C49.3978 17.1 49.7794 17.258 50.0607 17.5393C50.342 17.8206 50.5 18.2022 50.5 18.6V36.6C50.5 36.9978 50.342 37.3793 50.0607 37.6606C49.7794 37.942 49.3978 38.1 49 38.1H46C45.6022 38.1 45.2206 37.942 44.9393 37.6606C44.658 37.3793 44.5 36.9978 44.5 36.6V18.6Z" fill="#A4A3C1"/>
<path d="M69.224 33.8V21.815H74.664C76.0127 21.815 77.0553 22.138 77.792 22.784C78.5287 23.4187 78.897 24.3083 78.897 25.453C78.897 26.201 78.727 26.847 78.387 27.391C78.0583 27.9237 77.5823 28.3373 76.959 28.632C76.347 28.9153 75.6103 29.057 74.749 29.057L74.953 28.683H75.65C76.1373 28.683 76.568 28.8133 76.942 29.074C77.3273 29.3347 77.6447 29.7143 77.894 30.213L79.679 33.8H76.755L74.902 29.941C74.766 29.6123 74.5507 29.397 74.256 29.295C73.9727 29.1817 73.644 29.125 73.27 29.125H71.876V33.8H69.224ZM71.876 27.221H74.205C74.8963 27.221 75.4233 27.0793 75.786 26.796C76.1487 26.5127 76.33 26.0933 76.33 25.538C76.33 24.9827 76.1487 24.569 75.786 24.297C75.4233 24.0137 74.8963 23.872 74.205 23.872H71.876V27.221ZM85.1927 33.987C83.6967 33.987 82.5294 33.5847 81.6907 32.78C80.852 31.9753 80.4327 30.8817 80.4327 29.499C80.4327 28.6037 80.6084 27.8217 80.9597 27.153C81.3224 26.4843 81.821 25.963 82.4557 25.589C83.1017 25.2037 83.8554 25.011 84.7167 25.011C85.5667 25.011 86.275 25.1923 86.8417 25.555C87.4197 25.9177 87.8504 26.4277 88.1337 27.085C88.4284 27.731 88.5757 28.4847 88.5757 29.346V29.941H82.5407V28.666H86.7057L86.4167 28.904C86.4167 28.19 86.2694 27.6517 85.9747 27.289C85.6914 26.915 85.2777 26.728 84.7337 26.728C84.133 26.728 83.6684 26.949 83.3397 27.391C83.0224 27.833 82.8637 28.4677 82.8637 29.295V29.567C82.8637 30.4057 83.0677 31.029 83.4757 31.437C83.895 31.845 84.4957 32.049 85.2777 32.049C85.7424 32.049 86.1787 31.9923 86.5867 31.879C87.006 31.7543 87.4027 31.5617 87.7767 31.301L88.4907 33.001C88.06 33.3183 87.5614 33.562 86.9947 33.732C86.4394 33.902 85.8387 33.987 85.1927 33.987ZM90.2044 37.472V27.425C90.2044 27.0623 90.1931 26.694 90.1704 26.32C90.1477 25.9347 90.1137 25.555 90.0684 25.181H92.5334L92.7374 26.864H92.5504C92.7204 26.2973 93.0774 25.8497 93.6214 25.521C94.1654 25.181 94.7887 25.011 95.4914 25.011C96.2394 25.011 96.8967 25.1923 97.4634 25.555C98.0301 25.9063 98.4721 26.4163 98.7894 27.085C99.1181 27.7537 99.2824 28.5527 99.2824 29.482C99.2824 30.4227 99.1181 31.2273 98.7894 31.896C98.4721 32.5647 98.0301 33.0803 97.4634 33.443C96.8967 33.8057 96.2394 33.987 95.4914 33.987C94.8001 33.987 94.1824 33.8227 93.6384 33.494C93.1057 33.1653 92.7487 32.729 92.5674 32.185H92.7714V37.472H90.2044ZM94.7094 32.049C95.3101 32.049 95.7917 31.8393 96.1544 31.42C96.5171 31.0007 96.6984 30.3547 96.6984 29.482C96.6984 28.6093 96.5171 27.969 96.1544 27.561C95.7917 27.153 95.3101 26.949 94.7094 26.949C94.1201 26.949 93.6384 27.153 93.2644 27.561C92.9017 27.969 92.7204 28.6093 92.7204 29.482C92.7204 30.3547 92.9017 31.0007 93.2644 31.42C93.6384 31.8393 94.1201 32.049 94.7094 32.049ZM105.026 33.987C104.108 33.987 103.309 33.8057 102.629 33.443C101.96 33.069 101.439 32.5477 101.065 31.879C100.702 31.2103 100.521 30.4113 100.521 29.482C100.521 28.564 100.702 27.7707 101.065 27.102C101.439 26.4333 101.96 25.9177 102.629 25.555C103.309 25.1923 104.108 25.011 105.026 25.011C105.944 25.011 106.743 25.1923 107.423 25.555C108.103 25.9177 108.624 26.4333 108.987 27.102C109.361 27.7707 109.548 28.564 109.548 29.482C109.548 30.4113 109.361 31.2103 108.987 31.879C108.624 32.5477 108.103 33.069 107.423 33.443C106.743 33.8057 105.944 33.987 105.026 33.987ZM105.026 32.049C105.615 32.049 106.08 31.8393 106.42 31.42C106.771 31.0007 106.947 30.3547 106.947 29.482C106.947 28.6093 106.771 27.969 106.42 27.561C106.08 27.153 105.615 26.949 105.026 26.949C104.436 26.949 103.966 27.153 103.615 27.561C103.275 27.969 103.105 28.6093 103.105 29.482C103.105 30.3547 103.275 31.0007 103.615 31.42C103.966 31.8393 104.436 32.049 105.026 32.049ZM111.188 33.8V27.459C111.188 27.085 111.177 26.7053 111.154 26.32C111.143 25.9347 111.115 25.555 111.069 25.181H113.534L113.823 27.697H113.432C113.546 27.085 113.727 26.5807 113.976 26.184C114.237 25.7873 114.554 25.4927 114.928 25.3C115.314 25.1073 115.75 25.011 116.237 25.011C116.453 25.011 116.623 25.0223 116.747 25.045C116.872 25.0563 116.997 25.0847 117.121 25.13L117.104 27.391C116.866 27.289 116.662 27.2267 116.492 27.204C116.334 27.17 116.13 27.153 115.88 27.153C115.404 27.153 115.008 27.2437 114.69 27.425C114.384 27.6063 114.152 27.8727 113.993 28.224C113.846 28.5753 113.772 29.0003 113.772 29.499V33.8H111.188ZM122.722 33.987C121.6 33.987 120.755 33.7093 120.189 33.154C119.622 32.5873 119.339 31.743 119.339 30.621V27.102H117.707V25.181H119.339V23.073L121.906 22.444V25.181H124.116V27.102H121.906V30.485C121.906 31.029 122.019 31.403 122.246 31.607C122.472 31.811 122.761 31.913 123.113 31.913C123.328 31.913 123.504 31.9017 123.64 31.879C123.787 31.845 123.94 31.7997 124.099 31.743V33.732C123.883 33.8227 123.657 33.885 123.419 33.919C123.181 33.9643 122.948 33.987 122.722 33.987ZM128.612 33.987C127.841 33.987 127.139 33.902 126.504 33.732C125.869 33.562 125.331 33.324 124.889 33.018L125.552 31.318C125.994 31.59 126.481 31.8053 127.014 31.964C127.558 32.1227 128.096 32.202 128.629 32.202C129.128 32.202 129.496 32.1227 129.734 31.964C129.972 31.8053 130.091 31.59 130.091 31.318C130.091 31.0913 130.012 30.9157 129.853 30.791C129.706 30.6663 129.473 30.5757 129.156 30.519L127.405 30.196C126.668 30.0487 126.107 29.7767 125.722 29.38C125.337 28.9833 125.144 28.4677 125.144 27.833C125.144 27.2777 125.291 26.7903 125.586 26.371C125.892 25.9403 126.328 25.606 126.895 25.368C127.462 25.13 128.125 25.011 128.884 25.011C129.53 25.011 130.142 25.0903 130.72 25.249C131.298 25.4077 131.791 25.6513 132.199 25.98L131.502 27.629C131.151 27.3683 130.743 27.1587 130.278 27C129.825 26.8413 129.388 26.762 128.969 26.762C128.425 26.762 128.034 26.8527 127.796 27.034C127.558 27.204 127.439 27.425 127.439 27.697C127.439 27.901 127.507 28.071 127.643 28.207C127.79 28.343 128.011 28.445 128.306 28.513L130.074 28.836C130.833 28.972 131.411 29.227 131.808 29.601C132.205 29.975 132.403 30.4907 132.403 31.148C132.403 31.7487 132.244 32.2587 131.927 32.678C131.61 33.0973 131.162 33.4203 130.584 33.647C130.017 33.8737 129.36 33.987 128.612 33.987Z" fill="#A4A3C1"/>
</svg>
