<svg width="206" height="166" viewBox="0 0 206 166" fill="none" xmlns="http://www.w3.org/2000/svg">
<line y1="0.5" x2="206" y2="0.5" stroke="#E0DFF0"/>
<g clip-path="url(#clip0_17_70)">
<path d="M42.1075 39.375C41.488 37.275 38.512 37.275 37.8925 39.375L37.7425 39.885C37.6499 40.1994 37.4882 40.4891 37.2691 40.7328C37.05 40.9766 36.7791 41.1682 36.4763 41.2936C36.1736 41.419 35.8465 41.4751 35.5193 41.4577C35.192 41.4403 34.8728 41.3498 34.585 41.193L34.12 40.938C32.1955 39.891 30.091 41.9955 31.1395 43.9185L31.393 44.385C32.062 45.615 31.4275 47.1465 30.085 47.5425L29.575 47.6925C27.475 48.312 27.475 51.288 29.575 51.9075L30.085 52.0575C30.3994 52.1501 30.6891 52.3118 30.9328 52.5309C31.1766 52.75 31.3682 53.0209 31.4936 53.3237C31.619 53.6264 31.6751 53.9535 31.6577 54.2807C31.6403 54.608 31.5498 54.9272 31.393 55.215L31.138 55.68C30.091 57.6045 32.1955 59.709 34.1185 58.6605L34.585 58.407C34.8728 58.2502 35.192 58.1597 35.5193 58.1423C35.8465 58.1249 36.1736 58.181 36.4763 58.3064C36.7791 58.4318 37.05 58.6234 37.2691 58.8672C37.4882 59.1109 37.6499 59.4006 37.7425 59.715L37.8925 60.225C38.512 62.325 41.488 62.325 42.1075 60.225L42.2575 59.715C42.3501 59.4006 42.5118 59.1109 42.7309 58.8672C42.95 58.6234 43.2209 58.4318 43.5237 58.3064C43.8264 58.181 44.1535 58.1249 44.4807 58.1423C44.808 58.1597 45.1272 58.2502 45.415 58.407L45.88 58.662C47.8045 59.709 49.909 57.6045 48.8605 55.6815L48.607 55.215C48.4502 54.9272 48.3597 54.608 48.3423 54.2807C48.3249 53.9535 48.381 53.6264 48.5064 53.3237C48.6318 53.0209 48.8234 52.75 49.0672 52.5309C49.3109 52.3118 49.6006 52.1501 49.915 52.0575L50.425 51.9075C52.525 51.288 52.525 48.312 50.425 47.6925L49.915 47.5425C49.6006 47.4499 49.3109 47.2882 49.0672 47.0691C48.8234 46.85 48.6318 46.5791 48.5064 46.2763C48.381 45.9736 48.3249 45.6465 48.3423 45.3193C48.3597 44.992 48.4502 44.6728 48.607 44.385L48.862 43.92C49.909 41.9955 47.8045 39.891 45.8815 40.9395L45.415 41.193C45.1272 41.3498 44.808 41.4403 44.4807 41.4577C44.1535 41.4751 43.8264 41.419 43.5237 41.2936C43.2209 41.1682 42.95 40.9766 42.7309 40.7328C42.5118 40.4891 42.3501 40.1994 42.2575 39.885L42.1075 39.375ZM40 54.195C38.8344 54.195 37.7165 53.732 36.8923 52.9077C36.068 52.0835 35.605 50.9656 35.605 49.8C35.605 48.6344 36.068 47.5165 36.8923 46.6923C37.7165 45.868 38.8344 45.405 40 45.405C41.1652 45.405 42.2827 45.8679 43.1067 46.6918C43.9306 47.5158 44.3935 48.6333 44.3935 49.7985C44.3935 50.9637 43.9306 52.0812 43.1067 52.9052C42.2827 53.7291 41.1652 54.192 40 54.192V54.195Z" fill="#A4A3C1"/>
</g>
<path d="M73.559 56.187C72.5957 56.187 71.6947 56.068 70.856 55.83C70.0173 55.592 69.3033 55.2633 68.714 54.844L69.496 52.77C69.8813 53.0307 70.2893 53.2517 70.72 53.433C71.1507 53.6143 71.604 53.756 72.08 53.858C72.556 53.9487 73.0547 53.994 73.576 53.994C74.392 53.994 74.97 53.8693 75.31 53.62C75.6613 53.3707 75.837 53.0533 75.837 52.668C75.837 52.3167 75.718 52.0503 75.48 51.869C75.2533 51.6763 74.834 51.512 74.222 51.376L72.216 50.968C71.1167 50.7413 70.295 50.356 69.751 49.812C69.207 49.268 68.935 48.5427 68.935 47.636C68.935 46.8653 69.139 46.1967 69.547 45.63C69.955 45.0633 70.5273 44.6213 71.264 44.304C72.012 43.9867 72.8847 43.828 73.882 43.828C74.732 43.828 75.5253 43.947 76.262 44.185C76.9987 44.423 77.605 44.763 78.081 45.205L77.299 47.143C76.8343 46.769 76.313 46.4913 75.735 46.31C75.1683 46.1173 74.5337 46.021 73.831 46.021C73.0943 46.021 72.5277 46.1513 72.131 46.412C71.7457 46.6727 71.553 47.0297 71.553 47.483C71.553 47.823 71.672 48.1007 71.91 48.316C72.148 48.52 72.5673 48.6843 73.168 48.809L75.14 49.2C76.262 49.4267 77.095 49.8063 77.639 50.339C78.183 50.8717 78.455 51.58 78.455 52.464C78.455 53.212 78.251 53.8637 77.843 54.419C77.4463 54.9743 76.8797 55.4107 76.143 55.728C75.4177 56.034 74.5563 56.187 73.559 56.187ZM84.5785 56.187C83.0825 56.187 81.9151 55.7847 81.0765 54.98C80.2378 54.1753 79.8185 53.0817 79.8185 51.699C79.8185 50.8037 79.9941 50.0217 80.3455 49.353C80.7081 48.6843 81.2068 48.163 81.8415 47.789C82.4875 47.4037 83.2411 47.211 84.1025 47.211C84.9525 47.211 85.6608 47.3923 86.2275 47.755C86.8055 48.1177 87.2361 48.6277 87.5195 49.285C87.8141 49.931 87.9615 50.6847 87.9615 51.546V52.141H81.9265V50.866H86.0915L85.8025 51.104C85.8025 50.39 85.6551 49.8517 85.3605 49.489C85.0771 49.115 84.6635 48.928 84.1195 48.928C83.5188 48.928 83.0541 49.149 82.7255 49.591C82.4081 50.033 82.2495 50.6677 82.2495 51.495V51.767C82.2495 52.6057 82.4535 53.229 82.8615 53.637C83.2808 54.045 83.8815 54.249 84.6635 54.249C85.1281 54.249 85.5645 54.1923 85.9725 54.079C86.3918 53.9543 86.7885 53.7617 87.1625 53.501L87.8765 55.201C87.4458 55.5183 86.9471 55.762 86.3805 55.932C85.8251 56.102 85.2245 56.187 84.5785 56.187ZM93.5693 56.187C92.4473 56.187 91.603 55.9093 91.0363 55.354C90.4697 54.7873 90.1863 53.943 90.1863 52.821V49.302H88.5543V47.381H90.1863V45.273L92.7533 44.644V47.381H94.9633V49.302H92.7533V52.685C92.7533 53.229 92.8667 53.603 93.0933 53.807C93.32 54.011 93.609 54.113 93.9603 54.113C94.1757 54.113 94.3513 54.1017 94.4873 54.079C94.6347 54.045 94.7877 53.9997 94.9463 53.943V55.932C94.731 56.0227 94.5043 56.085 94.2663 56.119C94.0283 56.1643 93.796 56.187 93.5693 56.187ZM99.6953 56.187C98.5733 56.187 97.729 55.9093 97.1623 55.354C96.5956 54.7873 96.3123 53.943 96.3123 52.821V49.302H94.6803V47.381H96.3123V45.273L98.8793 44.644V47.381H101.089V49.302H98.8793V52.685C98.8793 53.229 98.9926 53.603 99.2193 53.807C99.446 54.011 99.735 54.113 100.086 54.113C100.302 54.113 100.477 54.1017 100.613 54.079C100.761 54.045 100.914 53.9997 101.072 53.943V55.932C100.857 56.0227 100.63 56.085 100.392 56.119C100.154 56.1643 99.922 56.187 99.6953 56.187ZM102.407 56V47.381H104.974V56H102.407ZM102.305 45.97V43.573H105.059V45.97H102.305ZM107.072 56V49.625C107.072 49.2623 107.06 48.894 107.038 48.52C107.015 48.1347 106.981 47.755 106.936 47.381H109.401L109.588 48.979H109.384C109.667 48.4123 110.069 47.976 110.591 47.67C111.112 47.364 111.718 47.211 112.41 47.211C113.418 47.211 114.172 47.5057 114.671 48.095C115.181 48.673 115.436 49.574 115.436 50.798V56H112.869V50.917C112.869 50.2937 112.755 49.8517 112.529 49.591C112.302 49.3303 111.962 49.2 111.509 49.2C110.942 49.2 110.489 49.3813 110.149 49.744C109.809 50.0953 109.639 50.5713 109.639 51.172V56H107.072ZM121.594 59.808C120.767 59.808 120.03 59.723 119.384 59.553C118.738 59.3943 118.16 59.1507 117.65 58.822L118.143 56.986C118.461 57.19 118.795 57.3543 119.146 57.479C119.509 57.615 119.877 57.7113 120.251 57.768C120.637 57.836 121.016 57.87 121.39 57.87C122.15 57.87 122.716 57.6887 123.09 57.326C123.464 56.9633 123.651 56.4477 123.651 55.779V53.994H123.821C123.64 54.538 123.277 54.9743 122.733 55.303C122.189 55.6317 121.577 55.796 120.897 55.796C120.127 55.796 119.452 55.6203 118.874 55.269C118.308 54.9177 117.866 54.419 117.548 53.773C117.231 53.127 117.072 52.3677 117.072 51.495C117.072 50.6223 117.231 49.863 117.548 49.217C117.866 48.571 118.308 48.078 118.874 47.738C119.452 47.3867 120.127 47.211 120.897 47.211C121.589 47.211 122.195 47.3753 122.716 47.704C123.249 48.0213 123.606 48.4463 123.787 48.979L123.651 48.911L123.821 47.381H126.303C126.258 47.755 126.224 48.1347 126.201 48.52C126.179 48.894 126.167 49.2623 126.167 49.625V55.49C126.167 56.884 125.776 57.9493 124.994 58.686C124.212 59.434 123.079 59.808 121.594 59.808ZM121.662 53.858C122.263 53.858 122.739 53.654 123.09 53.246C123.442 52.838 123.617 52.2543 123.617 51.495C123.617 50.7357 123.442 50.1577 123.09 49.761C122.739 49.353 122.263 49.149 121.662 49.149C121.039 49.149 120.546 49.353 120.183 49.761C119.832 50.1577 119.656 50.7357 119.656 51.495C119.656 52.2543 119.832 52.838 120.183 53.246C120.546 53.654 121.039 53.858 121.662 53.858ZM131.434 56.187C130.664 56.187 129.961 56.102 129.326 55.932C128.692 55.762 128.153 55.524 127.711 55.218L128.374 53.518C128.816 53.79 129.304 54.0053 129.836 54.164C130.38 54.3227 130.919 54.402 131.451 54.402C131.95 54.402 132.318 54.3227 132.556 54.164C132.794 54.0053 132.913 53.79 132.913 53.518C132.913 53.2913 132.834 53.1157 132.675 52.991C132.528 52.8663 132.296 52.7757 131.978 52.719L130.227 52.396C129.491 52.2487 128.93 51.9767 128.544 51.58C128.159 51.1833 127.966 50.6677 127.966 50.033C127.966 49.4777 128.114 48.9903 128.408 48.571C128.714 48.1403 129.151 47.806 129.717 47.568C130.284 47.33 130.947 47.211 131.706 47.211C132.352 47.211 132.964 47.2903 133.542 47.449C134.12 47.6077 134.613 47.8513 135.021 48.18L134.324 49.829C133.973 49.5683 133.565 49.3587 133.1 49.2C132.647 49.0413 132.211 48.962 131.791 48.962C131.247 48.962 130.856 49.0527 130.618 49.234C130.38 49.404 130.261 49.625 130.261 49.897C130.261 50.101 130.329 50.271 130.465 50.407C130.613 50.543 130.834 50.645 131.128 50.713L132.896 51.036C133.656 51.172 134.234 51.427 134.63 51.801C135.027 52.175 135.225 52.6907 135.225 53.348C135.225 53.9487 135.067 54.4587 134.749 54.878C134.432 55.2973 133.984 55.6203 133.406 55.847C132.84 56.0737 132.182 56.187 131.434 56.187Z" fill="#A4A3C1"/>
<g clip-path="url(#clip1_17_70)">
<path d="M52 130.4C52 133.583 50.7357 136.635 48.4853 138.885C46.2348 141.136 43.1826 142.4 40 142.4C36.8174 142.4 33.7652 141.136 31.5147 138.885C29.2643 136.635 28 133.583 28 130.4C28 127.217 29.2643 124.165 31.5147 121.915C33.7652 119.664 36.8174 118.4 40 118.4C43.1826 118.4 46.2348 119.664 48.4853 121.915C50.7357 124.165 52 127.217 52 130.4ZM36.244 127.449H37.4815C37.6885 127.449 37.8535 127.28 37.8805 127.074C38.0155 126.09 38.6905 125.373 39.8935 125.373C40.9225 125.373 41.8645 125.888 41.8645 127.125C41.8645 128.078 41.3035 128.516 40.417 129.182C39.4075 129.915 38.608 130.772 38.665 132.162L38.6695 132.488C38.6711 132.586 38.7113 132.68 38.7814 132.749C38.8516 132.818 38.9461 132.857 39.0445 132.857H40.261C40.3605 132.857 40.4558 132.817 40.5262 132.747C40.5965 132.677 40.636 132.581 40.636 132.482V132.324C40.636 131.247 41.0455 130.934 42.151 130.095C43.0645 129.401 44.017 128.63 44.017 127.011C44.017 124.745 42.103 123.65 40.0075 123.65C38.107 123.65 36.025 124.535 35.8825 127.079C35.8804 127.127 35.8883 127.176 35.9056 127.221C35.923 127.266 35.9494 127.308 35.9832 127.342C36.0171 127.377 36.0577 127.404 36.1025 127.423C36.1474 127.441 36.1955 127.45 36.244 127.449ZM39.7315 137.114C40.6465 137.114 41.275 136.523 41.275 135.723C41.275 134.895 40.645 134.313 39.7315 134.313C38.8555 134.313 38.218 134.895 38.218 135.723C38.218 136.523 38.8555 137.114 39.733 137.114H39.7315Z" fill="#A4A3C1"/>
</g>
<path d="M69.224 136.6V124.615H71.876V129.426H77.367V124.615H80.036V136.6H77.367V131.619H71.876V136.6H69.224ZM86.637 136.787C85.141 136.787 83.9737 136.385 83.135 135.58C82.2964 134.775 81.877 133.682 81.877 132.299C81.877 131.404 82.0527 130.622 82.404 129.953C82.7667 129.284 83.2654 128.763 83.9 128.389C84.546 128.004 85.2997 127.811 86.161 127.811C87.011 127.811 87.7194 127.992 88.286 128.355C88.864 128.718 89.2947 129.228 89.578 129.885C89.8727 130.531 90.02 131.285 90.02 132.146V132.741H83.985V131.466H88.15L87.861 131.704C87.861 130.99 87.7137 130.452 87.419 130.089C87.1357 129.715 86.722 129.528 86.178 129.528C85.5774 129.528 85.1127 129.749 84.784 130.191C84.4667 130.633 84.308 131.268 84.308 132.095V132.367C84.308 133.206 84.512 133.829 84.92 134.237C85.3394 134.645 85.94 134.849 86.722 134.849C87.1867 134.849 87.623 134.792 88.031 134.679C88.4504 134.554 88.847 134.362 89.221 134.101L89.935 135.801C89.5044 136.118 89.0057 136.362 88.439 136.532C87.8837 136.702 87.283 136.787 86.637 136.787ZM91.6487 136.6V124.088H94.2157V136.6H91.6487ZM96.3138 140.272V130.225C96.3138 129.862 96.3024 129.494 96.2798 129.12C96.2571 128.735 96.2231 128.355 96.1778 127.981H98.6428L98.8468 129.664H98.6598C98.8298 129.097 99.1868 128.65 99.7308 128.321C100.275 127.981 100.898 127.811 101.601 127.811C102.349 127.811 103.006 127.992 103.573 128.355C104.139 128.706 104.581 129.216 104.899 129.885C105.227 130.554 105.392 131.353 105.392 132.282C105.392 133.223 105.227 134.027 104.899 134.696C104.581 135.365 104.139 135.88 103.573 136.243C103.006 136.606 102.349 136.787 101.601 136.787C100.909 136.787 100.292 136.623 99.7478 136.294C99.2151 135.965 98.8581 135.529 98.6768 134.985H98.8808V140.272H96.3138ZM100.819 134.849C101.419 134.849 101.901 134.639 102.264 134.22C102.626 133.801 102.808 133.155 102.808 132.282C102.808 131.409 102.626 130.769 102.264 130.361C101.901 129.953 101.419 129.749 100.819 129.749C100.229 129.749 99.7478 129.953 99.3738 130.361C99.0111 130.769 98.8298 131.409 98.8298 132.282C98.8298 133.155 99.0111 133.801 99.3738 134.22C99.7478 134.639 100.229 134.849 100.819 134.849Z" fill="#A4A3C1"/>
<defs>
<clipPath id="clip0_17_70">
<rect width="24" height="24" fill="white" transform="translate(28 37.8)"/>
</clipPath>
<clipPath id="clip1_17_70">
<rect width="24" height="24" fill="white" transform="translate(28 118.4)"/>
</clipPath>
</defs>
</svg>
