<svg width="206" height="54" viewBox="0 0 206 54" fill="none" xmlns="http://www.w3.org/2000/svg">
<g clip-path="url(#clip0_17_26)">
<path d="M29.9995 19.2005C29.9995 16.991 34.477 15.2 40 15.2C45.523 15.2 50.0005 16.991 50.0005 19.2005V21.2C50.0005 23.4095 45.523 25.2005 40 25.2005C34.477 25.2005 29.9995 23.4095 29.9995 21.2V19.2005Z" fill="#A4A3C1"/>
<path d="M29.9995 24.701V29.201C29.9995 31.4075 34.477 33.2 40 33.2C45.523 33.2 50.0005 31.409 50.0005 29.1995V24.701C49.325 25.1876 48.59 25.5858 47.8135 25.886C45.715 26.726 42.9505 27.2 40 27.2C37.051 27.2 34.2865 26.7245 32.188 25.886C31.4115 25.5859 30.6765 25.1876 30.001 24.701H29.9995Z" fill="#A4A3C1"/>
<path d="M50.0005 32.702C49.3249 33.1881 48.59 33.5858 47.8135 33.8855C45.7135 34.7255 42.9505 35.1995 39.9985 35.1995C37.0495 35.1995 34.285 34.7255 32.1865 33.8855C31.41 33.5853 30.675 33.1871 29.9995 32.7005V35.1995C29.9995 37.409 34.477 39.2 40 39.2C45.523 39.2 50.0005 37.409 50.0005 35.1995V32.702Z" fill="#A4A3C1"/>
</g>
<path d="M71.995 33.4V23.574H68.187V21.415H78.455V23.574H74.647V33.4H71.995ZM78.3671 33.4V27.059C78.3671 26.685 78.3557 26.3053 78.3331 25.92C78.3217 25.5347 78.2934 25.155 78.2481 24.781H80.7131L81.0021 27.297H80.6111C80.7244 26.685 80.9057 26.1807 81.1551 25.784C81.4157 25.3873 81.7331 25.0927 82.1071 24.9C82.4924 24.7073 82.9287 24.611 83.4161 24.611C83.6314 24.611 83.8014 24.6223 83.9261 24.645C84.0507 24.6563 84.1754 24.6847 84.3001 24.73L84.2831 26.991C84.0451 26.889 83.8411 26.8267 83.6711 26.804C83.5124 26.77 83.3084 26.753 83.0591 26.753C82.5831 26.753 82.1864 26.8437 81.8691 27.025C81.5631 27.2063 81.3307 27.4727 81.1721 27.824C81.0247 28.1753 80.9511 28.6003 80.9511 29.099V33.4H78.3671ZM88.6393 33.587C87.8913 33.587 87.234 33.4057 86.6673 33.043C86.1007 32.6803 85.6587 32.1647 85.3413 31.496C85.024 30.8273 84.8653 30.0227 84.8653 29.082C84.8653 28.1527 85.024 27.3537 85.3413 26.685C85.6587 26.0163 86.1007 25.5063 86.6673 25.155C87.234 24.7923 87.8913 24.611 88.6393 24.611C89.3307 24.611 89.9483 24.781 90.4923 25.121C91.0477 25.4497 91.4103 25.8973 91.5803 26.464H91.3933L91.5973 24.781H94.0623C94.0283 25.155 93.9943 25.5347 93.9603 25.92C93.9377 26.294 93.9263 26.6623 93.9263 27.025V33.4H91.3763L91.3593 31.785H91.5633C91.382 32.329 91.0193 32.7653 90.4753 33.094C89.9313 33.4227 89.3193 33.587 88.6393 33.587ZM89.4213 31.649C90.0107 31.649 90.4867 31.4393 90.8493 31.02C91.212 30.6007 91.3933 29.9547 91.3933 29.082C91.3933 28.2093 91.212 27.569 90.8493 27.161C90.4867 26.753 90.0107 26.549 89.4213 26.549C88.832 26.549 88.356 26.753 87.9933 27.161C87.6307 27.569 87.4493 28.2093 87.4493 29.082C87.4493 29.9547 87.625 30.6007 87.9763 31.02C88.339 31.4393 88.8207 31.649 89.4213 31.649ZM96.0315 33.4V27.025C96.0315 26.6623 96.0202 26.294 95.9975 25.92C95.9749 25.5347 95.9409 25.155 95.8955 24.781H98.3605L98.5475 26.379H98.3435C98.6269 25.8123 99.0292 25.376 99.5505 25.07C100.072 24.764 100.678 24.611 101.37 24.611C102.378 24.611 103.132 24.9057 103.631 25.495C104.141 26.073 104.396 26.974 104.396 28.198V33.4H101.829V28.317C101.829 27.6937 101.715 27.2517 101.489 26.991C101.262 26.7303 100.922 26.6 100.469 26.6C99.9019 26.6 99.4485 26.7813 99.1085 27.144C98.7685 27.4953 98.5985 27.9713 98.5985 28.572V33.4H96.0315ZM109.636 33.587C108.866 33.587 108.163 33.502 107.528 33.332C106.894 33.162 106.355 32.924 105.913 32.618L106.576 30.918C107.018 31.19 107.506 31.4053 108.038 31.564C108.582 31.7227 109.121 31.802 109.653 31.802C110.152 31.802 110.52 31.7227 110.758 31.564C110.996 31.4053 111.115 31.19 111.115 30.918C111.115 30.6913 111.036 30.5157 110.877 30.391C110.73 30.2663 110.498 30.1757 110.18 30.119L108.429 29.796C107.693 29.6487 107.132 29.3767 106.746 28.98C106.361 28.5833 106.168 28.0677 106.168 27.433C106.168 26.8777 106.316 26.3903 106.61 25.971C106.916 25.5403 107.353 25.206 107.919 24.968C108.486 24.73 109.149 24.611 109.908 24.611C110.554 24.611 111.166 24.6903 111.744 24.849C112.322 25.0077 112.815 25.2513 113.223 25.58L112.526 27.229C112.175 26.9683 111.767 26.7587 111.302 26.6C110.849 26.4413 110.413 26.362 109.993 26.362C109.449 26.362 109.058 26.4527 108.82 26.634C108.582 26.804 108.463 27.025 108.463 27.297C108.463 27.501 108.531 27.671 108.667 27.807C108.815 27.943 109.036 28.045 109.33 28.113L111.098 28.436C111.858 28.572 112.436 28.827 112.832 29.201C113.229 29.575 113.427 30.0907 113.427 30.748C113.427 31.3487 113.269 31.8587 112.951 32.278C112.634 32.6973 112.186 33.0203 111.608 33.247C111.042 33.4737 110.384 33.587 109.636 33.587ZM118.373 33.587C117.625 33.587 116.967 33.4057 116.401 33.043C115.834 32.6803 115.392 32.1647 115.075 31.496C114.757 30.8273 114.599 30.0227 114.599 29.082C114.599 28.1527 114.757 27.3537 115.075 26.685C115.392 26.0163 115.834 25.5063 116.401 25.155C116.967 24.7923 117.625 24.611 118.373 24.611C119.064 24.611 119.682 24.781 120.226 25.121C120.781 25.4497 121.144 25.8973 121.314 26.464H121.127L121.331 24.781H123.796C123.762 25.155 123.728 25.5347 123.694 25.92C123.671 26.294 123.66 26.6623 123.66 27.025V33.4H121.11L121.093 31.785H121.297C121.115 32.329 120.753 32.7653 120.209 33.094C119.665 33.4227 119.053 33.587 118.373 33.587ZM119.155 31.649C119.744 31.649 120.22 31.4393 120.583 31.02C120.945 30.6007 121.127 29.9547 121.127 29.082C121.127 28.2093 120.945 27.569 120.583 27.161C120.22 26.753 119.744 26.549 119.155 26.549C118.565 26.549 118.089 26.753 117.727 27.161C117.364 27.569 117.183 28.2093 117.183 29.082C117.183 29.9547 117.358 30.6007 117.71 31.02C118.072 31.4393 118.554 31.649 119.155 31.649ZM129.913 33.587C128.995 33.587 128.19 33.4057 127.499 33.043C126.808 32.6803 126.275 32.159 125.901 31.479C125.527 30.799 125.34 29.9943 125.34 29.065C125.34 28.1243 125.527 27.3253 125.901 26.668C126.286 25.9993 126.819 25.4893 127.499 25.138C128.19 24.7867 128.995 24.611 129.913 24.611C130.491 24.611 131.052 24.696 131.596 24.866C132.151 25.036 132.605 25.274 132.956 25.58L132.208 27.348C131.925 27.0873 131.596 26.8947 131.222 26.77C130.859 26.634 130.508 26.566 130.168 26.566C129.477 26.566 128.938 26.7813 128.553 27.212C128.168 27.6427 127.975 28.266 127.975 29.082C127.975 29.898 128.168 30.5213 128.553 30.952C128.938 31.3827 129.477 31.598 130.168 31.598C130.497 31.598 130.842 31.5357 131.205 31.411C131.579 31.2863 131.913 31.0993 132.208 30.85L132.956 32.601C132.593 32.907 132.134 33.1507 131.579 33.332C131.035 33.502 130.48 33.587 129.913 33.587ZM138.493 33.587C137.371 33.587 136.527 33.3093 135.96 32.754C135.393 32.1873 135.11 31.343 135.11 30.221V26.702H133.478V24.781H135.11V22.673L137.677 22.044V24.781H139.887V26.702H137.677V30.085C137.677 30.629 137.79 31.003 138.017 31.207C138.244 31.411 138.533 31.513 138.884 31.513C139.099 31.513 139.275 31.5017 139.411 31.479C139.558 31.445 139.711 31.3997 139.87 31.343V33.332C139.655 33.4227 139.428 33.485 139.19 33.519C138.952 33.5643 138.72 33.587 138.493 33.587ZM141.204 33.4V24.781H143.771V33.4H141.204ZM141.102 23.37V20.973H143.856V23.37H141.102ZM149.949 33.587C149.031 33.587 148.232 33.4057 147.552 33.043C146.884 32.669 146.362 32.1477 145.988 31.479C145.626 30.8103 145.444 30.0113 145.444 29.082C145.444 28.164 145.626 27.3707 145.988 26.702C146.362 26.0333 146.884 25.5177 147.552 25.155C148.232 24.7923 149.031 24.611 149.949 24.611C150.867 24.611 151.666 24.7923 152.346 25.155C153.026 25.5177 153.548 26.0333 153.91 26.702C154.284 27.3707 154.471 28.164 154.471 29.082C154.471 30.0113 154.284 30.8103 153.91 31.479C153.548 32.1477 153.026 32.669 152.346 33.043C151.666 33.4057 150.867 33.587 149.949 33.587ZM149.949 31.649C150.539 31.649 151.003 31.4393 151.343 31.02C151.695 30.6007 151.87 29.9547 151.87 29.082C151.87 28.2093 151.695 27.569 151.343 27.161C151.003 26.753 150.539 26.549 149.949 26.549C149.36 26.549 148.89 26.753 148.538 27.161C148.198 27.569 148.028 28.2093 148.028 29.082C148.028 29.9547 148.198 30.6007 148.538 31.02C148.89 31.4393 149.36 31.649 149.949 31.649ZM156.129 33.4V27.025C156.129 26.6623 156.118 26.294 156.095 25.92C156.073 25.5347 156.039 25.155 155.993 24.781H158.458L158.645 26.379H158.441C158.725 25.8123 159.127 25.376 159.648 25.07C160.17 24.764 160.776 24.611 161.467 24.611C162.476 24.611 163.23 24.9057 163.728 25.495C164.238 26.073 164.493 26.974 164.493 28.198V33.4H161.926V28.317C161.926 27.6937 161.813 27.2517 161.586 26.991C161.36 26.7303 161.02 26.6 160.566 26.6C160 26.6 159.546 26.7813 159.206 27.144C158.866 27.4953 158.696 27.9713 158.696 28.572V33.4H156.129ZM169.734 33.587C168.963 33.587 168.261 33.502 167.626 33.332C166.991 33.162 166.453 32.924 166.011 32.618L166.674 30.918C167.116 31.19 167.603 31.4053 168.136 31.564C168.68 31.7227 169.218 31.802 169.751 31.802C170.25 31.802 170.618 31.7227 170.856 31.564C171.094 31.4053 171.213 31.19 171.213 30.918C171.213 30.6913 171.134 30.5157 170.975 30.391C170.828 30.2663 170.595 30.1757 170.278 30.119L168.527 29.796C167.79 29.6487 167.229 29.3767 166.844 28.98C166.459 28.5833 166.266 28.0677 166.266 27.433C166.266 26.8777 166.413 26.3903 166.708 25.971C167.014 25.5403 167.45 25.206 168.017 24.968C168.584 24.73 169.247 24.611 170.006 24.611C170.652 24.611 171.264 24.6903 171.842 24.849C172.42 25.0077 172.913 25.2513 173.321 25.58L172.624 27.229C172.273 26.9683 171.865 26.7587 171.4 26.6C170.947 26.4413 170.51 26.362 170.091 26.362C169.547 26.362 169.156 26.4527 168.918 26.634C168.68 26.804 168.561 27.025 168.561 27.297C168.561 27.501 168.629 27.671 168.765 27.807C168.912 27.943 169.133 28.045 169.428 28.113L171.196 28.436C171.955 28.572 172.533 28.827 172.93 29.201C173.327 29.575 173.525 30.0907 173.525 30.748C173.525 31.3487 173.366 31.8587 173.049 32.278C172.732 32.6973 172.284 33.0203 171.706 33.247C171.139 33.4737 170.482 33.587 169.734 33.587Z" fill="#A4A3C1"/>
<defs>
<clipPath id="clip0_17_26">
<rect width="24" height="24" fill="white" transform="translate(28 15.2)"/>
</clipPath>
</defs>
</svg>
