<svg width="206" height="54" viewBox="0 0 206 54" fill="none" xmlns="http://www.w3.org/2000/svg">
<g clip-path="url(#clip0_17_17)">
<path d="M30.25 18C29.6533 18 29.081 18.2371 28.659 18.659C28.2371 19.081 28 19.6533 28 20.25V23.25H37C37.1989 23.25 37.3897 23.329 37.5303 23.4697C37.671 23.6103 37.75 23.8011 37.75 24C37.75 24.3795 37.87 24.966 38.209 25.437C38.5195 25.869 39.0445 26.25 40 26.25C40.9555 26.25 41.4805 25.869 41.791 25.437C42.13 24.966 42.25 24.3795 42.25 24C42.25 23.8011 42.329 23.6103 42.4697 23.4697C42.6103 23.329 42.8011 23.25 43 23.25H52V20.25C52 19.6533 51.7629 19.081 51.341 18.659C50.919 18.2371 50.3467 18 49.75 18H30.25Z" fill="#A4A3C1"/>
<path d="M52 24.75H43.6735C43.5659 25.3124 43.3394 25.8453 43.009 26.313C42.4195 27.132 41.4445 27.75 40 27.75C38.5555 27.75 37.5805 27.132 36.991 26.313C36.6607 25.8453 36.4341 25.3124 36.3265 24.75H28V33.75C28 34.3467 28.2371 34.919 28.659 35.341C29.081 35.7629 29.6533 36 30.25 36H49.75C50.3467 36 50.919 35.7629 51.341 35.341C51.7629 34.919 52 34.3467 52 33.75V24.75Z" fill="#A4A3C1"/>
</g>
<path d="M72.59 33.2L68.34 21.215H71.077L74.12 30.463H73.389L76.704 21.215H78.642L81.685 30.463H81.005L84.235 21.215H86.802L82.518 33.2H80.359L77.418 24.683H77.809L74.766 33.2H72.59ZM90.4987 33.387C89.7507 33.387 89.0934 33.2057 88.5267 32.843C87.96 32.4803 87.518 31.9647 87.2007 31.296C86.8834 30.6273 86.7247 29.8227 86.7247 28.882C86.7247 27.9527 86.8834 27.1537 87.2007 26.485C87.518 25.8163 87.96 25.3063 88.5267 24.955C89.0934 24.5923 89.7507 24.411 90.4987 24.411C91.19 24.411 91.8077 24.581 92.3517 24.921C92.907 25.2497 93.2697 25.6973 93.4397 26.264H93.2527L93.4567 24.581H95.9217C95.8877 24.955 95.8537 25.3347 95.8197 25.72C95.797 26.094 95.7857 26.4623 95.7857 26.825V33.2H93.2357L93.2187 31.585H93.4227C93.2414 32.129 92.8787 32.5653 92.3347 32.894C91.7907 33.2227 91.1787 33.387 90.4987 33.387ZM91.2807 31.449C91.87 31.449 92.346 31.2393 92.7087 30.82C93.0714 30.4007 93.2527 29.7547 93.2527 28.882C93.2527 28.0093 93.0714 27.369 92.7087 26.961C92.346 26.553 91.87 26.349 91.2807 26.349C90.6914 26.349 90.2154 26.553 89.8527 26.961C89.49 27.369 89.3087 28.0093 89.3087 28.882C89.3087 29.7547 89.4844 30.4007 89.8357 30.82C90.1984 31.2393 90.68 31.449 91.2807 31.449ZM97.8909 33.2V20.688H100.458V33.2H97.8909ZM102.556 33.2V20.688H105.123V33.2H102.556ZM111.556 33.387C110.06 33.387 108.893 32.9847 108.054 32.18C107.215 31.3753 106.796 30.2817 106.796 28.899C106.796 28.0037 106.972 27.2217 107.323 26.553C107.686 25.8843 108.184 25.363 108.819 24.989C109.465 24.6037 110.219 24.411 111.08 24.411C111.93 24.411 112.638 24.5923 113.205 24.955C113.783 25.3177 114.214 25.8277 114.497 26.485C114.792 27.131 114.939 27.8847 114.939 28.746V29.341H108.904V28.066H113.069L112.78 28.304C112.78 27.59 112.633 27.0517 112.338 26.689C112.055 26.315 111.641 26.128 111.097 26.128C110.496 26.128 110.032 26.349 109.703 26.791C109.386 27.233 109.227 27.8677 109.227 28.695V28.967C109.227 29.8057 109.431 30.429 109.839 30.837C110.258 31.245 110.859 31.449 111.641 31.449C112.106 31.449 112.542 31.3923 112.95 31.279C113.369 31.1543 113.766 30.9617 114.14 30.701L114.854 32.401C114.423 32.7183 113.925 32.962 113.358 33.132C112.803 33.302 112.202 33.387 111.556 33.387ZM120.547 33.387C119.425 33.387 118.581 33.1093 118.014 32.554C117.447 31.9873 117.164 31.143 117.164 30.021V26.502H115.532V24.581H117.164V22.473L119.731 21.844V24.581H121.941V26.502H119.731V29.885C119.731 30.429 119.844 30.803 120.071 31.007C120.298 31.211 120.587 31.313 120.938 31.313C121.153 31.313 121.329 31.3017 121.465 31.279C121.612 31.245 121.765 31.1997 121.924 31.143V33.132C121.709 33.2227 121.482 33.285 121.244 33.319C121.006 33.3643 120.774 33.387 120.547 33.387ZM126.437 33.387C125.666 33.387 124.964 33.302 124.329 33.132C123.694 32.962 123.156 32.724 122.714 32.418L123.377 30.718C123.819 30.99 124.306 31.2053 124.839 31.364C125.383 31.5227 125.921 31.602 126.454 31.602C126.953 31.602 127.321 31.5227 127.559 31.364C127.797 31.2053 127.916 30.99 127.916 30.718C127.916 30.4913 127.837 30.3157 127.678 30.191C127.531 30.0663 127.298 29.9757 126.981 29.919L125.23 29.596C124.493 29.4487 123.932 29.1767 123.547 28.78C123.162 28.3833 122.969 27.8677 122.969 27.233C122.969 26.6777 123.116 26.1903 123.411 25.771C123.717 25.3403 124.153 25.006 124.72 24.768C125.287 24.53 125.95 24.411 126.709 24.411C127.355 24.411 127.967 24.4903 128.545 24.649C129.123 24.8077 129.616 25.0513 130.024 25.38L129.327 27.029C128.976 26.7683 128.568 26.5587 128.103 26.4C127.65 26.2413 127.213 26.162 126.794 26.162C126.25 26.162 125.859 26.2527 125.621 26.434C125.383 26.604 125.264 26.825 125.264 27.097C125.264 27.301 125.332 27.471 125.468 27.607C125.615 27.743 125.836 27.845 126.131 27.913L127.899 28.236C128.658 28.372 129.236 28.627 129.633 29.001C130.03 29.375 130.228 29.8907 130.228 30.548C130.228 31.1487 130.069 31.6587 129.752 32.078C129.435 32.4973 128.987 32.8203 128.409 33.047C127.842 33.2737 127.185 33.387 126.437 33.387Z" fill="#A4A3C1"/>
<defs>
<clipPath id="clip0_17_17">
<rect width="24" height="24" fill="white" transform="translate(28 15)"/>
</clipPath>
</defs>
</svg>
